<svg id="Layer_1" data-name="Layer 1" xmlns="http://www.w3.org/2000/svg" viewBox="0 0 500 500"><defs><style>.cls-1{fill:#5ec7e0;}.cls-2{fill:#fff;}</style></defs><title>splash</title><path class="cls-1" d="M132.81717,105.8901c1.84-1.48959,2.74522-3.68993,1.469-5.78475-1.91831-3.139-6.72366-4.44864-10.06879-5.39449a4.22827,4.22827,0,0,0-3.01616.53c-.15921.05135-.309.10457-.4407.15968a5.22088,5.22088,0,0,0-2.98549,2.824,19.64911,19.64911,0,0,0-1.13888,2.78451c-.68391,2.1883-.74115,4.94611,1.23518,6.55136C121.90624,110.83809,129.203,108.82056,132.81717,105.8901Z"/><path class="cls-1" d="M167.36925,84.12049c8.77441.70436,7.16534-9.5106,3.67037-14.41458.38737-1.08465-1.04257-1.98461-2.6241-1.61071-1.61963.06244-3.51586,1.067-3.242,2.12492C160.5102,74.7485,158.61865,83.41519,167.36925,84.12049Z"/><path class="cls-1" d="M248.21044,64.52169c7.4609-4.09768,8.59509-14.62109,3.47679-20.728.27759-.46662.1135-.90184-.889-1.114-.07541-.01655-.13343-.01392-.20786-.02859a12.15547,12.15547,0,0,0-1.96969-1.50877c-1.39926-.8394-5.43123.84391-4.45353,2.14072-6.52617,3.45389-5.06966,16.05463.05235,21.40963C245.18959,65.70828,247.189,65.082,248.21044,64.52169Z"/><path class="cls-1" d="M284.78748,62.26361c5.29294-1.00284,8.7793-4.33372,8.94809-9.70527.17737-5.8077-2.61259-12.00472-8.76212-13.77248-1.219-.3519-5.20308,1.30113-4.38848,1.94963C272.17859,46.42734,270.4693,64.981,284.78748,62.26361Z"/><path class="cls-1" d="M380.53446,147.10767a14.51328,14.51328,0,0,0,17.37342-12.03237c.23559-1.33329-1.325-1.66036-2.79873-1.34063a2.803,2.803,0,0,0-1.30376-.14068c-6.81626,1.05531-14.09119,4.67358-14.35823,12.14541A1.32078,1.32078,0,0,0,380.53446,147.10767Z"/><path class="cls-1" d="M34.77916,306.38446c-.51513.34437-.58663.72467-.38054,1.0066a10.5438,10.5438,0,0,0-4.27147,8.75735c.0086,7.62887,7.11006,11.1563,14.08162,8.66293,6.44334-2.2987,7.8979-10.12487,6.15422-15.81314C48.114,301.65784,40.08147,302.8213,34.77916,306.38446Z"/><path class="cls-1" d="M48.48961,272.49352c3.35665-3.948-1.95523-5.94913-5.65433-6.71048a.29625.29625,0,0,0-.09631-.0946c-4.91045-2.49694-11.87243-1.49768-16.04271,1.98555-1.45553,1.21593-2.08807,3.09484-1.01483,4.72681,1.55555,2.37394,5.17163,3.47138,7.8348,4.08583C38.29209,277.58482,45.24079,276.31473,48.48961,272.49352Z"/><path class="cls-1" d="M64.16136,156.40687c2.48384-1.62538,1.92007-3.926-.06193-5.67623a20.402,20.402,0,0,0-3.164-2.22347,1.40345,1.40345,0,0,0-.34811-.14783.91581.91581,0,0,0-.536-.7053,4.01856,4.01856,0,0,0-3.64753.40512c-2.2168,1.247-6.36032,3.62466-5.745,6.66628.453,2.23438,3.70652,2.86426,5.61428,3.12061A12.09133,12.09133,0,0,0,64.16136,156.40687Z"/><path class="cls-1" d="M87.65168,321.97172a4.93751,4.93751,0,0,0-.17738-2.8936,11.39435,11.39435,0,0,0,.54365-1.77979c.07443-.35265-.102-.54374-.45692-.6485a26.958,26.958,0,0,0-2.62781-.628,8.25535,8.25535,0,0,0-1.88667-.91106c-3.59517-1.1802-7.59842-.34249-11.13909,1.102-.59894.17905-1.22463.37108-1.85033.57947a16.26373,16.26373,0,0,0-10.56771,5.00046c-2.91029,2.13056-4.45822,4.59553-2.89681,7.17616.21547,3.77795,3.28594,6.71405,7.85687,6.98037,4.59926.26632,9.28564-1.4721,13.25745-3.54849C82.005,330.15335,86.49,326.77658,87.65168,321.97172Z"/><path class="cls-1" d="M104.7016,341.733c-.226-.05793-.45868-.0946-.68665-.14238-.19847-.16814-.38249-.34437-.60011-.50781-.74584-.56762-2.16894-.37014-3.23338.16344-6.87545.22494-14.08259,4.44488-18.67541,8.66368-5.54083,5.09319-6.20188,14.40349,2.28635,17.20643,12.33795,4.0738,30.381-13.38974,21.80389-23.94155C105.96648,342.60457,105.82622,342.036,104.7016,341.733Z"/><path class="cls-1" d="M413.35243,383.57971a3.699,3.699,0,0,0-2.69658,1.38125.08332.08332,0,0,1-.01719.02464,1.37167,1.37167,0,0,0-.12678.22137,3.06163,3.06163,0,0,0-.42545.28927c-1.50027,1.4704-3.97748,3.95813-3.07615,6.28335a2.53642,2.53642,0,0,0,.455.74028c-.16487.37371-.31939.75119-.452,1.12866-1.42037,4.25924,3.1744,4.83326,6.37459,3.77268,3.80574-1.26013,7.99028-4.89213,8.53393-8.91364C422.5447,383.89192,416.74425,383.35194,413.35243,383.57971Z"/><path class="cls-1" d="M435.72205,397.54967c-.41023-.82-1.611-.89074-2.57546-.71357-.0295-.04683-.041-.09178-.07716-.14238a2.94276,2.94276,0,0,0-3.50258-.43239c-2.55339,1.46476-6.44607,3.79638-6.51,7.08965a3.63342,3.63342,0,0,0,1.47938,2.98557c.03241.22137.03241.42788.08574.65753a1.54942,1.54942,0,0,0,1.08457,1.00566c3.57115.91557,7.977.798,10.64116-2.02411a3.21789,3.21789,0,0,0,.64-3.89663A10.29519,10.29519,0,0,0,435.72205,397.54967Z"/><path class="cls-1" d="M391.5208,372.20035a2.23276,2.23276,0,0,0-1.20842-.12037c-7.028-3.9286-11.47-15.45955-20.99711-11.934-12.604,4.66342-1.10351,17.92546,4.17028,23.30885,6.56622,6.7086,17.26832,11.58418,26.534,7.12087C410.99733,385.286,396.7231,374.95627,391.5208,372.20035Z"/><path class="cls-1" d="M474.203,235.48742a6.69451,6.69451,0,0,0-2.13847-2.28667c-1.16759-.80272-4.32187.281-4.88564,1.23982a3.14312,3.14312,0,0,0-1.839-.3297,2.53174,2.53174,0,0,0-.73255-.0111c-3.0314.439-7.1757.83846-9.404,3.15653a2.0305,2.0305,0,0,0-.18693,2.87065c-1.29711,1.57874-1.49462,3.45953,1.01872,5.22729,4.48693,3.15729,10.31,2.171,14.611-.83376,2.86534-2.0085,4.753-5.108,4.00715-7.92735C474.99176,236.17354,474.94976,235.7575,474.203,235.48742Z"/><path class="cls-1" d="M439.12149,306.72338c-6.55957-1.934-18.45212,3.68447-23.75834-.29848-5.00285-3.75519-6.592-14.0766-6.36793-19.63811.28053-6.97116,9.29521-9.04022,14.74658-10.81719.37487-.12225,1.983-.91839,1.58329-1.55767-6.551-10.57852,6.3861-7.47634,13.32425-9.7079,6.14661-1.97634,5.67054-7.7372,1.70636-11.24244-3.89445-3.44392-9.3505-5.04541-13.43189-8.30107-7.58319-6.04656-5.72036-17.35426-4.95811-25.39164.03438-.3692.03809-.70718.05919-1.06434.75443-.38575,1.58329-.76229,2.50474-1.13243,3.68-1.47022,4.12242-5.05726,3.02456-8.37724-3.38889-10.24975-21.08853-10.93023-27.4592-19.32947-1.74836-5.55417,9.13778-10.27007,15.22518-10.93587a16.13062,16.13062,0,0,0,7.41421-2.88363c4.42013-3.46762,8.19834-10.37558,3.55122-14.90584a15.57483,15.57483,0,0,0-7.15675-3.72021c-5.66761-4.27391-14.57661-1.62538-23.05334-.079a80.37287,80.37287,0,0,1-10.63452.54374,27.3403,27.3403,0,0,0-11.17719-7.88409.19454.19454,0,0,0-.03907-.00639,24.29586,24.29586,0,0,1-5.55607-10.24806c-.16878-.48017-.763-.6611-1.47761-.67408.02207-14.89926,12.5413-30.23957,4.13394-45.35193-.73626-1.32351-4.22927-.21686-4.91885.73276-8.8545,12.22158-21.73728,26.10615-37.244,12.40984-10.39872-9.179-1.40493-20.10473,5.71645-27.41387,9.32862-9.58038,23.271-19.55742,20.51148-34.31073-.101-.53264-1.13028-.539-1.50709-.52813-23.3997.8614-27.00327,34.14353-38.08884,48.55717-7.07276,9.19914-9.32668-.44819-14.571-3.948a24.80009,24.80009,0,0,0-14.5823-4.52838c-4.83132-.02859-10.44659-3.14356-15.32461-1.31411a6.90984,6.90984,0,0,0-2.60769,1.78149c-3.77821,4.23554-6.92311.09554-8.928-4.22257-.69837-1.50708-4.55081-.03762-5.11262,1.03688-5.35116,10.26442-31.68008,17.3725-37.63974,6.14286-2.26916-4.2741-1.841-11.193-2.42661-15.85828-.65715-5.22447-.29185-21.26349-9.4134-18.13742-4.02533,1.38389-5.31579,7.69112-5.83092,10.99737-.8146,5.25381,2.064,10.50874,1.31058,16.004-.88707,6.45883-8.61326,10.68328-13.44439,14.14093-6.48436,4.6386-8.47886,11.17905-10.64214,18.33585-2.99018,9.91272-17.0632-12.3207-17.62033-13.37131-2.644-4.97733-5.38065-9.22491-10.001-12.71265-1.12852-.85143-4.4297-.02577-4.94756,1.27649-2.50865,6.2999,1.65381,12.52439,4.48674,18.08965,6.50233,12.75779,3.20312,24.30059-15.97492,21.7367-10.3159-1.37843-17.48866,9.45982-21.05239,17.88126-5.10774,1.17455-15.71648-6.06292-16.29256,5.70294-.05235,1.1407,1.32875,2.34272,2.03181,3.07566,3.50141,3.63576,4.54593,7.44136,1.87416,12.013C96.22,172.189,87.10217,172.58093,82.4656,175.64926c-7.92172,5.241,2.7671,13.94608,7.7758,16.58915a82.47859,82.47859,0,0,1,9.51752,5.45881c9.53256,6.74527-4.8915,14.00852-12.66242,8.908-5.33377-3.50354-9.35616-8.42689-15.69069-10.3389-3.38713-1.02484-17.42108,2.15821-15.22616,7.37985,1.65674,3.94722,7.11279,5.1419,10.90234,6.30366,8.57419,2.61637,15.01361,3.32449,20.05084,11.69063,7.93872,13.16931-6.90494,23.00021-18.271,26.24025-1.73683.495-6.90768,1.84581-6.95339,4.3356-.09728,5.31719,7.98834,8.4773,12.61456,9.33494a19.01217,19.01217,0,0,0,3.41955.15987c3.42424,5.40352-3.5559,17.08606-1.62255,23.00943a4.30546,4.30546,0,0,0,3.07418,2.31883c7.67481,1.33536,11.45576,5.33562,9.86289,13.4392-1.7046,8.64732-4.12359,11.66411,2.89681,18.00069a73.40874,73.40874,0,0,0,8.99751,7.31478c-.29458,8.61046,11.68373,5.22541,17.339,9.86024,3.93566,3.228,3.21346,8.67572,5.2062,12.8507a5.46018,5.46018,0,0,0,.905,1.35173c.01153.1625.124.31315.40359.43446.08478.03762.15257.08539.23461.12018a6.979,6.979,0,0,0,2.20059,1.21687c9.0481,6.0144,5.67426,18.88974,3.62272,28.02174-1.25334,5.60382-5.48282,16.28616.08869,20.90463,4.21012,3.49526,11.96776-.02125,15.34727-2.67975,1.60243-1.26747,2.98549-3.50824,4.18161-5.10052,4.59945-6.12913,13.26037-6.63055,20.05279-8.48012,6.34391-1.72563,14.23887-5.62865,17.53165,1.94041,2.34066,5.38433.83081,12.42263-.396,17.82521-2.84523,12.5494-8.44233,21.06262-8.01784,34.061.14006,4.35855-.01914,16.16127,7.29388,15.07117,8.77637-1.30583,7.17863-10.85782,6.18568-17.02719-1.13888-7.04112-3.71415-14.45953-.78491-21.36656a96.32221,96.32221,0,0,1,12.19769-20.62063c5.34724,6.79474,9.77792,20.80439,10.84237,27.85736,1.31059,8.68117-6.6463,26.03525,7.61366,28.95386,4.895,1.001,8.48355-3.99029,10.07739-7.48555,2.17949-4.77909.8861-11.27836-.37389-16.03714-.8986-3.3796-2.3637-6.68565-3.43772-10.02124-3.1867-9.89334,19.52048-19.18352,23.17738-10.74647,2.34456,5.40916,3.89366,16.66439,10.05082,18.74736,4.19215,1.41962,9.77206-1.32615,12.31509-4.36419,4.70045-5.61567,3.78583-16.10692,5.07063-22.84317a35.56955,35.56955,0,0,1,1.76927-5.87183c.28911-.766,5.191-7.91814,8.33292-8.02459,1.5747,4.88009,2.99116,7.28074,8.47007,7.31271,9.591.05435,16.78581,10.37389,26.46352,12.508,11.1895,2.46685,21.05513-10.52435,14.4602-19.66293-4.0138-5.56338-6.19232-16.42647,3.32131-18.76749,2.0822-.51421,3.67135-2.24172,5.10969-3.62466,8.90042-8.56645-1.2133-5.07946.06311-16.03357q-.05012-5.82011,7.50953-2.35475c1.4317,1.45743,2.09276,4.06477,3.28027,5.77742,1.37075,1.97258,2.98178,4.026,5.64868,4.39071,3.87822.52982,8.38626.31033,11.48427-2.4108,7.37417-6.48535,13.25276-22.98084,11.87067-32.58586-.993-6.91812,13.30981,1.28383,16.28006,2.82928a121.26926,121.26926,0,0,0,16.27654,6.45149c6.24955,2.15821,14.55084,3.8829,21.02563,1.496C456.42243,324.14008,453.91085,311.093,439.12149,306.72338Z"/><path class="cls-1" d="M302.139,398.07968c-.17562-.05247-.36452-.0726-.54189-.11586a10.57223,10.57223,0,0,0-1.63387-1.41417c-1.12463-.76774-4.04624.20482-4.53461,1.36188-.351.09178-.69915.19015-1.00448.29115a10.17666,10.17666,0,0,0-1.073.52531,10.91734,10.91734,0,0,0-3.41956,2.2389,5.135,5.135,0,0,0-1.13692,1.80086,4.08641,4.08641,0,0,0-1.28011,4.04634c.11936,1.80556,1.17619,3.77437,3.1,4.0343a6.50064,6.50064,0,0,0,2.36273-.21573,8.19089,8.19089,0,0,0,5.79557-.52079,5.82742,5.82742,0,0,0,3.11716-2.11777,2.02655,2.02655,0,0,0,.10882-.27366,9.42609,9.42609,0,0,0,.77728-1.01111,6.47681,6.47681,0,0,0,.07639-7.12275C303.34548,399.01443,303.314,398.413,302.139,398.07968Z"/><path class="cls-1" d="M362.79008,395.16388c-3.14959-.654-6.48514.57477-9.04341,2.26278a1.90212,1.90212,0,0,0-.79174,1.18283,6.829,6.829,0,0,0-2.83566,1.95979c-1.67882,1.18-3.5016,2.8321-2.61453,4.61565a7.13293,7.13293,0,0,0,2.65926,2.52722,2.2637,2.2637,0,0,0,.82417.77338,4.00823,4.00823,0,0,0,.77826.25334,9.74859,9.74859,0,0,1,1.29164.9782c.29458.26989,1.08828.22024,1.95445.02558a8.6323,8.6323,0,0,0,2.73839.3408,9.91205,9.91205,0,0,0,6.366-3.10594c2.13671-2.07545,4.12437-4.6,3.74676-7.66818C367.56887,396.8959,364.97055,395.61565,362.79008,395.16388Z"/><path class="cls-2" d="M279.18155,195.478A34.73612,34.73612,0,0,0,250.002,211.18261,34.737,34.737,0,0,0,220.82351,195.478a35.09266,35.09266,0,0,0-35.04825,35.05939c0,17.55249,11.05769,35.9043,31.97865,53.07892a183.97906,183.97906,0,0,0,31.80845,20.80445,1.00255,1.00255,0,0,0,.87833,0,183.96568,183.96568,0,0,0,31.80643-20.80445c20.921-17.1736,31.97763-35.52541,31.97763-53.07892A35.089,35.089,0,0,0,279.18155,195.478Z"/></svg>