<svg id="Layer_1" data-name="Layer 1" xmlns="http://www.w3.org/2000/svg" viewBox="0 0 500 500"><defs><style>.cls-1{fill:#5ec7e0;}.cls-2{fill:#fff;}</style></defs><title>splash</title><path class="cls-1" d="M401.9537,340.39735c-17.40529-8.46759-30.20726-26.60485-23.3786-46.03778q11.15341-.03325,22.31045-.07541c.50027,0,3.73725-1.00709,2.53048-1.91823a77.43134,77.43134,0,0,0-19.51-10.92535c-3.10559-1.15174-6.28568-1.86245-9.448-2.79866q-1.92714-.63347-3.851-1.26877.591-2.33846,1.1819-4.67874a7.16386,7.16386,0,0,0,2.03726-4.27859,4.00751,4.00751,0,0,0,1.72143-.75068c3.10908-3.38944,4.09218-4.96095,4.30876-9.897.39037-8.83667.52172-18.81962,8.26261-22.896a24.90046,24.90046,0,0,0,4.20935-.97166,14.57325,14.57325,0,0,0,1.72488-.74523c.6849-.07814,1.36635-.15446,2.11885-.17572.83755-.02671,2.45612-.32746,2.67255-1.37453a17.88724,17.88724,0,0,0,.37616-4.17029c.70634-2.6522-.27327-5.60951-3.72307-8.13032-6.12941-4.47739-13.95553-1.551-20.06022,1.31674-6.84989,3.22189-19.53832,8.80287-22.44507-1.1988-1.23518-4.2546,1.41247-9.48613,4.12409-12.47451,5.78523-6.36455,14.84286-7.362,21.494-12.35221,6.81812-5.10814,7.40017-14.35567-1.66092-17.935-6.20409-2.45067-13.6397.54752-18.56957,4.37436-5.09669,3.95295-7.96437,12.03729-13.05747,15.33623-3.599,2.33619-8.81268,2.13121-10.56246-2.32928a9.42124,9.42124,0,0,1-.47556-3.52245c2.97766-9.42326,12.919-18.71949,15.4887-27.25087,2.07633-6.88645,1.78521-13.99732,5.19609-20.54377,3.33274-6.41071,8.27315-11.80106,12.28734-17.76728,5.267-7.82521,10.92808-21.70624,1.19608-28.84019-5.49411-4.02836-13.19245-2.37708-18.72912.73833-12.45779,7.00966-12.12779,22.75658-15.69113,34.90654a38.44194,38.44194,0,0,1-3.53863,8.7071c-1.06124,1.80829-3.06289,5.22081-4.64585,5.91025-1.75687-.10812-3.51028-.21825-5.2706-.32909q-6.67084,2.23324-5.02564-2.53862c-.84481-5.1145,11.02021-11.998,13.842-16.77273,6.38854-10.80905,8.11705-28.2774,7.982-40.5542-.10285-9.06109-6.5092-13.57573-15.038-10.82777-11.16922,3.60259-5.96622,13.46125-5.93424,22.28647.03562,8.22445-5.64676,14.45053-10.04419,20.78237-4.28749,6.19083-7.62369,20.02824-14.37784,23.73368-1.67182.29184-3.33637.5855-5.008.87752q-5.32375,3.507-5.49775-1c-1.17478-2.71616.13484-1.42868.15628-4.68146.02471-2.65929.4294-5.1056-1.48719-7.33439a7.32826,7.32826,0,0,0-7.14813-2.24406,7.81178,7.81178,0,0,0-4.259,2.11358c-1.21752,1.38688-1.08977,2.87044-1.48719,4.53064-.20934.86062-.41523,5.98294-1.97693,7.30949-4.39743,3.73743-9.68584,3.17119-13.02567-.66273-10.48792-12.04874-11.55265-29.40624-11.82941-44.6269-.33364-17.94573-.26622-35.77606,5.04345-53.091,2.2715-7.41689,9.40527-25.98374-4.45428-24.73623-7.62735.68781-13.18888,7.01692-13.97682,14.37348-1.00455,9.45687,2.69021,18.92356,1.97693,28.52945-.71,9.5988-3.35055,18.92792-4.724,28.43368a55.275,55.275,0,0,0,2.40982,27.47893c1.4374,4.08251,4.8766,11.4169,1.37359,15.33169-2.76123,3.08869-12.69912,4.24043-16.54649,3.56788a15.66069,15.66069,0,0,1-6.9386-2.65311c-5.81376-4.65929-5.7534-17.64934-16.19159-12.35131-4.55368,2.31057-6.82154,7.64949-9.668,11.57845-1.85263,2.54753-3.61313,4.11977-3.65566,7.34874-.02835,1.7665.84463,3.612,1.72125,5.471q-3.95535.75723-7.91462,1.50482c-.37634-1.09232-.79157-2.1721-1.23512-3.24043-.70983-.8748-.97968-2.45521-1.68948-3.346a9.24381,9.24381,0,0,0-4.18809-3.20753,9.51875,9.51875,0,0,0-10.95279,3.65566c-2.51645,4.02473-.88025,7.23862,1.58641,10.59608,1.2635,1.718,6.53776,4.98857,6.559,7.299q-5.37713,2.03917-10.75417,4.07724c-.74887-.98674-1.51191-1.95022-2.30693-2.89607-3.1979-2.51118-5.4445-4.91225-9.235-6.77015-3.22625-1.583-10.18993-5.37454-13.84556-2.01963-2.91027,2.6691-1.03274,5.66366,1.3983,7.80213,2.58042,2.27422,6.36382,3.3122,9.46233,4.62368,2.41,1.02581,5.36636,1.94149,7.60242,3.34964.74887.46938,1.50482.93876,2.25369,1.40724q9.58285,7.87673-2.40288,7.06744c-7.52774,1.42668-6.33529,2.01673-9.65022-3.284-.9831-1.56951-1.771-3.2626-2.74706-4.83756-2.00528-3.24842-4.36563-6.55536-7.80828-8.43561-6.36019-3.4763-20.00337.32928-12.07439,8.61751,1.85266,1.93168,14.65824,7.13486,12.78416,10.91481-1.44794.63257-2.889,1.266-4.34053,1.89515q-4.2059,4.34574-6.09418-.39124c-1.25275-1.165-2.21117-3.34237-3.30073-4.74525a49.08732,49.08732,0,0,0-19.16219-15.10363c-3.9077-1.68418-9.13214-3.6264-13.12852-.91841-4.2377,2.86772-4.01764,8.35474-1.31674,12.15868,4.181,5.90589,13.22429,7.976,19.4391,10.59081,5.29531,2.22716,10.84288,4.51464,14.82142,8.85084a16.10235,16.10235,0,0,1,4.45777,8.71164c1.02584,7.34329-5.06816,14.68386-14.12232,9.80559-5.10726-2.75251-9.39476-7.99385-15.92176-4.99547-4.02127,1.84645-5.20315,5.33166-2.94586,9.21991,3.99293,6.86864,14.59082,6.141,21.27411,6.52337,7.37528.41977,13.10362,2.48974,17.76728,8.56954,1.13938,1.48447,2.15083,2.95385,3.19082,4.386a19.24861,19.24861,0,0,0-1.23515,15.05311c-3.787-.51463-7.47468-2.74179-11.24754-.59622-4.511,2.56334-4.46122,8.53047.47922,10.69548.47208.20952,5.52973.417,5.56514.44994,4.87663,4.44632-5.06834,6.73017-6.8641,8.60061-3.27241,3.39925-9.0222,10.98132-.74538,13.19158a8.02849,8.02849,0,0,0,3.89695-.30347c3.99293-1.26531,2.61588-2.29457,8.27679-2.24842,12.94044.1074-2.25023,10.35221-5.56862,13.7878-1.70017,1.7665-3.61313,3.65384-3.86863,6.25552-.614,6.20573,5.0611,6.9804,9.68929,5.89335,2.2466-.527,3.9077-2.25023,6.01946-2.80121,6.6335-1.7356,8.91553-.08159,11.29352,1.984a29.23986,29.23986,0,0,1,1.221,9.23245c0,2.30166-.57133,4.56952.1988,6.80377.84118,2.43123,2.34237,4.45159,5.06816,4.90861a7.8469,7.8469,0,0,0,6.15448-2.05852c1.49065-1.19517,2.0229-3.189,3.37871-4.35055,5.01873-4.30149,9.38073-1.65837,8.5928,5.35582-1.34164,11.95279-19.97154,12.73364-19.91121,25.33518.03562,8.07362,8.41165,9.53592,14.77184,7.8154,2.7258-.73651,5.14282-2.22007,7.81192-3.11086,3.43559-1.15265,7.42488-.74087,10.65822-1.97257,2.41-.91823,3.44631-1.24932,5.08961-3.41688,1.85972-2.44722,3.684-14.14815,9.22082.81447.92641,2.50664-1.519,6.8641-1.50479,9.72309.01414,3.04689.53931,6.03,2.90312,8.15958,6.11178,5.50574,12.32641-.89442,17.32025-4.23425a8.90644,8.90644,0,0,1,6.62277-2.51009,11.16645,11.16645,0,0,1,1.8917-1.42686,16.03578,16.03578,0,0,0,2.06561,6.5688c1.64693,3.22171,4.323,6.03546,5.52628,9.47541,1.60062,4.591.78794,9.40908-.00363,14.08964-3.07,18.1647-5.71418,36.37937-7.62369,54.70926-.72052,6.95205-5.97694,25.47092,2.7009,29.6323,6.74707,3.23079,13.37348-4.50738,16.28027-9.42489,6.66893-11.26244,6.14725-23.23577,2.80739-35.45388-2.43831-8.929-4.88372-17.13744-4.08506-26.60049.71688-8.53937,3.354-16.84378,6.27151-24.8498.67418-1.84827,1.32383-4.69128,2.40978-6.26351.37634-.929.7525-1.86517,1.12521-2.79685q3.72126.39006,7.45323.78267c3.73034,3.1979,1.37,10.43017.25568,14.35131-1.79957,6.34056-3.01346,12.44253-2.06924,19.03532.827,5.75143,3.95731,13.90846,11.2012,10.251,8.8979-4.49066,4.646-17.64135,2.89261-24.65028-1.62894-6.511-4.73452-15.71058-1.75323-22.164.50754-1.09032,10.1863-8.006,11.75145-7.25443,1.189.56951,2.07269,4.12049,2.378,5.3113.95112,3.73561.11361,7.80559.31238,11.65023.73469,14.34513,19.084,44.43537,36.23036,29.3281,8.76652-7.71873,5.01492-20.83471,2.99547-30.54981-1.23151-5.93787-5.9237-17.14634-3.9077-22.9323,1.66455-4.80212,6.86773-7.86864,11.43562-9.06472a32.83257,32.83257,0,0,0,6.63695-2.095c2.47738-1.2724,3.3967-3.51446,5.39493-4.897,6.56241-4.54554,10.062,2.95821,15.49229,5.72762,11.92535,6.0807,26.67227,2.16755,37.71738,10.54737,8.80218,6.67965,13.661,18.46908,25.8171,19.5952,6.70437.62112,15.37149-2.43741,15.15142-10.53229C429.9358,346.54275,410.70968,344.659,401.9537,340.39735Z"/><path class="cls-1" d="M356.12981,60.44781a8.11674,8.11674,0,0,0,4.81288-5.65657c.79844-2.817,1.441-6.86846.12771-9.63151-1.732-3.63894-9.13919-3.64875-9.20319.889a19.13347,19.13347,0,0,0-3.09123,5.157C346.87355,56.24918,350.004,62.77528,356.12981,60.44781Z"/><path class="cls-1" d="M449.81485,188.98087c-.35126-6.31585-6.275-6.67874-11.56678-5.54917a16.37584,16.37584,0,0,0-15.8509,4.86591c-6.211,7.13123,1.64329,12.16232,8.75253,12.07618C436.86386,200.302,450.23734,196.62855,449.81485,188.98087Z"/><path class="cls-1" d="M463.29845,297.0305a4.54181,4.54181,0,0,0-2.52718,1.322,35.77421,35.77421,0,0,1-10.1932-1.67164c-1.9911-.63529-3.98584-1.81992-6.06217-2.14556a8.74816,8.74816,0,0,0-6.25007,1.05052c-8.68493,6.0807,9.32022,8.53955,12.02821,9.07181,5.34165,1.05052,18.4311,6.4356,23.13728.78085C478.87237,298.90094,467.25921,296.82642,463.29845,297.0305Z"/><path class="cls-1" d="M178.94257,466.42723c-3.85446,2.71962-5.32381,10.47632-1.32038,13.76745,4.181,3.43741,10.314-.84481,11.48886-5.1632a10.93659,10.93659,0,0,0-.02835-5.5599c.6282-.30075,1.0647-.72143.9086-1.14556C188.37985,463.91968,182.22552,464.1034,178.94257,466.42723Z"/><path class="cls-1" d="M83.42961,254.2286a52.10921,52.10921,0,0,0-6.19679-.12938c-2.1545.08959-5.4836-.25732-6.69749,1.9653-3.14808,5.76578,6.82521,7.3522,10.062,7.9973,3.83683.76668,11.88992,2.51009,12.79143-3.41524C94.25829,254.95185,87.70657,253.75922,83.42961,254.2286Z"/><path class="cls-2" d="M279.18155,195.478A34.73612,34.73612,0,0,0,250.002,211.18261,34.737,34.737,0,0,0,220.82351,195.478a35.09266,35.09266,0,0,0-35.04825,35.05939c0,17.55249,11.05769,35.9043,31.97865,53.07892a183.97906,183.97906,0,0,0,31.80845,20.80445,1.00255,1.00255,0,0,0,.87833,0,183.96568,183.96568,0,0,0,31.80643-20.80445c20.921-17.1736,31.97763-35.52541,31.97763-53.07892A35.089,35.089,0,0,0,279.18155,195.478Z"/></svg>