<svg id="Layer_1" data-name="Layer 1" xmlns="http://www.w3.org/2000/svg" viewBox="0 0 500 500"><defs><style>.cls-1{fill:#5ec7e0;}.cls-2{fill:#fff;}</style></defs><title>splash</title><path class="cls-1" d="M447.4424,160.51811c-5.77552,8.58392-11.37617,17.48467-15.711,26.90077-2.32968,5.05226-7.12426,28.77543-15.62355,26.37565-1.75518-.49386-5.58116-5.71339-7.62807-6.92891-7.53368-4.459-12.88644.1848-9.89941-14.16887.79734-3.8447,4.29694-7.28855,3.19134-11.57473-1.39235-5.379-5.36152-5.976-10.07345-4.85193.07189-.40066.09339-.78559.176-1.18824.26445-1.29318-1.25435-.22761-1.62.07786-.4152.3461-1.31745,1.23285-2.42885,2.30439-5.40732,1.98159-11.10716,5.029-14.77085,5.25637-4.44746-3.02188,8.40589-8.895,10.24351-9.67857,6.17242-2.64093,12.69686-4.47278,18.48134-7.97716,4.95411-3.00455,11.86348-8.08788,13.44541-14.0697,2.1704-8.20855-4.62153-13.0565-12.58972-10.64119-3.99923,1.20955-7.22838,4.82465-10.122,7.49664a37.59721,37.59721,0,0,1-19.20579,9.89264c-3.548.74477-3.39924-.90626-7.415,1.06179-1.98936.97238-3.35642,2.88786-4.9959,4.30749-5.25358,4.55442-26.97764,18.82823-11.61257,1.297,2.27711-2.6019,6.76641-4.44151,9.62122-6.37073,6.085-4.10915,12.42743-8.59746,15.89577-15.293,3.57926-6.90561,3.75529-17.19672-6.4942-16.53559-7.42874.47832-12.82032,7.91881-16.51129,13.55453-3.87378,5.92148-5.54333,8.82866-10.98945,14.21546q-3.29622,3.26422-6.59337,6.52447-6.55178-15.20069,3.74451-26.32328c6.61766-9.8088,14.68224-17.53126,22.92285-25.85631,6.99024-7.06512,15.39892-15.76951,16.312-26.28246,1.50125-17.34268-22.01661-30.39141-27.48506-10.373-1.38857,5.07755.3003,11.11772-.65157,16.33924-2.53579,13.93747-13.11206,24.75768-23.97388,33.10045-1.57615,1.21154-6.822,5.83785-8.22807,5.89818-11.706.51915,2.253-18.34214,3.44126-21.54324,1.37284-3.69675,2.48421-8.52737-.775-11.81768-3.85924-3.88553-8.1978-1.622-11.24516,1.8882-2.32192,2.67777-2.90439,5.43739-3.87278,8.67134-.9218,3.06489-1.70261,10.39625-3.39147,17.30564-3.235,4.7199-8.48851,10.98549-13.7694,14.42376a17.55288,17.55288,0,0,1-4.43972-2.68753c-5.83981-4.66534-6.365-13.28809-6.90939-20.02444-1.84359-22.83622,10.63342-40.949,11.72827-62.93169.44547-8.96686-3.16286-29.95391-16.7124-25.68346-10.96421,3.45778-15.49234,14.5054-16.93926,26.93-.08742.29353-.173.57749-.24212.83039-2.635,9.83807-.47257,22.79938-1.303,32.94472-.83617,10.14932-3.60335,40.03513-17.48942,41.74252-.70874.08762-2.59316-2.5338-4.05362-2.62918-4.88021-.317-11.34911-.772-15.87147-2.67976-14.37993-6.04993-9.528-22.3346-8.36507-34.38188.83916-8.64605-.75353-29.65242-15.13945-23.82035-7.9439,3.22021-9.51129,12.97684-8.16653,20.2849,1.2213,6.6547,9.22354,17.69077,1.17749,22.1285-3.69694,2.03616-6.99223-1.18824-10.98649,2.95a11.23365,11.23365,0,0,0-3.01132,5.8944c-.39867,2.77515.52512,4.50782,1.51,6.92114q1.89022,3.08918,3.83674,6.1471-3.18805,19.48558-17.97952,19.76576c-26.26,4.87324-40.44336-20.93249-49.55618-40.67117-.83816-1.81233-3.46356.92379-4.1898,2.68C97.78712,102.35271,90.25941,95.76034,83.69014,88.39c-9.34223-10.48168-18.382-38.9596-37.15106-34.17-32.36624,8.26311,8.22588,53.09561,21.62668,59.10471,8.76075,3.93411,15.23085,7.08642,21.74556,14.45881,7.556,8.54489,18.45386,19.4565,23.77953,29.60184.94111,1.787,7.48011,6.46014,1.51781,8.62076-2.84425,1.02873-7.77583-6.72081-8.70539-7.93434-2.1869-2.8548-3.34686-6.50495-6.4699-8.60324-4.13245-2.78092-7.30428-3.38948-11.28121-.61055-8.37085,5.83785-5.00367,16.28846,2.03815,21.64818,7.56475,5.75421,14.20971,9.53858,20.64454,16.81756,2.34741,2.65826,5.23327,4.8577,7.55718,7.40922.76806.84772,4.38418,1.81233,4.53889,2.12358q2.806.88655-3.095,4.52714-1.91379,7.16409-7.32857,3.02008c-10.65094-2.08475-24.4534-30.82115-35.83557-17.1306-2.78391,3.34487-2.36373,5.67834-.78658,9.44518,1.81133,4.33278,7.94014,8.70061,11.66994,10.98171,1.63946,1.00145,5.59488,1.80855,6.78691,3.267,2.3958,2.92091,3.06389,6.62164-2.98982,4.77227-1.57815-.47832-3.80687,3.28454-3.69017,4.51937,1.34677,14.18261,18.61456,10.20568,29.16056,13.73734a9.75762,9.75762,0,0,0-2.93167,3.096c-3.444,5.72115-.88476,6.042,3.3614,9.02321,5.63851,3.96717,9.37927,2.92091,3.35662,9.51328-5.42763,5.945-2.852,3.36837-11.13444,1.34974a41.19551,41.19551,0,0,0-16.937-.57371c-7.31107,1.198-17.25329,3.17959-23.07959,7.9441-11.24994,9.19248.43471,17.61868,11.26747,13.02922,7.07587-2.99679,13.89665-9.033,22.18207-7.732,9.31594,1.46623,9.04273,4.30351,4.99869,10.684-4.29953,6.79091-3.05013,5.96828-9.77774,5.56583-6.8813-.4142-13.93747-1.38279-19.49633,3.5918-3.18736,2.84883-6.59536,8.30374-3.135,12.26115,4.41642,5.05425,16.72038-1.30294,20.89266-3.20289,1.76494-.80112,9.53977-5.904,11.36683-5.15919q.39668,2.80333.79236,5.61422,3.30634,6.32115-3.13,8.94555c-3.84172,5.31094-10.98649,8.71216-15.67692,13.34046-2.28109,2.248-6.40976,5.62995-6.1939,9.3247.44825,7.63305,8.86193,5.82829,13.75188,4.34832,6.43983-1.95232,11.74382-12.91073,20.08161-6.672,7.74873,5.793,2.79843,8.78983-1.55268,15.78883-6.01886,9.6708-9.62341,10.54-18.8362,15.55345-6.16761,3.36041-28.82223,20.72639-17.86183,30.45952,4.5582,4.045,15.62634-6.76163,17.84532-8.79779,6.80445-6.24428,12.4527-14.6667,21.65-17.675,8.59268-2.814,10.65889,2.52025,17.864,2.94621,2.072.11849,5.024-1.27387,7.76209-1.96626,2.9705,3.85824,1.99434,8.33879-.81964,12.96529-4.08586,4.59923-8.57217,9.26437-9.806,10.79492-1.59089,1.96208-3.15331,3.89907-4.68187,5.84183a51.285,51.285,0,0,0-6.31338,7.51616,34.075,34.075,0,0,0-3.40621,6.97371A51.9872,51.9872,0,0,0,115.6374,419.182c-.07089.27222-.28875.9431.05257,1.18625,6.87634,4.87344,13.65251,1.68209,18.59206-4.187,3.38171-4.02153,5.17672-8.99414,7.08941-13.79748,2.17119-5.4567,3.38749-12.80957,6.87534-17.41059a37.10622,37.10622,0,0,1,8.13069-7.911c1.479,0,2.953-.00577,4.427-.00577q.28018,3.203.564,6.398c-.17882,4.95687-2.16619,10.91739-3.64318,15.78883-3.07066,10.11627-7.89451,18.274-12.063,27.77-1.91747,4.36006-5.15342,12.95554,1.30692,15.38638,5.44217,2.04771,10.34866-4.6751,12.37406-8.64227a35.39653,35.39653,0,0,0,2.812-9.63c.54145-2.88407.68443-5.801,1.11914-8.69663q.67656-3.9148,1.3593-7.83119,16.96545-11.397,13.64295.77006a.75.75,0,0,0,.58327.86923c9.57761,1.81054,6.42828,8.52159,4.89574,15.87645-.35486,1.71714.87221,1.5206,1.97.82064,4.94236-3.16207,7.04461-6.31059,12.3886-4.17726-.19834-.07587-.2061,0-.07388.19256l-3.4082,8.52737a9.1642,9.1642,0,0,0,3.3614.63783l5.64927-3.65393a11.28964,11.28964,0,0,1,.82561.8051c1.3418.84792,3.30007-1.91369,3.71327-2.83349q3.79087-8.34546,7.57749-16.69689c5.99935,5.37506-2.40057,18.91963,6.72579,23.019,1.45747.65356,3.30584-1.66258,3.75211-2.81776,3.6852-9.63974,4.11692-18.48612.78678-27.98387,13.84609-4.012,6.03419,23.47027,5.91372,30.57024-.07684,4.42219.82263,10.78138,6.398,11.57473,7.47812,1.058,9.85261-9.13792,10.21046-14.16309.35685-5.0425-3.84072-24.57687,8.55086-21.2981,3.75509.99568,6.93468,9.69231,7.94689,12.8251,3.587,11.1217-.38792,22.8189-1.3808,33.97366-1.194,13.42609,3.11925,37.75006,20.57485,39.02572,7.93036.58347,13.9072-6.11206,14.62289-13.73714.76428-8.12491-4.06634-13.675-8.78027-19.62756-8.0353-10.1553-11.36564-17.25725-13.20921-29.95989-.78083-5.39636-2.66505-11.71273-2.44242-17.14235q-2.7639-7.3448,4.54466-12.23009,2.904-11.79338,8.41665-4.7896c4.885.737,6.03521,3.81742,11.32681,1.192a14.86138,14.86138,0,0,0,6.62343-7.42276c1.48-3.93033-1.41366-8.57416-2.97627-12.66,3.67248,3.588,7.873,5.44914,13.72659,6.34365,1.62275.25091,3.234-2.30638,3.63842-3.553,1.89017-5.84382-.81389-8.50805-5.944-11.64085q-4.06027-1.68887-8.12571-3.37594,2.44309-4.68187,4.886-9.36752c3.80388-.77006,8.298,4.95687,10.64716,7.36641,4.89375,5.01721,8.72471,11.52993,12.86493,17.16963,4.61874,6.29287,10.53724,18.3286,19.793,18.22943a11.87743,11.87743,0,0,0,11.32183-8.65c1.26311-4.97061-1.60921-9.26437-4.74977-12.897-6.73157-7.77683-35.88814-25.43653-30.73271-35.97277q5.10748-2.46788,10.20744-4.93557,8.56172-8.87058,17.51294-1.83782c12.35056,10.01331,2.531,3.88553,4.54947,6.28331,2.51445,2.98125,5.00086,6.75586,9.54455,6.53024,3.31179-.16528,6.93466-3.34288,7.8234-6.54776,1.39156-5.01144-2.71481-7.49485-4.462-11.60779q-1.444-2.45892-2.89087-4.918,3.973-.34142,7.95187-.68642c4.12369,2.00688,3.94487,7.6679,6.38149,10.89787,3.18537,4.22186,4.9511,6.71105,10.1999,7.88774,5.25637,1.17848,10.821-.43571,16.22334.90607a34.27826,34.27826,0,0,1,17.00734,10.61988c5.4567,6.01886,11.02731,17.12881,21.03943,12.67157,9.61066-4.27623,7.69319-16.05527,3.0862-23.21757-7.96342-12.37784-21.35068-18.58907-34.06685-24.69535-6.577-3.15828-14.52589-6.75586-17.76365-13.90063-2.58557-5.70761-2.37947-15.53015,8.13649-15.68568,3.92533-.05655,9.349,5.056,12.9117,6.56131,10.55078,4.44749,26.293-5.43739,15.96188-16.72238-4.10418-4.48253-9.49-4.08964-15.05758-4.26269-1.01223-.03306-6.53226.9218-7.85551.05436-14.16907-9.28567.38794-11.03408,2.37628-15.04008,2.34641-4.71393,6.01889-6.964,5.30616-11.77705,11.98794-4.37341,27.26718-2.7867,34.92731-14.77941,5.14187-8.051,2.52225-25.67948-7.45679-29.3123-3.89708-1.41764-6.05672.25669-9.456,1.45667-3.56571,1.26789-4.89673,5.93522-3.76306-1.00145.84115-5.169,8.334-12.94,11.19458-17.38171,5.60366-8.69464,14.63368-18.37122,17.85506-28.18022.95386-2.90538,2.91215-6.43107.59123-9.42985C461.26537,139.08,450.74944,155.60206,447.4424,160.51811Z"/><path class="cls-1" d="M401.73271,90.54479c.12645.43949.51158.60278,1.26033.2079,4.37341.33853,8.296-4.24895,9.58338-8.45926a7.48913,7.48913,0,0,0,.81387-5.35952c-1.52956-7.13123-9.65746-.9431-12.21851,1.72889-1.83486,1.90772-3.8981,4.59524-3.42754,7.44029A5.85827,5.85827,0,0,0,401.73271,90.54479Z"/><path class="cls-1" d="M491.10936,343.03406a16.68363,16.68363,0,0,0-9.6029-4.0293c-1.58093-.146-3.93889,3.08042-3.6852,4.52136a36.2826,36.2826,0,0,0,1.73268,6.252,4.6128,4.6128,0,0,0-.95485,2.01664,8.43915,8.43915,0,0,0,2.25879,7.54742c.55041.56973,1.3585.39668,2.12358-.11092a6.50885,6.50885,0,0,0,6.04017.38891,8.99966,8.99966,0,0,0,3.80966-3.35264,6.96651,6.96651,0,0,0,3.0862-5.15342C495.88163,348.17972,493.17459,344.8679,491.10936,343.03406Z"/><path class="cls-1" d="M307.69392,396.91526c-1.25137-1.0811-4.043,2.987-4.005,4.0062a62.7463,62.7463,0,0,0,5.32248,23.443c.284.6456,1.202.24514,2.11-.51915q1.7824,4.83331,3.56452,9.6708c.66611,1.80476,4.20832-2.88786,4.15874-4.13823C318.33908,417.61636,317.1616,405.06348,307.69392,396.91526Z"/><path class="cls-1" d="M46.55661,285.034A28.49707,28.49707,0,0,0,21.30109,297.0872c-1.16116,1.62574-1.21751,4.463,1.472,3.96319a45.46594,45.46594,0,0,0,19.9836-9.04074,2.714,2.714,0,0,0,2.02043-.72923c.68743-.53866,1.36905-1.07553,2.05468-1.6122C48.27176,288.53455,49.176,285.22273,46.55661,285.034Z"/><path class="cls-1" d="M370.55673,47.33206c-1.09388,1.44473-1.66659,3.22021-.43474,3.234a23.45451,23.45451,0,0,0,7.16807-1.056c4.08785.17106,8.19782-1.87068,11.63029-7.20113.594-.916.77006-1.49929.701-1.83184a20.26086,20.26086,0,0,0,3.40322-10.32635,17.38879,17.38879,0,0,0-2.987-10.83176c-.45124-2.91713-1.55764-5.58514-3.75808-7.12147-.60477-3.06668-2.90436-5.2721-8.69185-5.6415-8.48834-.54444-15.59627,3.00057-18.78641,11.141C354.85629,27.74134,361.63167,41.93152,370.55673,47.33206Z"/><path class="cls-2" d="M279.18155,195.478A34.73612,34.73612,0,0,0,250.002,211.18261,34.737,34.737,0,0,0,220.82351,195.478a35.09266,35.09266,0,0,0-35.04825,35.05939c0,17.55249,11.05769,35.9043,31.97865,53.07892a183.97906,183.97906,0,0,0,31.80845,20.80445,1.00255,1.00255,0,0,0,.87833,0,183.96568,183.96568,0,0,0,31.80643-20.80445c20.921-17.1736,31.97763-35.52541,31.97763-53.07892A35.089,35.089,0,0,0,279.18155,195.478Z"/></svg>