<?xml version="1.0" encoding="utf-8"?>
<!-- Generator: Adobe Illustrator 21.0.0, SVG Export Plug-In . SVG Version: 6.00 Build 0)  -->
<svg version="1.1" id="Capa_1" xmlns="http://www.w3.org/2000/svg" xmlns:xlink="http://www.w3.org/1999/xlink" x="0px" y="0px"
	 viewBox="0 0 60 56" style="enable-background:new 0 0 60 56;" xml:space="preserve">
<path d="M54,0H6C2.7,0,0,2.7,0,6v33c0,3.3,2.7,6,6,6h8v10c0,0.4,0.3,0.8,0.6,0.9c0.1,0,0.2,0.1,0.4,0.1c0.3,0,0.5-0.1,0.7-0.3
	L25.4,45H54c3.3,0,6-2.7,6-6V6C60,2.7,57.3,0,54,0z M58,39c0,2.2-1.8,4-4,4H27.2l3.6-4.2c0.4-0.4,0.3-1-0.1-1.4
	c-0.4-0.4-1.1-0.3-1.4,0.1l-5,5.8L16,52.4V44c0-0.6-0.4-1-1-1H6c-2.2,0-4-1.8-4-4V6c0-2.2,1.8-4,4-4h48c2.2,0,4,1.8,4,4V39z"/>
</svg>
