<svg id="Layer_1" data-name="Layer 1" xmlns="http://www.w3.org/2000/svg" viewBox="0 0 500 111.66667"><title>likeometer2-02</title><path d="M72.67788,22.72523a21.09326,21.09326,0,0,0-17.71905,9.53653A21.09376,21.09376,0,0,0,37.2404,22.72523,21.30976,21.30976,0,0,0,15.9576,44.01479c0,10.65862,6.7147,21.80262,19.4188,32.23178A111.72,111.72,0,0,0,54.69184,88.87992a.60879.60879,0,0,0,.53336,0A111.71174,111.71174,0,0,0,74.53942,76.24657C87.24352,65.818,93.9576,54.674,93.9576,44.01479A21.30753,21.30753,0,0,0,72.67788,22.72523Z" style="fill:#555"/><path d="M118.53263,21.70321V88.76766H109.517V21.70321Z" style="fill:#555"/><path d="M134.44718,28.23494a5.79565,5.79565,0,1,1-5.79541,5.79541A5.65939,5.65939,0,0,1,134.44718,28.23494ZM138.955,50.03768v38.73h-9.01562v-38.73Z" style="fill:#555"/><path d="M159.37785,21.70321V63.00887l12.60352-12.97119h11.959L167.28947,66.1368l17.84717,22.63086H173.72892L161.03361,72.20858l-1.65576,1.65576V88.76766h-9.01562V21.70321Z" style="fill:#555"/><path d="M224.69621,79.93612a20.30556,20.30556,0,0,1-6.53174,7.0835,21.30526,21.30526,0,0,1-11.40723,2.94385c-5.15186,0-9.3833-1.2876-13.06348-4.96777a20.7876,20.7876,0,0,1-5.70361-14.811,22.70407,22.70407,0,0,1,6.16357-15.915,17.64371,17.64371,0,0,1,12.97168-5.24414,16.67525,16.67525,0,0,1,12.41943,5.06006c4.96777,5.15186,5.42773,12.32715,5.42773,16.375v1.104H197.18986a12.8043,12.8043,0,0,0,3.31152,7.81982,9.21188,9.21188,0,0,0,6.8999,2.48389,9.49252,9.49252,0,0,0,6.16357-1.93213,13.98733,13.98733,0,0,0,3.58789-4.23193Zm-8.92334-15.731A9.36886,9.36886,0,0,0,213.0131,58.961a9.40153,9.40153,0,0,0-12.41943.27637,10.14687,10.14687,0,0,0-2.75977,4.96777Z" style="fill:#555"/><path d="M273.73185,69.44881c0,11.86719-9.01562,20.51465-20.69922,20.51465-11.68262,0-20.69873-8.64746-20.69873-20.51465,0-11.95947,9.01611-20.42334,20.69873-20.42334C264.71623,49.02547,273.73185,57.48934,273.73185,69.44881Zm-9.19922.0918c0-8.83154-5.7959-12.41943-11.5-12.41943s-11.499,3.58789-11.499,12.41943c0,7.45166,4.416,12.32764,11.499,12.32764C260.11662,81.86825,264.53263,76.99227,264.53263,69.54061Z" style="fill:#555"/><path d="M283.11857,50.03768h9.01465v3.58789a11.93671,11.93671,0,0,1,9.56836-4.6001,11.37426,11.37426,0,0,1,10.02734,5.7041,13.71712,13.71712,0,0,1,11.499-5.7041,12.4026,12.4026,0,0,1,11.04,6.07178c.73535,1.28809,2.02344,4.14014,2.02344,9.75146V88.76766H327.2758V67.42489c0-4.32373-.46-6.07178-.82812-6.8999a5.10343,5.10343,0,0,0-5.15137-3.40381,6.66109,6.66109,0,0,0-5.33594,2.85205c-1.56348,2.208-1.748,5.51953-1.748,8.83154V88.76766H305.1967V67.42489c0-4.32373-.46-6.07178-.82715-6.8999a5.10575,5.10575,0,0,0-5.15234-3.40381,6.66109,6.66109,0,0,0-5.33594,2.85205c-1.56348,2.208-1.748,5.51953-1.748,8.83154V88.76766h-9.01465Z" style="fill:#555"/><path d="M382.38322,79.93612a20.3044,20.3044,0,0,1-6.53125,7.0835,21.30642,21.30642,0,0,1-11.40723,2.94385c-5.15234,0-9.38379-1.2876-13.06348-4.96777a20.788,20.788,0,0,1-5.7041-14.811,22.70234,22.70234,0,0,1,6.16406-15.915,17.64142,17.64142,0,0,1,12.9707-5.24414,16.67474,16.67474,0,0,1,12.41992,5.06006c4.96777,5.15186,5.42773,12.32715,5.42773,16.375v1.104h-27.7832a12.80256,12.80256,0,0,0,3.3125,7.81982,9.20954,9.20954,0,0,0,6.89941,2.48389,9.49476,9.49476,0,0,0,6.16406-1.93213,13.99427,13.99427,0,0,0,3.58789-4.23193Zm-8.92383-15.731a9.36291,9.36291,0,0,0-2.75977-5.24414,9.40088,9.40088,0,0,0-12.41895.27637,10.14687,10.14687,0,0,0-2.75977,4.96777Z" style="fill:#555"/><path d="M401.33634,58.31746v30.4502h-9.01562V58.31746h-3.77148V50.03768h3.77148V35.8702h9.01563V50.03768h6.89941v8.27979Z" style="fill:#555"/><path d="M448.98966,79.93612a20.30439,20.30439,0,0,1-6.53125,7.0835,21.30642,21.30642,0,0,1-11.40723,2.94385c-5.15234,0-9.38379-1.2876-13.06348-4.96777a20.788,20.788,0,0,1-5.7041-14.811,22.70234,22.70234,0,0,1,6.16406-15.915,17.64142,17.64142,0,0,1,12.9707-5.24414,16.67474,16.67474,0,0,1,12.41992,5.06006c4.96777,5.15186,5.42773,12.32715,5.42773,16.375v1.104h-27.7832a12.80256,12.80256,0,0,0,3.3125,7.81982,9.20954,9.20954,0,0,0,6.89941,2.48389,9.49476,9.49476,0,0,0,6.16406-1.93213,13.99427,13.99427,0,0,0,3.58789-4.23193Zm-8.92383-15.731a9.36291,9.36291,0,0,0-2.75977-5.24414,9.40088,9.40088,0,0,0-12.41895.27637,10.14687,10.14687,0,0,0-2.75977,4.96777Z" style="fill:#555"/><path d="M458.65177,50.03768h9.01465v3.49561a15.60664,15.60664,0,0,1,3.77246-3.21973,10.41554,10.41554,0,0,1,5.51953-1.28809,13.37459,13.37459,0,0,1,7.084,1.84033l-3.67969,8.1875a8.16291,8.16291,0,0,0-4.60059-1.37988,7.0242,7.0242,0,0,0-5.61133,2.11572c-2.48437,2.668-2.48437,6.34766-2.48437,8.92334V88.76766h-9.01465Z" style="fill:#555"/></svg>