<svg id="Layer_1" data-name="Layer 1" xmlns="http://www.w3.org/2000/svg" viewBox="0 0 433.39063 68.26025"><title>likeometer2</title><path d="M33.08683,28.61211a12.3044,12.3044,0,0,0-10.33611,5.563,12.30469,12.30469,0,0,0-10.33575-5.563A12.43069,12.43069,0,0,0,0,41.031c0,6.21753,3.91691,12.7182,11.32763,18.80187A65.17,65.17,0,0,0,22.595,67.20235a.35513.35513,0,0,0,.31113,0,65.16518,65.16518,0,0,0,11.26663-7.36945C41.58345,53.74958,45.5,47.24891,45.5,41.031A12.42939,12.42939,0,0,0,33.08683,28.61211Z" style="fill:#204984"/><path d="M67.88086,0V67.06445H58.86523V0Z" style="fill:#383838"/><path d="M83.79541,6.53174a5.65939,5.65939,0,0,1,5.7959,5.79541,5.79565,5.79565,0,1,1-11.59131,0A5.659,5.659,0,0,1,83.79541,6.53174Zm4.50781,21.80273v38.73H79.2876v-38.73Z" style="fill:#383838"/><path d="M108.72607,0V41.30566l12.60352-12.97119h11.959L116.6377,44.43359l17.84717,22.63086H123.07715L110.38184,50.50537l-1.65576,1.65576V67.06445H99.71045V0Z" style="fill:#383838"/><path d="M174.04443,58.23291a20.30556,20.30556,0,0,1-6.53174,7.0835,21.30526,21.30526,0,0,1-11.40723,2.94385c-5.15186,0-9.3833-1.2876-13.06348-4.96777a20.7876,20.7876,0,0,1-5.70361-14.811,22.70407,22.70407,0,0,1,6.16357-15.915,17.64371,17.64371,0,0,1,12.97168-5.24414,16.67525,16.67525,0,0,1,12.41943,5.06006c4.96777,5.15186,5.42773,12.32715,5.42773,16.375v1.104H146.53809a12.8043,12.8043,0,0,0,3.31152,7.81982,9.21188,9.21188,0,0,0,6.8999,2.48389,9.49252,9.49252,0,0,0,6.16357-1.93213A13.98733,13.98733,0,0,0,166.501,54.001Zm-8.92334-15.731a9.36887,9.36887,0,0,0-2.75977-5.24414,9.40153,9.40153,0,0,0-12.41943.27637,10.14687,10.14687,0,0,0-2.75977,4.96777Z" style="fill:#383838"/><path d="M223.08008,47.74561c0,11.86719-9.01562,20.51465-20.69922,20.51465-11.68262,0-20.69873-8.64746-20.69873-20.51465,0-11.95947,9.01611-20.42334,20.69873-20.42334C214.06445,27.32227,223.08008,35.78613,223.08008,47.74561Zm-9.19922.0918c0-8.83154-5.7959-12.41943-11.5-12.41943s-11.499,3.58789-11.499,12.41943c0,7.45166,4.416,12.32764,11.499,12.32764C209.46484,60.165,213.88086,55.28906,213.88086,47.8374Z" style="fill:#383838"/><path d="M232.4668,28.33447h9.01465v3.58789a11.93671,11.93671,0,0,1,9.56836-4.6001,11.37426,11.37426,0,0,1,10.02734,5.7041,13.71712,13.71712,0,0,1,11.499-5.7041,12.4026,12.4026,0,0,1,11.04,6.07178c.73535,1.28809,2.02344,4.14014,2.02344,9.75146V67.06445H276.624V45.72168c0-4.32373-.46-6.07178-.82812-6.8999a5.10343,5.10343,0,0,0-5.15137-3.40381A6.66109,6.66109,0,0,0,265.30859,38.27c-1.56348,2.208-1.748,5.51953-1.748,8.83154V67.06445h-9.01563V45.72168c0-4.32373-.46-6.07178-.82715-6.8999a5.10575,5.10575,0,0,0-5.15234-3.40381A6.66109,6.66109,0,0,0,243.22949,38.27c-1.56348,2.208-1.748,5.51953-1.748,8.83154V67.06445H232.4668Z" style="fill:#383838"/><path d="M331.73145,58.23291a20.30439,20.30439,0,0,1-6.53125,7.0835A21.30642,21.30642,0,0,1,313.793,68.26025c-5.15234,0-9.38379-1.2876-13.06348-4.96777a20.788,20.788,0,0,1-5.7041-14.811,22.70234,22.70234,0,0,1,6.16406-15.915,17.64142,17.64142,0,0,1,12.9707-5.24414,16.67474,16.67474,0,0,1,12.41992,5.06006c4.96777,5.15186,5.42773,12.32715,5.42773,16.375v1.104h-27.7832a12.80256,12.80256,0,0,0,3.3125,7.81982,9.20954,9.20954,0,0,0,6.89941,2.48389,9.49476,9.49476,0,0,0,6.16406-1.93213,13.99427,13.99427,0,0,0,3.58789-4.23193Zm-8.92383-15.731a9.36291,9.36291,0,0,0-2.75977-5.24414,9.40088,9.40088,0,0,0-12.41895.27637,10.14687,10.14687,0,0,0-2.75977,4.96777Z" style="fill:#383838"/><path d="M350.68457,36.61426v30.4502h-9.01562V36.61426h-3.77148V28.33447h3.77148V14.167h9.01563V28.33447H357.584v8.27979Z" style="fill:#383838"/><path d="M398.33789,58.23291a20.30439,20.30439,0,0,1-6.53125,7.0835,21.30642,21.30642,0,0,1-11.40723,2.94385c-5.15234,0-9.38379-1.2876-13.06348-4.96777a20.788,20.788,0,0,1-5.7041-14.811,22.70234,22.70234,0,0,1,6.16406-15.915,17.64142,17.64142,0,0,1,12.9707-5.24414,16.67474,16.67474,0,0,1,12.41992,5.06006c4.96777,5.15186,5.42773,12.32715,5.42773,16.375v1.104h-27.7832a12.80256,12.80256,0,0,0,3.3125,7.81982A9.20954,9.20954,0,0,0,381.043,60.165a9.49476,9.49476,0,0,0,6.16406-1.93213,13.99427,13.99427,0,0,0,3.58789-4.23193Zm-8.92383-15.731a9.36291,9.36291,0,0,0-2.75977-5.24414,9.40088,9.40088,0,0,0-12.41895.27637,10.14687,10.14687,0,0,0-2.75977,4.96777Z" style="fill:#383838"/><path d="M408,28.33447h9.01465v3.49561a15.60665,15.60665,0,0,1,3.77246-3.21973,10.41554,10.41554,0,0,1,5.51953-1.28809,13.37459,13.37459,0,0,1,7.084,1.84033l-3.67969,8.1875a8.16291,8.16291,0,0,0-4.60059-1.37988,7.0242,7.0242,0,0,0-5.61133,2.11572c-2.48437,2.668-2.48437,6.34766-2.48437,8.92334V67.06445H408Z" style="fill:#383838"/></svg>