<svg data-name="Layer 1" xmlns="http://www.w3.org/2000/svg" viewBox="0 0 384.168 49.807"><path d="M56.964.98h5.856v48.435h-5.856zM72.945 4.112A3.99 3.99 0 0176.911 0a3.919 3.919 0 013.965 3.982 3.968 3.968 0 11-7.93.13zm1.037 10.706h5.857v34.597h-5.857zM103.568 33.292l-6.71 6.658v9.465H91V.979h5.856v31.073l17.631-17.234h7.076l-13.603 14.296 14.946 20.301h-7.199zM156.335 34.205h-26.232c.732 6.071 5.307 10.118 11.712 10.118a11.705 11.705 0 009.334-4.177l3.234 4.047c-2.928 3.656-7.382 5.614-12.75 5.614-10.432 0-17.387-7.376-17.387-17.69 0-10.249 6.894-17.625 16.228-17.625s15.983 7.18 15.983 17.82c0 .523-.061 1.306-.122 1.893zm-26.232-4.504h20.742c-.61-5.81-4.697-9.922-10.371-9.922-5.613 0-9.761 4.047-10.371 9.922zM161.578 32.116c0-10.313 7.138-17.624 16.838-17.624 9.7 0 16.776 7.31 16.776 17.624 0 10.315-7.077 17.69-16.776 17.69-9.7 0-16.838-7.375-16.838-17.69zm27.696 0c0-7.376-4.635-12.141-10.858-12.141s-10.92 4.765-10.92 12.141c0 7.377 4.697 12.207 10.92 12.207s10.858-4.83 10.858-12.207zM256.986 29.506v19.909h-5.856V30.224c0-6.79-3.05-10.119-8.358-10.119-5.856 0-9.699 3.983-9.699 11.49v17.82h-5.856V30.224c0-6.79-3.051-10.119-8.359-10.119-5.856 0-9.699 3.983-9.699 11.49v17.82h-5.856V14.818h5.612v5.157c2.318-3.525 6.283-5.483 11.164-5.483 4.942 0 9.09 2.09 11.225 6.397 2.44-3.916 6.955-6.397 12.445-6.397 7.87 0 13.237 4.83 13.237 15.014zM297.062 34.205h-26.233c.733 6.071 5.308 10.118 11.713 10.118a11.707 11.707 0 009.334-4.177l3.233 4.047c-2.928 3.656-7.381 5.614-12.75 5.614-10.432 0-17.386-7.376-17.386-17.69 0-10.249 6.893-17.625 16.227-17.625 9.333 0 15.983 7.18 15.983 17.82 0 .523-.06 1.306-.121 1.893zm-26.233-4.504h20.741c-.61-5.81-4.697-9.922-10.37-9.922-5.612 0-9.76 4.047-10.37 9.922zM323.474 47.392a10.575 10.575 0 01-7.078 2.415c-6.527 0-10.249-3.852-10.249-10.836V19.975h-5.49v-5.157h5.49V7.246h5.857v7.572h9.273v5.157h-9.273V38.71c0 3.72 1.831 5.81 5.063 5.81a7.071 7.071 0 004.577-1.632zM358.549 34.205h-26.233c.733 6.071 5.308 10.118 11.713 10.118a11.707 11.707 0 009.334-4.177l3.234 4.047c-2.929 3.656-7.382 5.614-12.75 5.614-10.433 0-17.387-7.376-17.387-17.69 0-10.249 6.894-17.625 16.228-17.625 9.333 0 15.982 7.18 15.982 17.82 0 .523-.06 1.306-.121 1.893zm-26.233-4.504h20.742c-.61-5.81-4.698-9.922-10.37-9.922-5.613 0-9.761 4.047-10.372 9.922zM384.168 14.492v6.07a9.653 9.653 0 00-1.343-.065c-6.283 0-10.187 4.112-10.187 11.685v17.233h-5.857V14.818h5.613v5.81c2.074-4.047 6.1-6.136 11.774-6.136z" fill="#383838"/><path d="M29.915 14.492a11.125 11.125 0 00-9.346 5.03 11.125 11.125 0 00-9.344-5.03A11.239 11.239 0 000 25.72c0 5.622 3.541 11.5 10.242 17a58.922 58.922 0 0010.187 6.663.321.321 0 00.281 0 58.917 58.917 0 0010.186-6.663c6.7-5.5 10.242-11.378 10.242-17a11.238 11.238 0 00-11.223-11.228z" fill="#5ec7e0"/></svg>