<svg xmlns="http://www.w3.org/2000/svg" viewBox="0 0 457.71191 67.61475"><defs><style>.cls-1{fill:#555;}</style></defs><title>Asset 1</title><g id="Layer_2" data-name="Layer 2"><g id="Layer_1-2" data-name="Layer 1"><path class="cls-1" d="M56.72028.125A21.09326,21.09326,0,0,0,39.00123,9.66153,21.09376,21.09376,0,0,0,21.28279.125,21.30976,21.30976,0,0,0,0,21.41456C0,32.07318,6.7147,43.21718,19.4188,53.64634A111.72,111.72,0,0,0,38.73424,66.27969a.60879.60879,0,0,0,.53336,0A111.71174,111.71174,0,0,0,58.58182,53.64634C71.28592,43.2178,78,32.0738,78,21.41456A21.30753,21.30753,0,0,0,56.72028.125Z"/><path class="cls-1" d="M110.37109,0V66.34131H99.26855V0Z"/><path class="cls-1" d="M126.47705,3.64014a6.64307,6.64307,0,1,1-6.64355,6.64307A6.6802,6.6802,0,0,1,126.47705,3.64014ZM132.02832,26.937v39.4043H120.92578V26.937Z"/><path class="cls-1" d="M153.68555,0V41.31543L168.42773,26.937h14.37891L164.33252,44.22754,184.2627,66.34131H169.52L154.86816,49.50586l-1.18262,1.0918V66.34131H142.583V0Z"/><path class="cls-1" d="M223.75586,31.21387a21.22866,21.22866,0,0,1,0,30.8501c-3.36719,3.09375-8.46338,5.55078-15.92578,5.55078-7.46191,0-12.55811-2.457-15.92529-5.55078a21.22973,21.22973,0,0,1,0-30.8501c3.36719-3.09424,8.46338-5.55127,15.92529-5.55127C215.29248,25.6626,220.38867,28.11963,223.75586,31.21387Zm-4.82324,15.4707a11.10229,11.10229,0,1,0-11.10254,11.10205A10.99449,10.99449,0,0,0,218.93262,46.68457Z"/><path class="cls-1" d="M238.95117,26.937h11.10254v4.459A14.49716,14.49716,0,0,1,261.793,25.6626c8.28125,0,11.4668,5.1875,12.46777,7.18945a14.50744,14.50744,0,0,1,12.64941-7.18945c6.09668,0,9.09961,2.82129,10.64746,4.82324,2.54785,3.36719,2.72949,6.73437,2.72949,11.10254V66.34131H289.18457V44.86475c0-4.6416-1.001-6.73437-1.81934-7.73535a5.58071,5.58071,0,0,0-4.55078-2.00244,6.51557,6.51557,0,0,0-6.09668,3.4585c-1.45605,2.36572-1.54687,5.55078-1.54687,7.644V66.34131H264.06836V44.86475c0-4.6416-1.001-6.73437-1.82031-7.73535a5.58009,5.58009,0,0,0-4.5498-2.00244,6.51607,6.51607,0,0,0-6.09766,3.4585c-1.45605,2.36572-1.54687,5.55078-1.54687,7.644V66.34131H238.95117Z"/><path class="cls-1" d="M349.51758,55.33008C348.334,58.2417,343.875,67.61475,330.13379,67.61475c-6.37109,0-11.19336-1.81934-15.10742-5.55078-4.36719-4.09473-6.1875-9.19141-6.1875-15.37939,0-7.82617,3.18457-12.64941,6.00586-15.4707,4.6416-4.55029,10.10156-5.55127,14.834-5.55127,8.00781,0,12.64941,3.18555,15.37891,6.46143,4.18652,5.00537,4.73242,11.19336,4.73242,15.4707v.90967H320.30469a11.63249,11.63249,0,0,0,1.91113,6.64355,9.38271,9.38271,0,0,0,7.918,3.73047,10.16112,10.16112,0,0,0,9.19141-5.18652ZM339.3252,41.40625a9.45386,9.45386,0,0,0-18.65625,0Z"/><path class="cls-1" d="M369.44434,36.40137V66.34131H358.3418V36.40137h-4.36816V26.937h4.36816V13.46826h11.10254V26.937h7.64453v9.46436Z"/><path class="cls-1" d="M421.58691,55.33008c-1.18359,2.91162-5.64258,12.28467-19.38379,12.28467-6.37012,0-11.19336-1.81934-15.10645-5.55078-4.36914-4.09473-6.18848-9.19141-6.18848-15.37939,0-7.82617,3.18457-12.64941,6.00586-15.4707,4.6416-4.55029,10.10156-5.55127,14.834-5.55127,8.00781,0,12.64941,3.18555,15.37891,6.46143,4.18652,5.00537,4.73242,11.19336,4.73242,15.4707v.90967H392.374a11.63249,11.63249,0,0,0,1.91113,6.64355,9.38271,9.38271,0,0,0,7.918,3.73047,10.16112,10.16112,0,0,0,9.19141-5.18652ZM411.39453,41.40625a9.45386,9.45386,0,0,0-18.65625,0Z"/><path class="cls-1" d="M430.41113,26.937h11.10254v5.915a13.27929,13.27929,0,0,1,4.91406-5.46,12.0705,12.0705,0,0,1,6.55176-1.72949,13.65685,13.65685,0,0,1,4.73242.91016l-1.45605,10.37451a8.347,8.347,0,0,0-5.1875-1.45605,9.073,9.073,0,0,0-7.37109,3.18506c-2.09277,2.63916-2.18359,6.00635-2.18359,8.73633V66.34131H430.41113Z"/></g></g></svg>