<svg id="Layer_1" data-name="Layer 1" xmlns="http://www.w3.org/2000/svg" viewBox="0 0 384.47342 50.85059"><title>likeometer2-02-02</title><path d="M50.44119,1.958h7.626V50.39355h-7.626Z" style="fill:#383838"/><path d="M67.032,4.89551A4.7955,4.7955,0,0,1,71.91287,0a4.6749,4.6749,0,0,1,4.87988,4.69922A4.84638,4.84638,0,0,1,71.91287,9.791,4.79608,4.79608,0,0,1,67.032,4.89551Zm1.03711,10.63965h7.626v34.8584h-7.626Z" style="fill:#383838"/><path d="M98.99588,35.44531,93.323,41.18945v9.2041h-7.626V1.958h7.626V31.20215l15.7998-15.667h9.15137L104.66971,30.15723l14.88477,20.23633H110.282Z" style="fill:#383838"/><path d="M153.65311,35.5752H128.09256c.915,5.0918,4.87988,8.35547,10.55371,8.35547a11.29544,11.29544,0,0,0,8.8457-3.78516l4.08691,5.02637c-2.92773,3.7207-7.50391,5.67871-13.11621,5.67871-10.91992,0-17.99609-7.50684-17.99609-17.88574s7.1377-17.82129,16.83691-17.82129c9.51758,0,16.47168,7.11523,16.47168,18.0166C153.77518,33.81348,153.71463,34.792,153.65311,35.5752Zm-25.62207-5.418h18.48438c-.60937-5.02637-4.209-8.48535-9.21191-8.48535C132.36209,21.67188,128.76346,25.06641,128.031,30.15723Z" style="fill:#383838"/><path d="M158.408,32.96484c0-10.44434,7.32031-17.82129,17.3252-17.82129,10.127,0,17.38672,7.377,17.38672,17.82129s-7.25977,17.88574-17.38672,17.88574C165.7283,50.85059,158.408,43.40918,158.408,32.96484Zm27.02539,0c0-6.6582-4.14844-10.90137-9.7002-10.90137-5.49023,0-9.63867,4.24316-9.63867,10.90137s4.14844,10.90137,9.63867,10.90137C181.28494,43.86621,185.43338,39.623,185.43338,32.96484Z" style="fill:#383838"/><path d="M254.91385,30.41895V50.39355h-7.626V31.46289c0-6.20117-2.68359-9.2041-7.32031-9.2041-5.002,0-8.47949,3.52539-8.47949,10.44434V50.39355h-7.626V31.46289c0-6.20117-2.68359-9.2041-7.32031-9.2041-5.06348,0-8.47949,3.52539-8.47949,10.44434V50.39355h-7.626V15.53516h7.25977v4.43945a13.0988,13.0988,0,0,1,10.67578-4.83105c4.75879,0,8.72363,1.89355,10.98047,5.80957a14.80983,14.80983,0,0,1,12.20117-5.80957C249.42362,15.14355,254.91385,19.90918,254.91385,30.41895Z" style="fill:#383838"/><path d="M295.47537,35.5752H269.91483c.915,5.0918,4.87988,8.35547,10.55371,8.35547a11.29544,11.29544,0,0,0,8.8457-3.78516l4.08691,5.02637c-2.92773,3.7207-7.50391,5.67871-13.11621,5.67871-10.91992,0-17.99609-7.50684-17.99609-17.88574s7.1377-17.82129,16.83691-17.82129c9.51758,0,16.47168,7.11523,16.47168,18.0166C295.59744,33.81348,295.5369,34.792,295.47537,35.5752Zm-25.62207-5.418h18.48438c-.60937-5.02637-4.209-8.48535-9.21191-8.48535C274.18436,21.67188,270.58572,25.06641,269.8533,30.15723Z" style="fill:#383838"/><path d="M322.49686,48.501a11.44112,11.44112,0,0,1-7.32031,2.34961c-7.1377,0-11.22461-4.04687-11.22461-11.75V22.32422h-5.36914V15.79688h5.36914V7.833h7.625v7.96387h8.72363v6.52734h-8.72363V38.9043c0,3.39453,1.58594,5.22266,4.51465,5.22266a6.55547,6.55547,0,0,0,4.27051-1.43652Z" style="fill:#383838"/><path d="M358.18338,35.5752H332.62283c.915,5.0918,4.87988,8.35547,10.55371,8.35547a11.29544,11.29544,0,0,0,8.8457-3.78516l4.08691,5.02637c-2.92773,3.7207-7.50391,5.67871-13.11621,5.67871-10.91992,0-17.99609-7.50684-17.99609-17.88574s7.1377-17.82129,16.83691-17.82129c9.51758,0,16.47168,7.11523,16.47168,18.0166C358.30545,33.81348,358.2449,34.792,358.18338,35.5752Zm-25.62207-5.418h18.48438c-.60937-5.02637-4.209-8.48535-9.21191-8.48535C336.89237,21.67188,333.29373,25.06641,332.56131,30.15723Z" style="fill:#383838"/><path d="M384.47342,15.14355v7.76855a9.05378,9.05378,0,0,0-1.76953-.19629c-5.79492,0-9.45508,3.65527-9.45508,10.77051V50.39355h-7.626V15.53516h7.25977V20.627C375.07889,16.97168,379.04373,15.14355,384.47342,15.14355Z" style="fill:#383838"/><path d="M29.52935,14.81022A10.92077,10.92077,0,0,0,20.30457,19.887a10.921,10.921,0,0,0-9.22446-5.07674A11.22134,11.22134,0,0,0,0,26.14365c0,5.67409,3.49576,11.60656,10.10969,17.15849a58.00476,58.00476,0,0,0,10.05588,6.72533.31067.31067,0,0,0,.27767,0,58.00057,58.00057,0,0,0,10.05524-6.72533c6.61393-5.5516,10.10937-11.48408,10.10937-17.15849A11.2202,11.2202,0,0,0,29.52935,14.81022Z" style="fill:#5ec7e0"/></svg>