<svg id="Layer_1" data-name="Layer 1" xmlns="http://www.w3.org/2000/svg" viewBox="0 0 384.16797 49.80664"><title>likeometer2-02-02</title><path d="M56.96387.97949h5.85645V49.415H56.96387Z" style="fill:#383838"/><path d="M72.94531,4.1123A3.99082,3.99082,0,0,1,76.91113,0,3.919,3.919,0,0,1,80.876,3.98242a3.96849,3.96849,0,1,1-7.93066.12988Zm1.03711,10.70605h5.85645V49.415H73.98242Z" style="fill:#383838"/><path d="M103.56836,33.292l-6.71094,6.6582V49.415H91.001V.97949h5.85645V32.05176l17.63086-17.2334h7.07617l-13.60352,14.2959L122.90723,49.415H115.708Z" style="fill:#383838"/><path d="M156.335,34.20508H130.10254c.73242,6.07129,5.30762,10.11816,11.71289,10.11816a11.70461,11.70461,0,0,0,9.334-4.17773l3.2334,4.04785c-2.92773,3.65527-7.38184,5.61328-12.75,5.61328-10.43164,0-17.38672-7.376-17.38672-17.69043,0-10.248,6.89355-17.624,16.22754-17.624S156.457,21.67188,156.457,32.3125C156.457,32.835,156.39551,33.61816,156.335,34.20508Zm-26.23242-4.50391h20.74219c-.61035-5.80957-4.69727-9.92187-10.37109-9.92187C134.86133,19.7793,130.71289,23.82617,130.10254,29.70117Z" style="fill:#383838"/><path d="M161.57813,32.11621c0-10.31348,7.1377-17.624,16.83789-17.624,9.69922,0,16.77637,7.31055,16.77637,17.624,0,10.31445-7.07715,17.69043-16.77637,17.69043C168.71582,49.80664,161.57813,42.43066,161.57813,32.11621Zm27.69629,0c0-7.376-4.63574-12.1416-10.8584-12.1416s-10.91992,4.76563-10.91992,12.1416c0,7.377,4.69727,12.207,10.91992,12.207S189.27441,39.49316,189.27441,32.11621Z" style="fill:#383838"/><path d="M256.98633,29.50586V49.415h-5.85645V30.22363c0-6.78906-3.0498-10.11816-8.35742-10.11816-5.85645,0-9.69922,3.98242-9.69922,11.48926V49.415H227.2168V30.22363c0-6.78906-3.05078-10.11816-8.3584-10.11816-5.85645,0-9.69922,3.98242-9.69922,11.48926V49.415h-5.85645V14.81836h5.6123v5.15625c2.31836-3.52441,6.2832-5.48242,11.16406-5.48242,4.94141,0,9.08984,2.08887,11.22461,6.39648,2.44043-3.916,6.95508-6.39648,12.44531-6.39648C251.61816,14.49219,256.98633,19.32227,256.98633,29.50586Z" style="fill:#383838"/><path d="M297.06152,34.20508H270.8291c.73242,6.07129,5.30762,10.11816,11.71289,10.11816a11.70731,11.70731,0,0,0,9.334-4.17773l3.2334,4.04785c-2.92871,3.65527-7.38184,5.61328-12.75,5.61328-10.43262,0-17.38672-7.376-17.38672-17.69043,0-10.248,6.89355-17.624,16.22754-17.624,9.333,0,15.98242,7.17969,15.98242,17.82031C297.18262,32.835,297.12207,33.61816,297.06152,34.20508ZM270.8291,29.70117h20.74121c-.60937-5.80957-4.69727-9.92187-10.37012-9.92187C275.58789,19.7793,271.43945,23.82617,270.8291,29.70117Z" style="fill:#383838"/><path d="M323.47363,47.3916a10.5749,10.5749,0,0,1-7.07715,2.415c-6.52734,0-10.249-3.85156-10.249-10.83594V19.97461h-5.49023V14.81836h5.49023V7.24609h5.85645v7.57227h9.27344v5.15625h-9.27344V38.71c0,3.7207,1.83105,5.80957,5.06348,5.80957a7.07119,7.07119,0,0,0,4.57617-1.63184Z" style="fill:#383838"/><path d="M358.54883,34.20508H332.31641c.73242,6.07129,5.30762,10.11816,11.71289,10.11816a11.70731,11.70731,0,0,0,9.334-4.17773l3.2334,4.04785c-2.92871,3.65527-7.38184,5.61328-12.75,5.61328-10.43262,0-17.38672-7.376-17.38672-17.69043,0-10.248,6.89355-17.624,16.22754-17.624,9.333,0,15.98242,7.17969,15.98242,17.82031C358.66992,32.835,358.60938,33.61816,358.54883,34.20508Zm-26.23242-4.50391h20.74121c-.60937-5.80957-4.69727-9.92187-10.37012-9.92187C337.0752,19.7793,332.92676,23.82617,332.31641,29.70117Z" style="fill:#383838"/><path d="M384.168,14.49219V20.5625a9.65322,9.65322,0,0,0-1.34277-.06543c-6.2832,0-10.1875,4.1123-10.1875,11.68457V49.415h-5.85645V14.81836h5.6123v5.80957C374.46777,16.58105,378.49414,14.49219,384.168,14.49219Z" style="fill:#383838"/><path d="M29.91464,14.49219a11.12472,11.12472,0,0,0-9.34514,5.02963,11.125,11.125,0,0,0-9.34481-5.02963A11.2389,11.2389,0,0,0,0,25.72044c0,5.62143,3.54137,11.49884,10.2416,16.99925a58.92183,58.92183,0,0,0,10.18709,6.66291.32108.32108,0,0,0,.2813,0,58.91748,58.91748,0,0,0,10.18644-6.66291c6.70022-5.50008,10.24127-11.3775,10.24127-16.99925A11.23772,11.23772,0,0,0,29.91464,14.49219Z" style="fill:#5ec7e0"/></svg>