<svg id="Layer_1" xmlns="http://www.w3.org/2000/svg" viewBox="0 0 500 500"><defs><style>.cls-1{fill:#5ec7e0}</style></defs><path class="cls-1" d="M388.343 318.427c.114-.202.241-.412.376-.628 4.973-6.507 14.753-10.328 22.41-12.243 3.91-.978 6.373-2.757 9.383-5.266 2.091-1.742 4.658-3.78 5.665-6.314 1.332-3.356-6.076-3.351-7.813-3.5-5.573-.477-12.779-1.043-15.1-6.588 7.606-.37 14.554-2.919 11.059-11.374-1.652-4.012-4.41-7.589-6.629-11.331-3.102-5.22-3.123-11.001-1.407-16.697 3.013-9.993 16.536-22.463 9.337-33.126-1.294-1.919-3.655-3.07-5.566-4.363a13.598 13.598 0 01-1-.751c-.644-4.313-1.63-8.594-2.52-12.838-.517-2.48-.72-6.513-2.112-9.395a8.621 8.621 0 00-1.843-4.308c-.312-.328-1.837.005-1.677.528a2.84 2.84 0 00.188.5c-1.07-.53-2.23-.936-3.336-1.379a70.194 70.194 0 01-4.441-1.993c-4.949-4.958-10.284-9.57-14.782-14.99-.932-1.123-2.598-2.707-2.595-4.24.004-1.967 1.953-4.33 2.78-6.08.857-1.802 1.165-3.782-.706-5.001-.766-.498-5.948-3.662-8.157-3.384a12.349 12.349 0 00-4.144-3.986c-3.672-2.21-2.236-4.732-.531-8.084 1.843-3.633 3.715-5.167 7.603-6.682a40.399 40.399 0 007.972-3.564c4.297-2.857 2.46-8.173-.9-11.048-3.488-2.992-9.6-.285-13.034 1.283-6.983 3.19-13.257 7.623-20.085 11.087a26.61 26.61 0 01-9.507 3.22c-1.51.133-1.428.269-.978-.676a71.5 71.5 0 001.443-3.36 31.408 31.408 0 001.652-5.42c2.297-11.107-12.116-6.88-18.706-8.387-6.781-1.547-5.168-8.987-2.822-13.357 2.925-5.439 7.558-9.895 11.039-15 2.254-3.31 5.108-8.043 2.757-11.982-1.885-3.164-5.487-5.57-9.273-3.949-4.38 1.873-7.1 7.343-9.177 11.103-2.981 5.395-5.306 11.086-7.82 16.677-1.882 4.182-4.363 7.691-5.452 12.205-1.329 5.47-8.88 4.804-13.459 3.482-5.395-1.56-6.593-6.7-5.916-11.349.057-.403-.465-.58-.805-.547-11.464 1.204-25.618 7.096-34.32-3.108-9.798-11.487.198-26.838-5.271-39.59-.266-.619-1.209-.417-1.6-.029-5.78 5.782-6.759 13.14-6.752 20.79.004 8.192 1.234 17.336-4.647 24.036a42.325 42.325 0 00-8.745-5.768c-.532-.265-1.407-.098-1.545.534-3.765 17.442-23.467 29.958-41.325 32.097-9.32 1.116-25.193.791-27.135 11.699a51.441 51.441 0 01-9.295-11.267.804.804 0 00-.72-.245 4.43 4.43 0 00-3.633 2.281c-1.123 1.738-6.256.263-8.482.253-.376-.002-1.12.37-.94.826 3.783 9.6 7.427 20.132 5.817 30.463-2.336-3.406-6.15-7.577-10.528-5.867-4.53 1.77-4.743 6.954-3.853 10.854a11.907 11.907 0 00.518 1.594 58.763 58.763 0 00-6.835 12.727c-.694.63-1.39 1.264-2.073 1.91-3.761 3.568-8.802 8.737-7.278 14.22a.516.516 0 00.355.344 86.042 86.042 0 01-7.25 6.745c-3.356 2.918-8.52 6.777-9.393 11.294-.886 4.596 7.862 3.996 10.415 3.864 3.268-.174 3.548.168 3.988 3.19a13.793 13.793 0 01-.238 5.127c-.744 3.185-3.516 5.13-6.515 6.366-5.328 2.199-11.287 2.59-16.554 5.003a12.893 12.893 0 00-7.877 10.733c-.237 3.338 2.921 3.974 5.771 3.531 6.533-1.017 12.8-4.988 18.305-8.226a105.628 105.628 0 0011.879-7.559 25.473 25.473 0 01-3.538 17.647c-2.46 4.125-5.774 7.79-7.313 12.36-1.783 5.275.777 10.47 3.871 14.791.493.685 4.257 4.33 3.197 5.097a67.338 67.338 0 01-7.514 4.457c-4.112 2.218-8.167 4.387-11.634 7.468-.365.33-.025.732.4.742a24.736 24.736 0 0123.261 16.57 21.023 21.023 0 01-.596 14.33c-1.524 3.986-3.65 6.1-7.43 8.068-4.955 2.58-11.594 5.014-14.898 9.587-2.194 3.034-.83 9.1 4.023 8.999 5.537-.117 9.6-7.653 12.503-11.178 2.843-3.452 5.367-4.937 9.957-5.993a20.592 20.592 0 0115.257 2.297c7.057 4.226 9.95 12.855 9.875 20.343-.07 6.674-3.357 10.971-7.188 16.227-1.539 2.104-5.041 6.002-4.41 8.85.67 3.011 5.54 1.717 7.596 1.234 11.485-2.707 11.17-16.812 21.223-21.646-1.032 3.854-1.227 7.86-2.418 11.688-.24.765 1.337.334 1.585.122 2.368-1.992 5.335-2.648 7.975-4.19 1.748-1.02 6.289 2.242 7.763 3.107 4.534 2.67 7.416 6.39 8.143 10.982q.032 1.25.184 2.476c-.007.475-.021.954-.074 1.444-.025.25.156.384.393.438a16.676 16.676 0 001.538 4.317l.004.008a35.572 35.572 0 00-.088 1.842c-.121 4.931 4.225 7.317 9.106 6.667 6.49-.864 12.105-6.228 17.944-8.7a18.977 18.977 0 0115.873.246c2.846 1.425 3.424 5.056 4.594 7.59 2.074 4.503 8.663 4.495 12.718 2.404 3.567-1.837 5.382-14.982 9.107-14.234 6.122 1.228 12.049 3.28 18.117 4.704 5.548 1.303 11.794.201 17.075-1.878.139 3.375.727 7.097 4.353 8.558 3.414 1.378 7.806-1.194 10.521-2.83a.559.559 0 00.302-.557c-.373-1.974-1.457-6.14 2.367-5.762 1.46.145 2.91.547 4.353.814a11.983 11.983 0 007.593-.727c3.152-1.531 5.15-3.985 7.263-6.63 2.266-2.84 4.006-2.755 7.76-2.758 1.967-.003 5.239.434 6.863-.98a127.534 127.534 0 0010.34-10.34c6.465-7.088 12.79-14.686 21.995-18.724 4.427-1.942 10.244-3.32 14.828-1.258 2.396 1.076 4.487 2.654 6.983 3.542 5.817 2.069 7.316-5.313 7.937-8.99 1.176-6.948-4.407-10.218-7.186-15.752-2.013-4.009-.124-8.997 1.932-12.616zM58.475 132.968c2.804.121 8.887-.052 9.922-3.295.727-2.256-2.836-4.872-4.435-5.862-.092-.055-.187-.1-.283-.151.074-.079.067-.146-.078-.178l-.603-.15a8.16 8.16 0 00-2.276-.55 12.456 12.456 0 00-7.415.096c-2 .752-4.693 2.826-4.786 5.07-.17 4.125 6.877 4.887 9.954 5.02zM83.682 103.754c2.226 2.37 2.56 2.824 5.813 2.824.362 0 1.138-.144 1.195-.592 1.07-8.453-1.223-16.246-4.038-24.206-.223-.623-1.95-.162-1.733.438.05.154.106.307.156.461a44.565 44.565 0 00-7.898-13.631c-.106-.123-.422-.11-.748-.033-2.279-2.005-4.856-1.59-6.334 2.02-3.332 8.148.266 15.385 4.955 22.225a88.681 88.681 0 008.632 10.494zM132.188 96.25c.401.04 1.362-.05 1.567-.457 1.312-2.58 2.542-5.74.56-8.307a8.942 8.942 0 00-4.902-2.699c-3.088-1.152-7.37-1.392-8.235 2.306-1.318 5.649 6.448 8.697 11.01 9.157zM169.564 87.97a12.24 12.24 0 009.103-7.597c2.127-5.412-1.56-9.848-6.44-12.21.489-.229.822-.568-.114-.369-.152.034-.305.074-.454.109-.081-.036-.16-.076-.244-.111a2.41 2.41 0 00-1.638.535c.042.018.082.038.12.057-5.338 1.694-10.403 5.387-10.676 11.031-.259 5.34 5.008 9.449 10.343 8.555z"/><path class="cls-1" d="M246.982 81.154h4.041a1.402 1.402 0 001.209-.538c3.888-7.662 5.334-16.046 8.078-24.078.103-.296-.457-.334-.968-.217.766-3.74.589-7.86-2.62-9.605-2.636-1.437-4.923 1.686-5.848 3.497-2.563 5.007-3.261 11.084-3.942 16.533-.57 4.537-1.318 9.653-.471 14.206.039.187.38.202.52.202zM382.728 150.377c.805 2.684 5.527 2.385 7.707 2.095 2.584-.347 6.81-1.312 7.961-3.873 1.386-3.083-4.218-4.894-7.135-5.704.942-.299 1.924-.568 2.938-.877 1.028-.311.784-1.23-.262-.912-1.482.455-2.985.827-4.406 1.33-.107-.028-.217-.057-.326-.083-.507-.128-1.585.439-1.354.781a9.455 9.455 0 00-3.318 2.547c-1.025 1.267-2.315 2.998-1.805 4.696zM468.2 291.806a1.07 1.07 0 00-.82.53 30.001 30.001 0 00-3.64 1.007c-.149.05-.645.285-.535.514 3.343 6.924 11.928 7.738 19.117 7.811a36.007 36.007 0 0012.864-1.166c.326-.092.815-.35.72-.744-3.17-12.731-17.423-9.222-27.706-7.952zM442.383 319.162a3.411 3.411 0 00-1.113-2.37c.581-.213 1.156-.665.443-.785a55.92 55.92 0 00-2.19-.329c-3.159-1.35-7.544-.576-10.575.337-.659.197-.794.63-.531.828-.128.07-.259.135-.387.209-.503.06-1.02.13-1.531.214-.822.135-1.436 1.102-.241.905.128-.02.252-.031.376-.052a5.483 5.483 0 00-.954 6.788c1.5 2.81 4.8 4.194 8.022 4.12 5.19-.126 9.355-3.86 12.329-7.49.067-.081.11-.26 0-.337a26.465 26.465 0 00-3.648-2.038zM419.115 356.716c-.287-.202-1.127.059-1.492.305a6.82 6.82 0 00-4.654.783c-1.762 1.014-1.78 3.872-2.255 5.67-.032.113.036.173.15.2 3.115.824 6.617 1.848 9.811.803 2.768-.908 3.357-3.98 3.87-6.34a.118.118 0 00-.049-.153c-1.637-1.149-3.785-.149-5.38-1.268zM404.334 401.679c-2.106.927-3.066 2.974-3.694 4.968-.73 2.332-1.336 5.294-.18 7.601 1.456 2.907 5.366 2.97 8.003 1.578a6.808 6.808 0 003.644-6.572c.444.643 2.01.197 1.677-.51-1.4-2.961-4.92-9.057-9.45-7.065zM324.236 429.617c.12-.063.224-.13.351-.19 1.035-.49-.542-.608-1.045-.373-.291.137-.575.281-.855.429a18.17 18.17 0 00-5.452.68c-1.006.298-.826.99.195.69a14.067 14.067 0 013.967-.574 6.732 6.732 0 00-.787.68 7.456 7.456 0 00-.695.312c-3.335 1.774-4.271 6.26-4.796 9.472a.279.279 0 00.181.308c1.765.791 3.559 1.447 5.508.89a7.702 7.702 0 002.655-1.554c3.535-.943 7.143-2.918 6.268-6.651-.606-2.582-2.893-3.748-5.495-4.119zM285.733 430.178a7.197 7.197 0 00-5.55.623 7.638 7.638 0 00-4.443.75 15.155 15.155 0 00-6.03 5.81c-1.605 2.843-.208 5.604 2.826 6.76a11.2 11.2 0 009.62-1.352c4.258-2.783 4.555-8.106 3.737-12.48a.202.202 0 00-.16-.111zM175.718 420.55a3.502 3.502 0 00-2.414-.316c-.929.138-1.694.958-2.56 1.066a1.61 1.61 0 00-.598.21 8.339 8.339 0 00-3.106 1.106c-2.931 1.853-2.676 6.517-2.697 9.379 0 .215.62.134.716.118 3.896-.625 8.323-1.323 10.234-4.987a13.393 13.393 0 001.028-3.056c.166-.664.29-1.338.418-2.008.174-.915-.163-.966-1.021-1.512zM19.252 301.107c.096-.13.014-.233-.414-.234a50.022 50.022 0 01-1.21-.028 18.723 18.723 0 00-2.03-.073 12.983 12.983 0 00-5.41.74c-3.108 1.33-3.321 4.715-3.356 7.554a.228.228 0 00.166.122c4.736 1.706 11.723 1.85 15.083-2.44a3.06 3.06 0 00-.167-4.307 5.734 5.734 0 00-2.662-1.334zM73.122 213.797c.067-.08.12-.233.007-.307a21.77 21.77 0 00-18.372-3.01 15.08 15.08 0 00-8.061 2.321c-2.648 1.844-1.989 4.863-.032 6.901 7.837 8.172 20.939.587 26.458-5.905zM64.356 178.758c.436-.107.833-.363.755-.664-1.234-4.659-4.488-9.695-9.114-12.238.344.095.677.197 1.007.307.691.231 2.038-.702 1.014-1.044-4.881-1.634-15.104-2.434-17.681 3.27-1.337 2.956 2.002 5.735 4.165 7.312a34.61 34.61 0 0012.69 5.937c3.148.65 6.657-.22 7.164-2.88zM83.487 39.647c3.573 1.658 11.988 2.208 13.69-2.226a3.77 3.77 0 00-.497-3.207 9.337 9.337 0 00.738-4.392c.007-.1-.252-.116-.301-.114a30.114 30.114 0 00-4.524.439 14.387 14.387 0 00-3.817-1.622 16.485 16.485 0 017.263.747c.649.211 2.042-.671 1.028-1-5.08-1.65-11.117-1.37-15.005 2.486-2.95 2.924-2.488 7.071 1.425 8.889zM406.404 109.412a7.774 7.774 0 005.526-6.456 7.57 7.57 0 00-.921-5.338c.588.074 1.885-.506 1.254-.79a21.214 21.214 0 00-3.771-1.319 5.462 5.462 0 00-2.07-.341 11.215 11.215 0 00-5.002.66c-3.903 1.468-5.743 5.594-6.866 9.093a.186.186 0 00.053.2c3.19 2.727 7.277 5.407 11.797 4.29zM449.576 190.445a20.427 20.427 0 01-4.924-.876 25.971 25.971 0 013.116-.772c.726-.13 1.506-.904.297-.689a30.32 30.32 0 00-4.424 1.139c-.18-.06-.357-.124-.538-.189l-.248-.088a37.322 37.322 0 01-2.34-.96c-.521-.234-1.737.317-1.556.707-3.878.87-6.561 5.127-7.714 9.574a20.157 20.157 0 00-1.687 2.966c-.05.107.057.185.153.209a17.427 17.427 0 0013.296-2.545 14.102 14.102 0 007.075-7.869c.139-.354-.12-.592-.506-.607z"/><path d="M279.182 195.478a34.736 34.736 0 00-29.18 15.705 34.737 34.737 0 00-29.178-15.705 35.093 35.093 0 00-35.049 35.06c0 17.552 11.058 35.904 31.979 53.078a183.98 183.98 0 0031.808 20.805 1.003 1.003 0 00.879 0 183.966 183.966 0 0031.806-20.805c20.921-17.173 31.978-35.525 31.978-53.079a35.089 35.089 0 00-35.043-35.059z" fill="#fff"/></svg>
