<svg xmlns="http://www.w3.org/2000/svg" viewBox="0 0 500 500"><path d="M462.8 253.972c-2.969-2.762-9.235-1.708-12.852-1.311-6.652.732-13.231 2.196-19.953 2.216-6.088.02-11.089-2.154-11.616-8.38-.524-6.179 6.598-11.01 11.077-14.317 4.5-3.322 15.701-9.64 7.847-15.15-5.741-4.025-13.875-5.068-20.603-6.74a23.124 23.124 0 01-3.974-1.24l-.12-10.22c.091-.612.16-1.226.201-1.848.254-.36.492-.695.701-1.002.044-.064-.276-.084-.662-.052-.036-3.355-1.164-7.328 1.46-10.06 1.793-1.869 5.505-2.098 7.837-3.382 2.514-1.381 4.004-6.355 4.482-8.89a6.717 6.717 0 00-2.445-6.448c-4.799-4.23-13.386-4.727-19.371-6.49-7.428-2.185-17.109-8.21-17.59-16.345-.359-6.116 5.704-11.929 8.329-17.13 3.45-6.84 2.478-14.175-1.04-20.83-5.123-9.683-14.25-.383-18.736 4.57-4.223 4.661-11.426 15.381-19.065 13.786-6.467-1.355-10.561-8.707-9.45-14.507 1.1-5.743 4.712-10.94 6.117-16.68 1.034-4.219 3.77-15.592-4.537-13.479a12.98 12.98 0 00-7.164 4.336 17.295 17.295 0 00-5.86 6.578c-2.16 3.743-4.773 10.12-10.685 8.617-4.596-1.169-8.798-4.863-12.168-7.862-2.51-2.24-5.146-4.72-5.754-8.035-.673-3.647.836-7.437 2.413-10.69 3.649-7.533 9.51-14.057 14.477-20.814 3.73-5.074 8.509-11.366 7.838-17.896a8.286 8.286 0 00-9.24-7.115c-4.863.615-8.562 5.028-11.3 8.45-4.861 6.079-8.534 13.028-12.204 19.786-2.963 5.46-5.536 10.856-10.123 15.268a79.749 79.749 0 01-31.888 18.291c-10.344 3.071-24.971 2.8-30.616-7.655-3.626-6.716-1.179-15.54-.322-22.606.918-7.572.358-14.152-5.564-19.698-2.436-2.279-5.943-5.29-9.568-3.6-3.108 1.45-2.495 6.8-2.345 9.38.36 6.201 1.744 12.366 3.04 18.438.837 3.92 1.81 7.832 2.413 11.793.323 2.125-.34 3.681-1.321 5.659-1.64 3.3-4.994 6.247-9.088 6.293-2.826.032-5.244-1.703-7.21-3.408-7.106-6.163-3.053-15.7-4.504-23.541-.755-4.082-6.308-10.309-11.214-9.633-3.521.484-4.194 3.455-4.511 6.419-.637 5.937.036 11.5-1.52 17.402-1.392 5.28-6.647 7.695-9.877 11.861a26.47 26.47 0 00-3.459 6.293 99.981 99.981 0 00-10.564 11.318c-2.692 3.224-5.591 7.11-10.956 5.614a22.239 22.239 0 01-7.3-4.255c-2.861-2.298-4.61-5.773-6.717-8.654-3.43-4.684-7.672-5.073-12.433-1.831-6.131 4.174-8.656 10.161-7.15 17.056 1.392 6.372 5.307 11.946 7.12 18.193 2.862 9.855-8.491 11.98-16.586 12.25-4.478.155-11.312-1.716-13.993 2.917-1.626 2.811-.735 8.14.764 10.741 1.981 3.442 6.02 5.414 8.142 8.833a9.263 9.263 0 011.036 2.258l-8.318 8.346c-5.043-.377-10.065-1.19-14.81 1.746-8.808 5.446-9.112 17.036-10.995 25.765-.91 4.221-2.476 10.098-7.05 11.97-3.034 1.242-6.388 1.737-9.498 2.789-4.409 1.49-8.822 4.038-5.525 8.739 4.426 6.307 11.599 3.731 18.263 2.98 5.73-.643 10.591-.024 12.682 5.697 1.782 4.87-3.678 7.931-7.333 9.979-4.889 2.738-11.82 8.699-10.225 14.726.882 3.337 3.383 6.32 4.53 9.623 1.571 4.54 1.603 9.221 1.724 13.927.144 5.578 4.728 9.63 8.966 12.988 5.876 4.656 12.212 5.523 14.282 13.415 1.612 6.152.205 12.19.695 18.374a10.917 10.917 0 003.223 6.859c.083.322.165.643.24.963 1.888 7.99-.015 13.653-2.448 21.17-2.612 8.05-9.538 30.169 7.067 28.923 3.239-.243 6.403-2.774 8.868-4.531 2.052-1.459 4.031-3.007 6.07-4.49 1.018-.74 5.404-4.356 6.517-3.974l8.663 2.986c2.89 1 4.458.485 7.34-.766 5.947-2.58 10.913 3.684 10.242 8.507-.512 3.668-3.214 7.127-5.284 10.141-3.25 4.727-8.51 10.977-5.749 16.927a.92.92 0 001.117.357c9.247-2.348 13.644-9.858 19.825-16.074 3.183-3.2 12.773-8.791 17.217-4.911 2.918 2.551-.323 9.138-1.425 11.746-2.217 5.246-18.666 25.419-4.915 26.29 7.002.442 9.995-4.202 12.827-9.494 1.997-3.735 3.957-7.564 7.458-10.25 3.55-2.719 10.417-3.125 14.33-.805 4.956 2.945 2.874 11.277 2.265 15.688-.658 4.765-1.71 10.412 1.134 14.733 4.154 6.311 15.122 4.49 19.536-.307 3.607-3.914 5.215-9.576 7.474-14.644a38.466 38.466 0 017.154-6.648c3.983-3.036 3.634.68 3.189 3.556-.403 2.623-1.21 5.263-1.247 7.932-.055 3.502 1.903 9.576 6.54 9.341 4.341-.224 7.997-4.514 10.691-7.264 5.244-5.35 10.076-11.426 16.69-15.344 4.472-2.65 9.398-2.634 13.198 1.135 2.693 2.667 4.48 5.627 8.806 5.314 3.217-.231 5.957-2.328 8.493-4 5.388-3.551 12.256-.516 17.987.043 6.317.617 13.936-4.994 14.034-11.065.03-1.897-.431-3.724-.072-5.615a3.706 3.706 0 011.265-2.309 10.138 10.138 0 013.38-.657 15.539 15.539 0 017.467 3.694c3.538 3.666 4.695 9.467 5.45 14.213.023.141.247.173.352.196 2.958.562 8.32 1.537 10.276-1.545 1.85-2.917-1.426-7.819-2.792-10.322-2.527-4.644-5.57-9.113-7.355-14.084-1.54-4.308.569-9.684 6.066-6.55 5.163 2.942 9.949 6.454 15.107 9.414 3.885 2.224 8.967 5.323 13.735 4.89 4.384-.399 5.343-3.74 5.041-7.457-.685-8.466-5.127-14.08-14.003-15.07-4.119-.455-7.815-.827-10.85-3.812a12.634 12.634 0 01-3.18-4.06c-.811-2.03 3.525-1.406 4.463-1.329 3.427.275 5.823.56 8.272.205a.664.664 0 00.09-.011 18.097 18.097 0 005.93-2.125c4.34-2.328 8.117-5.583 12.093-8.41a66.878 66.878 0 0114.11-7.154c6.702-2.695 8.595-6.622 7.576-13.076 5.577 1.441 12.313 1.458 15.997-3.323 2.208-2.866 1.834-7.827.435-10.886-1.147-2.505-4.464-2.637-6.897-2.82-5.091-.372-8.358-2.884-11.938-6.113-1.676-1.513-4.752-4.554-.532-4.221 5.969.469 11.823 2.352 17.702 3.378 4.117.719 7.593.948 10.934-1.743 3.19-2.568.46-5.583-1.93-7.53-6.8-5.548-25.92-13.037-20.062-24.025l.012 1.268a17.444 17.444 0 01-.907 2.147c-.107.206 1.64.098 1.864-.336 1.828-3.563 1.783-7.433 4.12-10.915 2.807-4.189 7.51-4.841 12.303-4.149 6.418.93 12.385 3.673 18.85 4.407 3.857.44 8.521-.305 11.133-3.302 2.621-3.002 5.458-9.475 1.903-12.793z" fill="#5ec7e0"/><path d="M279.182 195.478a34.736 34.736 0 00-29.18 15.705 34.737 34.737 0 00-29.178-15.705 35.093 35.093 0 00-35.049 35.06c0 17.552 11.058 35.904 31.979 53.078a183.98 183.98 0 0031.808 20.805 1.003 1.003 0 00.879 0 183.966 183.966 0 0031.806-20.805c20.921-17.173 31.978-35.525 31.978-53.079a35.089 35.089 0 00-35.043-35.059z" fill="#fff"/></svg>
