<svg id="Layer_1" xmlns="http://www.w3.org/2000/svg" viewBox="0 0 500 500"><defs><style>.cls-1{fill:#5ec7e0}</style></defs><path class="cls-1" d="M432.206 281.338c-3.466-1.391-7.104-2.394-10.617-3.672-5.305-1.927-6.457-6.638-4.987-11.57 2.652-8.88 16.194-11.108 18.734-19.638 1.148-3.86.12-8.68-.5-12.521a53.684 53.684 0 00-5.073-16.362 45.191 45.191 0 00-9.613-11.804c-4.122-3.824-10.738-2.79-14.639-6.634-4.351-4.291-1.268-10.507 3.506-12.695 2.962-1.363 6.425-2.086 9.043-4.024 5.088-3.762 3.048-13.461-3.56-14.96-9.955-2.254-18.207 7.63-28.282 5.656-14.635-2.872-.473-24.505 2.63-30.895 4.133-8.5 9.454-17.175 10.866-26.5.771-5.096-3.937-10.003-9.548-10.357-6.092-.385-11.645 2.831-16.392 5.948-6.542 4.294-12.312 9.484-18.773 13.872-5.848 3.97-12.413 6.617-15.728-1.148-.09-.232-.163-.47-.245-.702 3.386.027 4.665-.134 6.798-3.56 1.796-2.888 2.816-8.632-1.175-10.565-6.736-3.256-10.672-.986-12.742 5.184-1.82 5.417-11.86-.233-12.507-4.459-.713-4.675 2.742-10.2 4.468-14.423 2.772-6.774 6.949-14.23 7.108-21.552.159-7.717-8.93-7.112-14.76-5.63-8.93 2.27-8.182 11.04-7.709 17.79.427 6.063-.116 11.006-6.724 14.012-5.93 2.697-10.924-4.389-13.588-8.07-3.894-5.379-7.473-13.243-16.097-10.848a10.183 10.183 0 00-4.63 3.282c-4.15 4.653-9.06 4.562-14.283 1.414-5.025-3.034-14.965-1.346-20.177.755-6.185 2.493-10.059 8.864-15.666 12.285-2.4 1.465-11.254 6.712-14.023 3.69-1.524-1.654-.845-5.216-.845-7.154.012-5.863-2.106-9.108-7.434-12.454-4.394-2.759-9.117-1.227-12.056 2.397-5.076 6.257-5.301 15.607-8.64 22.66-3.614 7.633-10.994 9.524-18.634 12.965-.225.101-.891.438-.71.778.524.942 1.04 1.956 1.649 2.851a30.355 30.355 0 012.028 2.817c-.613.424-1.23.855-1.846 1.285a59.573 59.573 0 01-5.976 3.82 20.204 20.204 0 01-5.347-.387c-5.212-1.047-9.974-3.863-14.5-6.503-4.451-5.362-8.426-11.624-16.027-12.692-3.366-.471-10.963-1.145-12.708 2.644-1.644 3.576 3.96 8.743 6.088 11.105 1.76 1.953 3.591 3.856 5.418 5.761 2.648 4.168 7.263 8.62 10.994 12.796 3.118 5.318 6.243 15.158-4.79 12.507-4.897-1.176-13.045-9.257-18.45-6.001-2.195 1.318-3.828 4.62-3.347 7.006.818 4.055 6.476 5.032 9.563 7.293 6.03 4.414-3.413 9.888-5.922 13.024-2.098 2.628-1.578 6.988-1.066 10.069a7.955 7.955 0 00.6 1.95 27.526 27.526 0 01-4.176 7.88c-7.884 9.524-22.142 5.706-32.054 11.593-6.992 4.158-3.995 13.01 3.117 14.915 4.142 1.111 9.501.454 12.786 3.43 3.269 2.962.74 6.894-2.013 9.002-6.282 4.81-15.166 7.043-22.565 10.02-4.91 1.974-12.351 4.657-14.162 9.825-1.769 5.041 4.781 9.491 9.446 10.179 8.559 1.266 18.164-5.036 25.164-8.58a81.84 81.84 0 0114.95-6.304 17.424 17.424 0 018.45-.39c.95.209.282 3.936.639 4.943 1.474 4.13-.264 9.862-1.144 13.954a65.724 65.724 0 01-5.278 15.93c-1.508 2.975-5.735 4.421-8.647 6.04a53.74 53.74 0 00-9.385 6.165c-6.604 5.761 4.72 7.173 8.993 7.418a27.655 27.655 0 0012.642-1.856c3.277-1.41 5.297-4.731 9.268-3.426 6.553 2.154 12.588 8.257 17.152 12.77 5.01 4.951 11.85 13.706 9.187 20.894-2.952 7.954-11.471 13.438-13.872 21.785-1.663 5.776 2.664 12.931 10.21 11.475 3.708-.717 6.485-3.046 9.277-5.253a23.752 23.752 0 015.184-3.334c3.021-1.321 9.482 1.675 9.59 4.966.078 2.167-.825 4.245-1.52 6.371-.422.422-.837.85-1.21 1.303-.252.297.05.524.369.575.112.018.205.05.318.07a9.18 9.18 0 00-.233 2.397c.182 3.864 4.041 5.196 7.64 5.657a1.612 1.612 0 001.454-.667c.97 3.246.783 7.107.38 10.793-.504 4.707-2.718 12.455 1.803 16.118 4.665 3.783 14.344.214 18.637-2.334 5.69-3.375 7.081-9.216 8.198-14.9.59-2.97 1.264-6.28 5.43-5.926 6.87.588 14.413 4.878 19.959 8.27 11.63 7.107 21.518 16.833 35.486 20.13 6.155 1.451 18.998-1.546 13.5-9.352-1.075-1.53-2.708-2.746-3.944-4.164-2.595-2.96 1.872-7.34 4.195-9.305 5.232-4.426 16.167 6.56 20.01 8.988 4.293 2.714 9.047 5.147 12.62 8.698 2.527 2.523 2.713 6.178 3.179 9.395 1.314 9.096 2.296 23.024 12.316 28.059 5.829 2.93 16.33 5.339 19.707-1.81 4.1-8.684-3.199-17.272-6.542-25.073.4-.19.652-.486.485-.818-4.343-8.696-3.998-18.35-7.116-27.355 7.609-.608 16.454 7.362 22.193 10.766 4.82 2.862 10.665 5.768 16.431 3.6 5.588-2.102 6.825-8.37 5.103-13.027-2.31-6.25-8.194-10.873-9.877-17.39-2.772-10.75 15.384-15.214 23.675-16.861 8.369-1.662 17.497-3.007 24.144-8.4 6.546-5.312 11.715-13.421 8.725-21.513-2.885-7.807-10.881-12.09-5.635-21.012.508-.862-1.008-.986-1.842-.572 1.9-3.907 5.154-6.53 10.467-8.3.896-.297 1.772-.599 2.64-.902 8.49 2.715 16.106.54 22.721-5.241 5.352-4.678-1.303-8.352-5.782-10.145z"/><path class="cls-1" d="M134.403 111.193c4.382-.45 6.612-3.142 8.179-6.71a9.641 9.641 0 00-.353-8.723c.225.12.438.248.682.358.648.297 2.847-.579 1.908-1.01-7.143-3.275-8.023-10.327-12.006-15.93-3.505-4.924-9.687-9.155-16.252-9.588-13.274-.872-9.024 16.89-5.386 22.723 4.021 6.445 13.417 19.887 23.228 18.88zM274.713 68.16a26.476 26.476 0 0017.668-2.834c6.038-3.622 2.839-8.65-1.873-11.841a1.706 1.706 0 00-1.249-.018 16.8 16.8 0 00-7.484-1.734 14.258 14.258 0 00-12.11 6.23c-3.378 4.964-.885 9.006 5.048 10.197zM244.986 80.328c4.84 1.352 11.494-1.385 13.84-5.37 3.09-5.252-3.917-7.992-8.415-8.084-.617-.015-1.753.608-1.598.932a9.533 9.533 0 00-6.503 3.985c-2.06 3.067-1.443 7.385 2.676 8.537zM390.934 85.22c4.812-1.292 9.074-5.502 6.069-10.12a6.825 6.825 0 00-1.322-1.5c.03.02.065.041.096.06.757.522 2.901-.47 1.854-1.18-6.453-4.41-15.422-3.6-19.106 3.47a8.536 8.536 0 00-.95 3.36 6.17 6.17 0 00-.559 1.393c-1.71 6.56 10.242 5.502 13.918 4.516zM432.226 204.822c4.254-.46 9.066-2.357 11.792-5.461 2.048-2.327 1.203-4.308-.605-5.824.082-.089.125-.17.047-.238a10.664 10.664 0 00-5.049-2.366c-.015-.004-.031-.012-.054-.018a.826.826 0 00-.167-.03 11.33 11.33 0 00-5.968.705 10.766 10.766 0 00-6.216 6.057 7.344 7.344 0 00-1.04 2.42c-.988 4.266 3.669 5.145 7.26 4.755zM456.726 378.153c-2.326-1.99-6.421-1.68-9.287-1.34a1.497 1.497 0 00-1.23.792 9.308 9.308 0 00-1.252.35c-3.075 1.12-4.444 3.478-5.041 6.351-.043.19.07.294.24.38 5.127 2.637 13.371 3.617 17.094-1.656a3.5 3.5 0 00-.524-4.877zM394.195 380.493c-4.044-5.942-13.274-9.067-20.63-7.518-9.377 1.974-7.465 13.55-2.319 18.554 4.828 4.698 13.332 3.418 18.726.405 5.274-2.94 5.949-7.26 3.537-10.924.442-.17.776-.385.686-.517zM230.036 407.285c-12.715 3.698-6.608 17.626-14.588 24.538-3.386 2.93-15.442 9.065-7.233 13.244 20.01 10.187 24.718-20.138 22.554-33.622.202-1.247.423-2.494.625-3.741.092-.599-.993-.526-1.358-.42zM140.732 411.593c-.105-.046-.21-.09-.318-.135a6.52 6.52 0 00-.69-.295 3.143 3.143 0 00-.237-.086c-.271-.107-.546-.215-.822-.31a1.406 1.406 0 00-.6.01 8.965 8.965 0 00-1.219-.074 12.159 12.159 0 00-10.078 5.32c-3.261 4.867-2.812 14.545 4.983 15.048 5.592.363 11.502-3.009 14.534-7.129 4.037-5.488-.252-9.935-5.553-12.349zM97.994 311.231c-.95.225-1.094.951-.69 1.36a14.46 14.46 0 00-8.857 8.305.672.672 0 00.469.92c9.05 2.2 18.447 1.027 22.794-7.384a.627.627 0 00-.237-.801c-4.42-3.804-7.887-3.712-13.48-2.4zM102.814 339.496a12.4 12.4 0 00-9.222 1.92 11.088 11.088 0 00.904-2.442c.225-.98-2.207-.664-2.404.212-.997 4.426-6.12 8.469-9.28 11.697-3.65 3.731-7.496 7.384-10.529 11.568-4.828 6.659 4.638 8.287 9.815 5.08 8.237-5.109 16.567-12.703 22.884-19.713 1.99-2.208 1.307-7.54-2.168-8.322zM73.214 166.135c4.037.87 14.27 2.251 13.81-3.968-.292-3.951-4.526-5.654-9.09-6.044-4.46-1.67-10.436-2.287-13.515.182-6.5 5.204 4.61 8.926 8.795 9.83z"/><path d="M279.182 195.478a34.736 34.736 0 00-29.18 15.705 34.737 34.737 0 00-29.178-15.705 35.093 35.093 0 00-35.049 35.06c0 17.552 11.058 35.904 31.979 53.078a183.98 183.98 0 0031.808 20.805 1.003 1.003 0 00.879 0 183.966 183.966 0 0031.806-20.805c20.921-17.173 31.978-35.525 31.978-53.079a35.089 35.089 0 00-35.043-35.059z" fill="#fff"/></svg>
