<svg id="Layer_1" data-name="Layer 1" xmlns="http://www.w3.org/2000/svg" viewBox="0 0 500 500"><defs><style>.cls-1{fill:#5ec7e0;}.cls-2{fill:#fff;}</style></defs><title>splash</title><path class="cls-1" d="M462.7993,253.97241c-2.9682-2.76244-9.23405-1.7086-12.85179-1.31146-6.65153.73185-13.23079,2.19592-19.95261,2.21654-6.08833.01888-11.08862-2.15449-11.61629-8.38135-.52361-6.17772,6.59793-11.01006,11.07767-14.31627,4.49941-3.32144,15.70116-9.6404,7.84661-15.15025-5.74122-4.025-13.87444-5.06742-20.60316-6.74038a23.12377,23.12377,0,0,1-3.974-1.24017l-.12-10.21983c.0914-.61141.16066-1.22495.20148-1.84773.25388-.35956.49172-.69446.70114-1.00123.04345-.064-.27685-.08459-.66255-.0526-.03575-3.35516-1.16421-7.32771,1.46076-10.05989,1.7922-1.86873,5.5042-2.09823,7.83666-3.38156,2.51406-1.38122,4.00364-6.3548,4.48177-8.88948a6.71655,6.71655,0,0,0-2.44461-6.44884c-4.799-4.23018-13.38657-4.72694-19.37152-6.49007-7.42823-2.18475-17.10851-8.21024-17.58946-16.34513-.35909-6.11567,5.70344-11.92843,8.3286-17.12958,3.44916-6.84019,2.47831-14.17541-1.0403-20.82928-5.12236-9.68356-14.2502-.38384-18.73581,4.56893-4.2228,4.66123-11.42578,15.38148-19.065,13.78579-6.46713-1.35482-10.56115-8.70681-9.45036-14.50646,1.10084-5.7432,4.71269-10.9405,6.117-16.68,1.03442-4.21881,3.77069-15.59228-4.537-13.479a12.98049,12.98049,0,0,0-7.16338,4.33558,17.295,17.295,0,0,0-5.85922,6.57871c-2.16087,3.74286-4.77424,10.12-10.68587,8.61663-4.5957-1.16868-8.79758-4.86259-12.16854-7.862-2.51-2.23928-5.1451-4.71942-5.754-8.03508-.67249-3.6469.836-7.43677,2.41393-10.69038,3.64841-7.53273,9.50967-14.05672,14.47624-20.81405,3.72986-5.0734,8.50918-11.366,7.83871-17.89553a8.28589,8.28589,0,0,0-9.241-7.115c-4.86257.61527-8.56177,5.02792-11.29985,8.45091-4.86055,6.0781-8.53394,13.02755-12.20327,19.78488-2.96333,5.4609-5.53588,10.8559-10.12366,15.26856A79.74856,79.74856,0,0,1,257.17936,88.957c-10.34463,3.07113-24.97179,2.8-30.61673-7.65509-3.62587-6.71591-1.17823-15.53948-.32132-22.60551.91743-7.57223.35808-14.15268-5.56471-19.69836-2.43567-2.27878-5.94231-5.2896-9.56716-3.59969-3.10814,1.44885-2.49517,6.79877-2.34548,9.38046.36011,6.20046,1.74449,12.36507,3.04071,18.43758.836,3.91975,1.80887,7.832,2.41189,11.793.32335,2.12463-.33919,3.68081-1.321,5.65841-1.63928,3.30063-4.99339,6.24747-9.08721,6.29276-2.82644.032-5.24442-1.703-7.20989-3.408-7.10691-6.16269-3.05371-15.69942-4.5045-23.54084-.75475-4.08142-6.30748-10.30827-11.21353-9.63269-3.52167.48366-4.194,3.455-4.51141,6.41878-.63674,5.93685.03575,11.4993-1.51924,17.40243-1.3925,5.28016-6.64769,7.69459-9.8777,11.86079A26.47023,26.47023,0,0,0,161.513,92.3536a99.98123,99.98123,0,0,0-10.564,11.31875c-2.69157,3.22355-5.59133,7.10939-10.95579,5.61332a22.239,22.239,0,0,1-7.30007-4.25465c-2.86117-2.29766-4.61053-5.77326-6.71695-8.6542-3.43048-4.68377-7.67216-5.0732-12.43339-1.831-6.131,4.17372-8.65581,10.16144-7.14936,17.05636,1.39128,6.37157,5.30678,11.94539,7.11869,18.19286,2.863,9.85467-8.49027,11.9793-16.5849,12.25023-4.47871.15435-11.31264-1.71612-13.99325,2.91678-1.62647,2.81119-.73484,8.14048.76449,10.74106,1.9805,3.44168,6.01989,5.41369,8.14113,8.833a9.26268,9.26268,0,0,1,1.03645,2.258l-8.31763,8.3457c-5.04294-.37633-10.06517-1.1893-14.81056,1.74618-8.80753,5.44587-9.112,17.03574-10.99438,25.76509-.91033,4.22093-2.47628,10.09766-7.05025,11.96986-3.03462,1.2421-6.38873,1.73693-9.4987,2.78884-4.40844,1.49048-8.82154,4.03825-5.5241,8.739,4.42509,6.30759,11.59842,3.73149,18.26276,2.98057,5.72924-.6434,10.59081-.02447,12.68139,5.69618,1.78206,4.86991-3.67745,7.9316-7.333,9.979-4.88817,2.738-11.8194,8.69948-10.22481,14.72671.8827,3.33628,3.38295,6.319,4.5303,9.62325,1.571,4.53887,1.60272,9.22072,1.72357,13.927.14482,5.57748,4.72873,9.62884,8.96636,12.98785,5.87609,4.65545,12.21221,5.52295,14.28187,13.41505,1.61165,6.15151.20534,12.19011.69523,18.3736a10.917,10.917,0,0,0,3.2231,6.85889c.08246.3218.16472.64359.23906.96346,1.88829,7.99-.01381,13.65226-2.44764,21.17-2.61114,8.05011-9.53749,30.1683,7.0671,28.92255,3.23915-.2426,6.40376-2.77361,8.86805-4.53116,2.052-1.45849,4.03147-3.00716,6.06944-4.48993,1.01858-.73955,5.40508-4.3562,6.5177-3.97428q4.332,1.49317,8.66271,2.98635c2.891,1.001,4.458.48558,7.33988-.766,5.94738-2.57977,10.91395,3.68447,10.24268,8.50756-.51183,3.66751-3.21417,7.12615-5.284,10.14082-3.25093,4.72694-8.511,10.97634-5.74914,16.92648a.91976.91976,0,0,0,1.11688.35744c9.24685-2.34834,13.64411-9.85853,19.82466-16.074,3.1835-3.20081,12.7736-8.79159,17.21737-4.91134,2.91783,2.55163-.32314,9.13786-1.425,11.74595-2.21651,5.24624-18.66634,25.41882-4.915,26.29,7.00251.44223,9.99468-4.20185,12.827-9.49338,1.99735-3.73534,3.95693-7.56472,7.45788-10.25008,3.54929-2.71908,10.41715-3.12547,14.32939-.80526,4.95682,2.94492,2.87519,11.27732,2.26627,15.68824-.65868,4.76451-1.71077,10.41175,1.13354,14.7323,4.15435,6.31145,15.12192,4.48993,19.536-.30677,3.607-3.914,5.21457-9.57623,7.47372-14.64385a38.46565,38.46565,0,0,1,7.15444-6.64827c3.98273-3.03529,3.63358.68117,3.18837,3.55652-.40256,2.62312-1.20889,5.2632-1.24667,7.9316-.05443,3.502,1.90311,9.57623,6.54045,9.34115,4.341-.22391,7.99652-4.5144,10.69095-7.26373,5.2434-5.34972,10.07613-11.42608,16.68989-15.3439,4.47181-2.65125,9.39776-2.6343,13.19789,1.13477,2.6926,2.66648,4.48074,5.62642,8.8057,5.31407,3.21721-.23142,5.95733-2.32772,8.49312-4.00049,5.38822-3.55094,12.25588-.51564,17.98715.04316,6.31723.61719,13.93577-4.9942,14.03408-11.06478.03067-1.89667-.4314-3.724-.07251-5.61506a3.70646,3.70646,0,0,1,1.26556-2.309,10.13838,10.13838,0,0,1,3.38073-.6567,15.53866,15.53866,0,0,1,7.46579,3.69391c3.53854,3.66559,4.69482,9.46717,5.45058,14.213.02275.14105.247.173.352.19558,2.95744.56266,8.31966,1.53749,10.27538-1.54481,1.85051-2.91678-1.426-7.81869-2.7917-10.32157-2.52685-4.64408-5.5696-9.11339-7.3547-14.08485-1.54118-4.30745.5683-9.68356,6.06538-6.54865,5.163,2.94126,9.9492,6.45269,15.10709,9.41264,3.88564,2.22425,8.96737,5.32351,13.73551,4.89073,4.38345-.39907,5.34252-3.74093,5.04111-7.45739-.68528-8.46613-5.12743-14.07945-14.00341-15.06931-4.1186-.45533-7.81473-.82781-10.85058-3.81242a12.6344,12.6344,0,0,1-3.17842-4.0608c-.81222-2.02847,3.5237-1.40569,4.46185-1.32842,3.42743.27459,5.82348.56073,8.27193.205a.66382.66382,0,0,0,.08937-.01137,18.09658,18.09658,0,0,0,5.93153-2.12443c4.3398-2.32772,8.11635-5.58326,12.09217-8.40967a66.87829,66.87829,0,0,1,14.11045-7.15428c6.70213-2.6948,8.59427-6.62207,7.57568-13.07649,5.57752,1.44153,12.31336,1.45849,15.9967-3.32317,2.20858-2.86591,1.83466-7.8262.43546-10.886-1.14755-2.50462-4.46388-2.63642-6.89751-2.8189-5.09067-.37267-8.35744-2.8848-11.93759-6.11374-1.67605-1.513-4.75231-4.5539-.53154-4.22093,5.9683.46863,11.82245,2.3522,17.70138,3.3779,4.11677.71874,7.59275.94824,10.93385-1.74252,3.19061-2.56878.46024-5.58326-1.92972-7.5308-6.79941-5.54761-25.91908-13.037-20.06188-24.0245l.012,1.2683a17.44385,17.44385,0,0,1-.90748,2.147c-.10622.20522,1.6403.09789,1.86452-.33683,1.82776-3.56211,1.78308-7.43292,4.11962-10.9141,2.80756-4.18894,7.51028-4.84178,12.3034-4.14925,6.41758.92955,12.38486,3.6731,18.84893,4.40707,3.85783.4403,8.522-.30484,11.13412-3.30255C463.51729,263.7633,466.35367,257.29,462.7993,253.97241Z"/><path class="cls-2" d="M279.18155,195.478A34.73612,34.73612,0,0,0,250.002,211.18261,34.737,34.737,0,0,0,220.82351,195.478a35.09266,35.09266,0,0,0-35.04825,35.05939c0,17.55249,11.05769,35.9043,31.97865,53.07892a183.97906,183.97906,0,0,0,31.80845,20.80445,1.00255,1.00255,0,0,0,.87833,0,183.96568,183.96568,0,0,0,31.80643-20.80445c20.921-17.1736,31.97763-35.52541,31.97763-53.07892A35.089,35.089,0,0,0,279.18155,195.478Z"/></svg>