<svg xmlns="http://www.w3.org/2000/svg" viewBox="0 0 500 500"><path d="M401.954 340.397c-17.406-8.467-30.208-26.604-23.379-46.037q11.154-.034 22.31-.076c.5 0 3.738-1.007 2.531-1.918a77.431 77.431 0 00-19.51-10.925c-3.106-1.152-6.286-1.863-9.448-2.8q-1.927-.633-3.851-1.268l1.182-4.679a7.164 7.164 0 002.037-4.278 4.008 4.008 0 001.722-.75c3.109-3.39 4.092-4.962 4.308-9.898.39-8.837.522-18.82 8.263-22.896a24.9 24.9 0 004.21-.972 14.573 14.573 0 001.724-.745 24.197 24.197 0 012.12-.175c.837-.027 2.455-.328 2.672-1.375a17.887 17.887 0 00.376-4.17c.706-2.652-.273-5.61-3.723-8.13-6.13-4.478-13.956-1.552-20.06 1.316-6.85 3.222-19.539 8.803-22.446-1.199-1.235-4.254 1.413-9.486 4.125-12.474 5.785-6.365 14.842-7.362 21.494-12.352 6.818-5.109 7.4-14.356-1.661-17.935-6.204-2.451-13.64.547-18.57 4.374-5.097 3.953-7.964 12.037-13.057 15.336-3.6 2.336-8.813 2.131-10.563-2.33a9.421 9.421 0 01-.475-3.522c2.977-9.423 12.919-18.719 15.488-27.25 2.077-6.887 1.785-13.998 5.196-20.544 3.333-6.41 8.273-11.801 12.288-17.767 5.267-7.826 10.928-21.707 1.196-28.84-5.494-4.029-13.193-2.378-18.73.738-12.457 7.01-12.127 22.756-15.69 34.906a38.442 38.442 0 01-3.54 8.707c-1.06 1.809-3.062 5.221-4.645 5.91-1.757-.108-3.51-.218-5.27-.329q-6.671 2.234-5.026-2.538c-.845-5.115 11.02-11.998 13.842-16.773 6.388-10.809 8.117-28.277 7.982-40.554-.103-9.061-6.51-13.576-15.038-10.828-11.17 3.603-5.966 13.461-5.934 22.287.035 8.224-5.647 14.45-10.045 20.782-4.287 6.19-7.623 20.028-14.377 23.734l-5.008.877q-5.324 3.507-5.498-1c-1.175-2.716.135-1.428.156-4.681.025-2.66.43-5.106-1.487-7.335a7.328 7.328 0 00-7.148-2.244 7.812 7.812 0 00-4.26 2.114c-1.217 1.387-1.09 2.87-1.486 4.53-.21.861-.416 5.983-1.977 7.31-4.398 3.737-9.686 3.171-13.026-.663-10.488-12.048-11.553-29.406-11.83-44.627-.333-17.945-.266-35.776 5.044-53.09 2.271-7.418 9.405-25.984-4.454-24.737-7.628.688-13.19 7.017-13.977 14.374-1.005 9.457 2.69 18.923 1.977 28.53-.71 9.598-3.35 18.927-4.724 28.433a55.275 55.275 0 002.41 27.479c1.437 4.082 4.876 11.417 1.373 15.331-2.761 3.09-12.699 4.24-16.546 3.568a15.66 15.66 0 01-6.939-2.653c-5.814-4.66-5.753-17.65-16.191-12.351-4.554 2.31-6.822 7.65-9.668 11.578-1.853 2.548-3.614 4.12-3.656 7.349-.028 1.767.844 3.612 1.721 5.471q-3.955.757-7.915 1.505a56.198 56.198 0 00-1.235-3.24c-.71-.875-.98-2.456-1.69-3.347a9.244 9.244 0 00-4.187-3.207 9.519 9.519 0 00-10.953 3.656c-2.516 4.024-.88 7.238 1.586 10.596 1.264 1.718 6.538 4.988 6.56 7.299l-10.755 4.077a74.226 74.226 0 00-2.307-2.896c-3.198-2.511-5.444-4.912-9.235-6.77-3.226-1.583-10.19-5.375-13.845-2.02-2.91 2.67-1.033 5.664 1.398 7.802 2.58 2.274 6.364 3.312 9.462 4.624 2.41 1.026 5.367 1.941 7.603 3.35.749.469 1.505.938 2.254 1.407q9.582 7.876-2.403 7.067c-7.528 1.427-6.336 2.017-9.65-3.284-.984-1.57-1.772-3.262-2.748-4.837-2.005-3.249-4.365-6.556-7.808-8.436-6.36-3.476-20.003.33-12.074 8.617 1.852 1.932 14.658 7.135 12.784 10.915-1.448.633-2.89 1.266-4.34 1.895q-4.207 4.346-6.095-.39c-1.253-1.166-2.211-3.343-3.3-4.746a49.087 49.087 0 00-19.163-15.104c-3.907-1.684-9.132-3.626-13.128-.918-4.238 2.868-4.018 8.355-1.317 12.159 4.18 5.905 13.224 7.976 19.439 10.59 5.295 2.228 10.843 4.515 14.821 8.851a16.102 16.102 0 014.458 8.712c1.026 7.343-5.068 14.684-14.122 9.805-5.107-2.752-9.395-7.993-15.922-4.995-4.021 1.846-5.203 5.332-2.946 9.22 3.993 6.869 14.591 6.14 21.274 6.523 7.376.42 13.104 2.49 17.768 8.57 1.14 1.484 2.15 2.954 3.19 4.386a19.249 19.249 0 00-1.235 15.053c-3.787-.515-7.474-2.742-11.247-.596-4.511 2.563-4.461 8.53.479 10.695.472.21 5.53.417 5.565.45 4.877 4.446-5.068 6.73-6.864 8.6-3.272 3.4-9.022 10.982-.745 13.192a8.028 8.028 0 003.897-.303c3.993-1.265 2.616-2.295 8.276-2.249 12.94.108-2.25 10.353-5.568 13.788-1.7 1.767-3.613 3.654-3.869 6.256-.614 6.205 5.061 6.98 9.69 5.893 2.246-.527 3.907-2.25 6.019-2.801 6.633-1.736 8.915-.082 11.293 1.984a29.24 29.24 0 011.221 9.232c0 2.302-.57 4.57.2 6.804.84 2.431 2.342 4.452 5.067 4.909a7.847 7.847 0 006.155-2.059c1.49-1.195 2.023-3.189 3.379-4.35 5.018-4.302 9.38-1.659 8.592 5.355-1.341 11.953-19.971 12.734-19.91 25.336.035 8.073 8.41 9.536 14.771 7.815 2.726-.736 5.143-2.22 7.812-3.11 3.436-1.153 7.425-.742 10.658-1.973 2.41-.919 3.446-1.25 5.09-3.417 1.86-2.447 3.684-14.148 9.22.814.927 2.507-1.518 6.864-1.504 9.723.014 3.047.54 6.03 2.903 8.16 6.112 5.506 12.326-.895 17.32-4.234a8.906 8.906 0 016.623-2.51 11.166 11.166 0 011.892-1.427 16.036 16.036 0 002.065 6.568c1.647 3.222 4.323 6.036 5.527 9.476 1.6 4.59.787 9.409-.004 14.09-3.07 18.164-5.714 36.379-7.624 54.709-.72 6.952-5.977 25.47 2.701 29.632 6.747 3.23 13.374-4.507 16.28-9.425 6.67-11.262 6.148-23.236 2.808-35.454-2.439-8.929-4.884-17.137-4.085-26.6.717-8.54 3.354-16.844 6.271-24.85.674-1.848 1.324-4.691 2.41-6.263.376-.93.753-1.866 1.125-2.797l7.453.782c3.73 3.198 1.37 10.43.256 14.352-1.8 6.34-3.013 12.442-2.07 19.035.828 5.751 3.958 13.908 11.202 10.251 8.898-4.49 4.646-17.641 2.893-24.65-1.63-6.511-4.735-15.71-1.754-22.164.508-1.09 10.187-8.006 11.752-7.255 1.189.57 2.073 4.12 2.378 5.312.951 3.735.114 7.805.312 11.65.735 14.345 19.084 44.435 36.23 29.328 8.767-7.719 5.016-20.835 2.996-30.55-1.231-5.938-5.924-17.146-3.908-22.932 1.665-4.802 6.868-7.869 11.436-9.065a32.833 32.833 0 006.637-2.095c2.477-1.272 3.397-3.514 5.395-4.897 6.562-4.545 10.062 2.958 15.492 5.728 11.926 6.08 26.672 2.167 37.718 10.547 8.802 6.68 13.66 18.47 25.817 19.595 6.704.621 15.371-2.437 15.151-10.532-.351-13.172-19.577-15.056-28.333-19.318zM356.13 60.448a8.117 8.117 0 004.813-5.657c.798-2.817 1.44-6.868.127-9.631-1.732-3.64-9.139-3.649-9.203.889a19.133 19.133 0 00-3.091 5.157c-1.902 5.043 1.228 11.57 7.354 9.242zm93.685 128.532c-.351-6.315-6.275-6.678-11.567-5.548a16.376 16.376 0 00-15.85 4.866c-6.212 7.13 1.642 12.162 8.752 12.076 5.714-.072 19.087-3.745 18.665-11.393zm13.483 108.05a4.542 4.542 0 00-2.527 1.323 35.774 35.774 0 01-10.193-1.672c-1.991-.635-3.986-1.82-6.062-2.146a8.748 8.748 0 00-6.25 1.05c-8.685 6.082 9.32 8.54 12.028 9.073 5.342 1.05 18.431 6.435 23.137.78 5.441-6.537-6.172-8.612-10.133-8.407zM178.943 466.427c-3.855 2.72-5.324 10.477-1.32 13.768 4.18 3.437 10.313-.845 11.488-5.164a10.937 10.937 0 00-.028-5.56c.628-.3 1.064-.72.908-1.145-1.611-4.406-7.765-4.223-11.048-1.899zM83.43 254.229a52.11 52.11 0 00-6.197-.13c-2.155.09-5.484-.257-6.698 1.966-3.148 5.765 6.826 7.352 10.062 7.997 3.837.766 11.89 2.51 12.792-3.415.87-5.695-5.682-6.888-9.96-6.418z" fill="#5ec7e0"/><path d="M279.182 195.478a34.736 34.736 0 00-29.18 15.705 34.737 34.737 0 00-29.178-15.705 35.093 35.093 0 00-35.049 35.06c0 17.552 11.058 35.904 31.979 53.078a183.98 183.98 0 0031.808 20.805 1.003 1.003 0 00.879 0 183.966 183.966 0 0031.806-20.805c20.921-17.173 31.978-35.525 31.978-53.079a35.089 35.089 0 00-35.043-35.059z" fill="#fff"/></svg>
