<svg id="Layer_1" xmlns="http://www.w3.org/2000/svg" viewBox="0 0 500 500"><defs><style>.cls-1{fill:#5ec7e0}</style></defs><path class="cls-1" d="M132.817 105.89c1.84-1.49 2.745-3.69 1.47-5.785-1.92-3.139-6.724-4.448-10.07-5.394a4.228 4.228 0 00-3.016.53c-.159.051-.309.104-.44.16a5.22 5.22 0 00-2.986 2.824 19.65 19.65 0 00-1.139 2.784c-.684 2.188-.741 4.946 1.235 6.551 4.035 3.278 11.332 1.26 14.946-1.67zM167.37 84.12c8.774.705 7.165-9.51 3.67-14.414.387-1.085-1.043-1.985-2.624-1.61-1.62.062-3.516 1.066-3.242 2.124-4.664 4.529-6.555 13.195 2.195 13.9zM248.21 64.522c7.461-4.098 8.596-14.621 3.477-20.728.278-.467.114-.902-.889-1.114-.075-.017-.133-.014-.208-.029a12.155 12.155 0 00-1.97-1.509c-1.399-.84-5.43.844-4.453 2.141-6.526 3.454-5.07 16.055.052 21.41.97 1.015 2.97.389 3.991-.171zM284.787 62.264c5.293-1.003 8.78-4.334 8.949-9.706.177-5.807-2.613-12.004-8.763-13.772-1.219-.352-5.203 1.301-4.388 1.95-8.406 5.691-10.116 24.245 4.202 21.528zM380.534 147.108a14.513 14.513 0 0017.374-12.033c.235-1.333-1.325-1.66-2.799-1.34a2.803 2.803 0 00-1.304-.141c-6.816 1.055-14.09 4.674-14.358 12.145a1.32 1.32 0 001.087 1.369zM34.78 306.384c-.516.345-.587.725-.381 1.007a10.544 10.544 0 00-4.272 8.757c.009 7.63 7.11 11.157 14.082 8.663 6.443-2.298 7.898-10.125 6.154-15.813-2.249-7.34-10.282-6.177-15.584-2.614zM48.49 272.494c3.356-3.948-1.956-5.95-5.655-6.711a.296.296 0 00-.096-.095c-4.91-2.497-11.872-1.497-16.043 1.986-1.455 1.216-2.088 3.095-1.015 4.727 1.556 2.374 5.172 3.471 7.835 4.086 4.776 1.098 11.725-.172 14.974-3.993zM64.161 156.407c2.484-1.626 1.92-3.926-.062-5.676a20.402 20.402 0 00-3.164-2.224 1.403 1.403 0 00-.348-.148.916.916 0 00-.536-.705 4.019 4.019 0 00-3.647.405c-2.217 1.247-6.36 3.625-5.745 6.666.453 2.235 3.706 2.865 5.614 3.121a12.091 12.091 0 007.888-1.44zM87.652 321.972a4.938 4.938 0 00-.178-2.894 11.394 11.394 0 00.544-1.78c.074-.352-.102-.543-.457-.648a26.958 26.958 0 00-2.628-.628 8.255 8.255 0 00-1.886-.911c-3.596-1.18-7.599-.343-11.14 1.102-.598.179-1.224.37-1.85.58a16.264 16.264 0 00-10.568 5c-2.91 2.13-4.458 4.595-2.896 7.176.215 3.778 3.286 6.714 7.856 6.98 4.6.267 9.286-1.472 13.258-3.548 4.298-2.248 8.783-5.624 9.945-10.43zM104.702 341.733c-.226-.058-.46-.095-.687-.142-.199-.169-.383-.345-.6-.508-.746-.568-2.17-.37-3.234.163-6.875.225-14.082 4.445-18.675 8.664-5.54 5.093-6.202 14.403 2.286 17.206 12.338 4.074 30.381-13.39 21.804-23.941.37-.57.23-1.139-.894-1.442zM413.352 383.58a3.699 3.699 0 00-2.696 1.381.083.083 0 01-.017.025 1.372 1.372 0 00-.127.221 3.062 3.062 0 00-.426.29c-1.5 1.47-3.977 3.957-3.076 6.283a2.536 2.536 0 00.455.74c-.165.374-.32.751-.452 1.129-1.42 4.259 3.175 4.833 6.375 3.772 3.806-1.26 7.99-4.892 8.534-8.913.623-4.616-5.178-5.156-8.57-4.928zM435.722 397.55c-.41-.82-1.61-.891-2.575-.714-.03-.047-.041-.092-.078-.142a2.943 2.943 0 00-3.502-.433c-2.554 1.465-6.446 3.797-6.51 7.09a3.633 3.633 0 001.48 2.986c.032.22.032.427.085.657a1.55 1.55 0 001.085 1.006c3.57.915 7.977.798 10.64-2.024a3.218 3.218 0 00.64-3.897 10.295 10.295 0 00-1.265-4.53zM391.52 372.2a2.233 2.233 0 00-1.208-.12c-7.028-3.929-11.47-15.46-20.997-11.934-12.604 4.663-1.103 17.925 4.17 23.309 6.567 6.708 17.269 11.584 26.535 7.12 10.977-5.289-3.297-15.619-8.5-18.375zM474.203 235.487a6.695 6.695 0 00-2.138-2.286c-1.168-.803-4.322.28-4.886 1.24a3.143 3.143 0 00-1.84-.33 2.532 2.532 0 00-.732-.011c-3.031.439-7.175.838-9.404 3.156a2.03 2.03 0 00-.187 2.871c-1.297 1.579-1.494 3.46 1.02 5.227 4.486 3.158 10.31 2.171 14.61-.834 2.865-2.008 4.753-5.108 4.007-7.927.339-.42.297-.835-.45-1.106z"/><path class="cls-1" d="M439.121 306.723c-6.56-1.934-18.452 3.685-23.758-.298-5.003-3.755-6.592-14.077-6.368-19.638.28-6.971 9.295-9.04 14.747-10.817.375-.123 1.983-.919 1.583-1.558-6.55-10.579 6.386-7.476 13.324-9.708 6.147-1.976 5.67-7.737 1.707-11.242-3.895-3.444-9.35-5.046-13.432-8.301-7.583-6.047-5.72-17.355-4.958-25.392.034-.37.038-.707.059-1.064a30.302 30.302 0 012.505-1.133c3.68-1.47 4.122-5.057 3.024-8.377-3.389-10.25-21.088-10.93-27.459-19.33-1.748-5.554 9.138-10.27 15.225-10.935a16.13 16.13 0 007.414-2.884c4.42-3.468 8.199-10.376 3.552-14.906a15.575 15.575 0 00-7.157-3.72c-5.668-4.274-14.577-1.626-23.053-.08a80.373 80.373 0 01-10.635.545A27.34 27.34 0 00374.264 150a.195.195 0 00-.04-.007 24.296 24.296 0 01-5.555-10.248c-.17-.48-.763-.661-1.478-.674.022-14.9 12.541-30.24 4.134-45.352-.736-1.323-4.23-.217-4.919.733-8.854 12.221-21.737 26.106-37.244 12.41-10.399-9.18-1.405-20.105 5.717-27.414 9.328-9.58 23.27-19.558 20.511-34.311-.1-.533-1.13-.539-1.507-.528-23.4.861-27.003 34.143-38.089 48.557-7.073 9.2-9.327-.448-14.57-3.948a24.8 24.8 0 00-14.583-4.528c-4.831-.029-10.447-3.144-15.325-1.314a6.91 6.91 0 00-2.607 1.781c-3.779 4.236-6.924.096-8.928-4.222-.699-1.508-4.551-.038-5.113 1.036-5.351 10.265-31.68 17.373-37.64 6.143-2.269-4.274-1.84-11.193-2.426-15.858-.658-5.224-.292-21.264-9.414-18.137-4.025 1.383-5.316 7.69-5.83 10.997-.815 5.254 2.063 10.509 1.31 16.004-.887 6.459-8.613 10.683-13.445 14.14-6.484 4.64-8.478 11.18-10.642 18.337-2.99 9.912-17.063-12.321-17.62-13.372-2.644-4.977-5.38-9.225-10.001-12.712-1.129-.852-4.43-.026-4.948 1.276-2.508 6.3 1.654 12.525 4.487 18.09 6.502 12.758 3.203 24.3-15.975 21.737-10.316-1.379-17.488 9.46-21.052 17.88-5.108 1.175-15.717-6.062-16.293 5.704-.052 1.14 1.329 2.343 2.032 3.075 3.502 3.636 4.546 7.442 1.874 12.013-2.865 4.9-11.983 5.292-16.62 8.36-7.921 5.241 2.768 13.946 7.776 16.59a82.479 82.479 0 019.518 5.458c9.532 6.745-4.892 14.009-12.662 8.908-5.334-3.503-9.357-8.427-15.691-10.339-3.387-1.025-17.421 2.159-15.226 7.38 1.656 3.947 7.112 5.142 10.902 6.304 8.574 2.616 15.014 3.324 20.05 11.69 7.94 13.17-6.904 23-18.27 26.24-1.737.496-6.908 1.847-6.954 4.336-.097 5.317 7.989 8.478 12.615 9.335a19.012 19.012 0 003.42.16c3.424 5.404-3.556 17.086-1.623 23.01a4.305 4.305 0 003.074 2.318c7.675 1.336 11.456 5.336 9.863 13.44-1.705 8.647-4.124 11.664 2.897 18a73.409 73.409 0 008.997 7.315c-.294 8.61 11.684 5.225 17.34 9.86 3.935 3.228 3.213 8.676 5.206 12.851a5.46 5.46 0 00.905 1.352c.011.162.124.313.403.434.085.038.153.086.235.12a6.979 6.979 0 002.2 1.217c9.048 6.015 5.675 18.89 3.623 28.022-1.253 5.604-5.483 16.286.089 20.905 4.21 3.495 11.968-.022 15.347-2.68 1.602-1.268 2.986-3.508 4.182-5.1 4.6-6.13 13.26-6.631 20.052-8.48 6.344-1.726 14.24-5.63 17.532 1.94 2.34 5.384.83 12.422-.396 17.825-2.845 12.55-8.442 21.062-8.018 34.06.14 4.36-.019 16.162 7.294 15.072 8.777-1.306 7.179-10.858 6.186-17.027-1.139-7.041-3.714-14.46-.785-21.367a96.322 96.322 0 0112.198-20.62c5.347 6.794 9.778 20.804 10.842 27.857 1.31 8.681-6.646 26.035 7.614 28.954 4.895 1 8.483-3.99 10.077-7.486 2.18-4.779.886-11.278-.374-16.037-.898-3.38-2.364-6.686-3.438-10.021-3.186-9.893 19.52-19.184 23.178-10.747 2.344 5.41 3.893 16.665 10.05 18.748 4.193 1.42 9.773-1.326 12.316-4.364 4.7-5.616 3.786-16.107 5.07-22.844a35.57 35.57 0 011.77-5.871c.289-.766 5.19-7.919 8.333-8.025 1.574 4.88 2.99 7.28 8.47 7.313 9.59.054 16.785 10.374 26.463 12.508 11.19 2.467 21.055-10.525 14.46-19.663-4.013-5.564-6.192-16.427 3.322-18.768 2.082-.514 3.671-2.241 5.11-3.624 8.9-8.567-1.214-5.08.062-16.034q-.05-5.82 7.51-2.355c1.432 1.458 2.093 4.065 3.28 5.778 1.371 1.972 2.982 4.026 5.649 4.39 3.878.53 8.386.31 11.484-2.41 7.374-6.486 13.253-22.981 11.87-32.586-.992-6.918 13.31 1.284 16.28 2.83a121.27 121.27 0 0016.277 6.45c6.25 2.159 14.551 3.883 21.026 1.497 14.977-5.528 12.466-18.575-2.324-22.945z"/><path class="cls-1" d="M302.139 398.08c-.176-.053-.365-.073-.542-.116a10.572 10.572 0 00-1.634-1.414c-1.124-.768-4.046.204-4.534 1.362-.351.091-.7.19-1.005.29a10.177 10.177 0 00-1.073.526 10.917 10.917 0 00-3.42 2.239 5.135 5.135 0 00-1.136 1.8 4.086 4.086 0 00-1.28 4.047c.119 1.806 1.176 3.774 3.1 4.034a6.5 6.5 0 002.362-.215 8.19 8.19 0 005.796-.521 5.827 5.827 0 003.117-2.118 2.027 2.027 0 00.109-.274 9.426 9.426 0 00.777-1.01 6.477 6.477 0 00.077-7.123c.492-.573.461-1.174-.714-1.507zM362.79 395.164c-3.15-.654-6.485.575-9.043 2.263a1.902 1.902 0 00-.792 1.182 6.829 6.829 0 00-2.836 1.96c-1.679 1.18-3.501 2.832-2.614 4.616a7.133 7.133 0 002.659 2.527 2.264 2.264 0 00.824.774 4.008 4.008 0 00.778.253 9.749 9.749 0 011.292.978c.295.27 1.088.22 1.955.026a8.632 8.632 0 002.738.34 9.912 9.912 0 006.366-3.105c2.137-2.076 4.124-4.6 3.747-7.669-.295-2.413-2.893-3.693-5.074-4.145z"/><path d="M279.182 195.478a34.736 34.736 0 00-29.18 15.705 34.737 34.737 0 00-29.178-15.705 35.093 35.093 0 00-35.049 35.06c0 17.552 11.058 35.904 31.979 53.078a183.98 183.98 0 0031.808 20.805 1.003 1.003 0 00.879 0 183.966 183.966 0 0031.806-20.805c20.921-17.173 31.978-35.525 31.978-53.079a35.089 35.089 0 00-35.043-35.059z" fill="#fff"/></svg>
