<svg id="Layer_1" data-name="Layer 1" xmlns="http://www.w3.org/2000/svg" viewBox="0 0 500 500"><defs><style>.cls-1{fill:#5ec7e0;}.cls-2{fill:#fff;}</style></defs><title>splash</title><path class="cls-1" d="M432.20644,281.33795c-3.46685-1.391-7.10425-2.39389-10.61776-3.67148-5.30481-1.92792-6.45659-6.63876-4.98694-11.57024,2.6526-8.88022,16.19419-11.10844,18.73422-19.63792,1.14781-3.85947.12012-8.681-.50034-12.52177a53.684,53.684,0,0,0-5.07231-16.36164A45.191,45.191,0,0,0,420.15,205.77076c-4.12206-3.8239-10.73789-2.78909-14.639-6.63422-4.351-4.291-1.26813-10.50621,3.50557-12.69451,2.96274-1.3627,6.42562-2.0856,9.04328-4.02423,5.0878-3.76185,3.04791-13.46078-3.56-14.959-9.95441-2.25489-18.20668,7.63-28.28141,5.65529-14.63519-2.87237-.47314-24.50481,2.62918-30.89552,4.13377-8.49936,9.45427-17.1749,10.86595-26.5.77156-5.09533-3.93622-10.00286-9.54739-10.35633-6.09225-.3854-11.64545,2.83082-16.39194,5.94761-6.542,4.29441-12.31237,9.48373-18.77294,13.87213-5.84784,3.96925-12.413,6.61735-15.72859-1.1484-.08935-.23117-.163-.46941-.24441-.70167,3.38545.02758,4.66509-.13373,6.79789-3.559,1.79547-2.88925,2.81541-8.63309-1.175-10.56554-6.73575-3.25687-10.672-.986-12.74263,5.18315-1.8187,5.41777-11.85869-.23208-12.50636-4.45826-.71338-4.67545,2.74175-10.20046,4.46734-14.4232,2.77273-6.7743,6.94919-14.23,7.10823-21.55169.159-7.71694-8.9307-7.11271-14.75928-5.63043-8.9307,2.26977-8.18237,11.03931-7.70923,17.79057.42668,6.0621-.11635,11.00592-6.72423,14.01112-5.92925,2.69709-10.92412-4.38822-13.58824-8.06877-3.89333-5.37967-7.47256-13.24376-16.0971-10.849a10.18348,10.18348,0,0,0-4.63015,3.28263c-4.14946,4.65241-9.05876,4.56114-14.28237,1.414-5.02565-3.03441-14.96478-1.34673-20.17667.75484-6.18518,2.49241-10.0593,8.86353-15.6667,12.28516-2.40045,1.46467-11.25371,6.71152-14.02247,3.68927-1.52406-1.65411-.84542-5.21582-.84542-7.15335.01171-5.8636-2.1056-9.10813-7.43384-12.45445-4.39367-2.759-9.11694-1.22715-12.05644,2.39661-5.07608,6.25771-5.301,15.60771-8.64,22.66108-3.61412,7.63275-10.99381,9.52347-18.63316,12.96469-.225.10107-.89188.43766-.70961.77788.52337.94173,1.0392,1.95532,1.648,2.85114a30.35474,30.35474,0,0,1,2.02817,2.81649c-.61272.42441-1.22921.855-1.84585,1.28467a59.57306,59.57306,0,0,1-5.97575,3.82136,20.20369,20.20369,0,0,1-5.3477-.38812c-5.21189-1.04716-9.97387-3.86292-14.49938-6.50231-4.4518-5.36279-8.42674-11.62413-16.02741-12.6927-3.366-.47123-10.96284-1.14459-12.70788,2.64465-1.64418,3.57586,3.95945,8.74214,6.08828,11.10427,1.76053,1.9535,3.59094,3.85675,5.41739,5.76162,2.64863,4.16757,7.26329,8.61966,10.99381,12.7954,3.118,5.3187,6.24355,15.15844-4.78918,12.50762-4.89779-1.17671-13.04522-9.25692-18.45089-6.00168-2.1949,1.31824-3.82761,4.6212-3.34673,7.00638.81826,4.05525,6.476,5.03237,9.56288,7.29343,6.03011,4.41326-3.41245,9.88764-5.9215,13.0233-2.09786,2.62868-1.57821,6.98859-1.0664,10.06927a7.9551,7.9551,0,0,0,.601,1.95006,27.52639,27.52639,0,0,1-4.17642,7.87916c-7.8838,9.52438-22.14274,5.70664-32.05467,11.594-6.99183,4.158-3.99419,13.00915,3.1178,14.91493,4.14152,1.111,9.501.45363,12.78551,3.43052,3.2689,2.96092.74058,6.893-2.01268,9.00161-6.28226,4.81009-15.1665,7.04285-22.5656,10.01974-4.9093,1.974-12.35109,4.65676-14.162,9.82468-1.76827,5.04144,4.78144,9.49171,9.44653,10.17923,8.55862,1.26617,18.16419-5.036,25.16381-8.58083a81.83967,81.83967,0,0,1,14.94929-6.30289,17.42351,17.42351,0,0,1,8.44982-.39085c.95005.20921.28313,3.93658.63992,4.94382,1.47362,4.13056-.26367,9.86206-1.144,13.9536A65.72413,65.72413,0,0,1,94.52308,287.571c-1.50837,2.97507-5.73546,4.42106-8.64757,6.03979a53.74064,53.74064,0,0,0-9.38458,6.16553c-6.60407,5.76071,4.71929,7.17222,8.99285,7.41755a27.6546,27.6546,0,0,0,12.642-1.85606c3.27684-1.40969,5.29707-4.73116,9.268-3.42616,6.55368,2.15473,12.58776,8.25748,17.152,12.77072,5.01036,4.9509,11.85095,13.70537,9.18683,20.89338-2.95122,7.95446-11.47093,13.43792-13.87137,21.78485-1.66359,5.77668,2.66412,12.93185,10.21054,11.47534,3.70729-.71673,6.48379-3.046,9.276-5.253a23.75245,23.75245,0,0,1,5.18469-3.334c3.02091-1.321,9.48147,1.67534,9.59008,4.966.07763,2.16707-.826,4.24487-1.52009,6.37112-.42271.42187-.83767.84974-1.21,1.30246-.25216.29776.05043.52458.36831.57593.11263.01778.2057.04954.31807.07a9.18088,9.18088,0,0,0-.2327,2.39661c.18227,3.86382,4.04085,5.19549,7.63959,5.65692a1.61191,1.61191,0,0,0,1.45412-.667c.96951,3.24616.78327,7.10745.38,10.79308-.50411,4.70648-2.71832,12.45536,1.80326,16.118,4.665,3.78326,14.34427.21357,18.63708-2.33364,5.68905-3.37572,7.081-9.21609,8.19786-14.89969.58949-2.97,1.26416-6.28093,5.42915-5.92638,6.87151.58736,14.41416,4.87814,19.95941,8.26982,11.63,7.10654,21.51851,16.83287,35.48678,20.12966,6.1542,1.45125,18.99769-1.546,13.4989-9.35163-1.07415-1.53-2.70681-2.74663-3.94376-4.16412-2.59443-2.9602,1.87291-7.33952,4.19592-9.30555,5.23115-4.4256,16.16679,6.55983,20.00989,8.98837,4.29281,2.71378,9.047,5.14759,12.61873,8.69768,2.52831,2.52344,2.71435,6.17805,3.17975,9.39518,1.31459,9.09651,2.29581,23.02417,12.31615,28.05926,5.82858,2.93007,16.33,5.339,19.7075-1.81088,4.099-8.68353-3.19921-17.27071-6.542-25.07184.39948-.18962.65144-.48647.48466-.8178-4.34324-8.69678-3.998-18.35143-7.11577-27.355,7.60837-.60859,16.45389,7.36184,22.19313,10.76586,4.82016,2.86167,10.66422,5.76779,16.43066,3.59963,5.58794-2.10248,6.8251-8.37,5.10329-13.02675-2.3113-6.25063-8.19409-10.87365-9.877-17.391-2.77273-10.74972,15.38352-15.21342,23.6745-16.86045,8.36861-1.66137,17.49706-3.00719,24.14386-8.3992,6.54574-5.31253,11.71514-13.42195,8.7252-21.51377-2.8851-7.8064-10.88144-12.08937-5.6346-21.01223.50808-.86117-1.00823-.9851-1.84193-.57139,1.90011-3.90719,5.15372-6.53061,10.46647-8.30085.89565-.29595,1.772-.59806,2.64069-.90109,8.48873,2.71469,16.105.53964,22.72067-5.24158C443.33984,286.80544,436.68549,283.13123,432.20644,281.33795Z"/><path class="cls-1" d="M134.40348,111.19294c4.382-.44927,6.61166-3.14183,8.1784-6.7097a9.64129,9.64129,0,0,0-.35282-8.72345c.22476.11958.4382.248.68241.358.64766.29758,2.84639-.57865,1.908-1.00923-7.14317-3.27556-8.02353-10.32712-12.006-15.93015-3.50557-4.92422-9.687-9.15494-16.25236-9.58825-13.27394-.87169-9.02382,16.88894-5.38642,22.72314C115.19613,98.75808,124.59242,112.20035,134.40348,111.19294Z"/><path class="cls-1" d="M274.71341,68.16032a26.47552,26.47552,0,0,0,17.66782-2.83445c6.03785-3.62177,2.83864-8.64978-1.8731-11.84114a1.70616,1.70616,0,0,0-1.24867-.01778,16.80048,16.80048,0,0,0-7.48428-1.73395,14.25824,14.25824,0,0,0-12.11065,6.2294C266.28682,62.92673,268.78019,66.96855,274.71341,68.16032Z"/><path class="cls-1" d="M244.98557,80.32844c4.83961,1.352,11.494-1.38574,13.8402-5.37078,3.0906-5.25138-3.91676-7.99166-8.41507-8.08383-.61669-.01506-1.75278.60768-1.59772.93193a9.53255,9.53255,0,0,0-6.50325,3.98521C240.25059,74.85841,240.86728,79.17587,244.98557,80.32844Z"/><path class="cls-1" d="M390.934,85.2191c4.81241-1.29084,9.07425-5.50106,6.06883-10.11972a6.82513,6.82513,0,0,0-1.32233-1.50006c.031.02123.06592.04173.09689.06115.75627.52185,2.90079-.4696,1.85365-1.18107-6.45282-4.40945-15.42223-3.5989-19.1063,3.47134a8.53628,8.53628,0,0,0-.95005,3.35884,6.16982,6.16982,0,0,0-.55852,1.39373C375.30609,87.26315,387.2577,86.20529,390.934,85.2191Z"/><path class="cls-1" d="M432.2259,204.822c4.2539-.4607,9.06651-2.35669,11.79257-5.46132,2.04763-2.32657,1.20221-4.30765-.605-5.82368.0814-.08855.12409-.17093.04666-.23825a10.664,10.664,0,0,0-5.04908-2.36558c-.01549-.00454-.031-.01252-.0544-.01778a.82592.82592,0,0,0-.16658-.031,11.32975,11.32975,0,0,0-5.96816.7053,10.76589,10.76589,0,0,0-6.21635,6.05757,7.34446,7.34446,0,0,0-1.0392,2.42056C423.97761,204.33276,428.635,205.21171,432.2259,204.822Z"/><path class="cls-1" d="M456.72636,378.15307c-2.32679-1.99088-6.42184-1.67988-9.28749-1.33965a1.49672,1.49672,0,0,0-1.22941.792,9.30815,9.30815,0,0,0-1.25244.35c-3.07531,1.11992-4.44411,3.47751-5.04134,6.35079-.04269.19052.06989.29413.24044.38014,5.12652,2.63667,13.371,3.6165,17.09381-1.65683A3.49915,3.49915,0,0,0,456.72636,378.15307Z"/><path class="cls-1" d="M394.19537,380.49288c-4.04463-5.94235-13.27414-9.06639-20.63055-7.51752-9.37664,1.974-7.46482,13.54951-2.31885,18.55357,4.8279,4.69832,13.33212,3.41818,18.72628.40482,5.274-2.9406,5.9487-7.259,3.53674-10.92336C393.951,380.83927,394.28452,380.625,394.19537,380.49288Z"/><path class="cls-1" d="M230.03628,407.28452c-12.71568,3.69816-6.60808,17.62672-14.58878,24.53838-3.38545,2.93007-15.44169,9.06549-7.23232,13.24376,20.01014,10.18722,24.71792-20.13764,22.55394-33.62164.20173-1.24748.42271-2.494.62443-3.74152C231.48648,407.10543,230.40081,407.17819,230.03628,407.28452Z"/><path class="cls-1" d="M140.73221,411.59308c-.10483-.04609-.20947-.08946-.31807-.13554a6.5201,6.5201,0,0,0-.69035-.295c-.07366-.031-.15507-.05933-.23647-.086-.27137-.10633-.5468-.21448-.82219-.3101a1.40649,1.40649,0,0,0-.601.01071,8.9652,8.9652,0,0,0-1.2177-.07367,12.15851,12.15851,0,0,0-10.07851,5.31961c-3.26135,4.8667-2.81164,14.54531,4.983,15.04775,5.59191.36327,11.5019-3.00882,14.53433-7.12886C150.32209,418.45412,146.03325,414.00729,140.73221,411.59308Z"/><path class="cls-1" d="M97.99391,311.23131c-.95005.22427-1.0936.9508-.69035,1.35925a14.4608,14.4608,0,0,0-8.857,8.3052.67188.67188,0,0,0,.46922.91959c9.051,2.20082,18.44712,1.02774,22.79428-7.38289a.62658.62658,0,0,0-.23667-.80183C107.05267,309.82706,103.58582,309.91924,97.99391,311.23131Z"/><path class="cls-1" d="M102.81411,339.49634a12.40018,12.40018,0,0,0-9.22162,1.91994,11.08754,11.08754,0,0,0,.90339-2.4427c.225-.97984-2.20647-.66357-2.40422.21266-.99651,4.42541-6.11926,8.46833-9.27975,11.69689-3.64912,3.73082-7.496,7.3838-10.52857,11.56752-4.82795,6.65908,4.63809,8.2876,9.815,5.08118,8.23658-5.10967,16.56647-12.7034,22.88348-19.71431C106.97126,345.60961,106.2887,340.27857,102.81411,339.49634Z"/><path class="cls-1" d="M73.21409,166.1351c4.03693.87006,14.27065,2.25127,13.80923-3.96834-.29087-3.95074-4.52551-5.65366-9.08974-6.04341-4.45959-1.671-10.4355-2.28756-13.51458.18163C57.91972,161.50936,69.02989,165.23129,73.21409,166.1351Z"/><path class="cls-2" d="M279.18155,195.478A34.73612,34.73612,0,0,0,250.002,211.18261,34.737,34.737,0,0,0,220.82351,195.478a35.09266,35.09266,0,0,0-35.04825,35.05939c0,17.55249,11.05769,35.9043,31.97865,53.07892a183.97906,183.97906,0,0,0,31.80845,20.80445,1.00255,1.00255,0,0,0,.87833,0,183.96568,183.96568,0,0,0,31.80643-20.80445c20.921-17.1736,31.97763-35.52541,31.97763-53.07892A35.089,35.089,0,0,0,279.18155,195.478Z"/></svg>