<svg id="Layer_1" data-name="Layer 1" xmlns="http://www.w3.org/2000/svg" viewBox="0 0 500 500"><defs><style>.cls-1{fill:#5ec7e0;}.cls-2{fill:#fff;}</style></defs><title>splash</title><path class="cls-1" d="M388.34333,318.42748c.11343-.20263.241-.41295.37569-.62891,4.97323-6.50707,14.75327-10.32714,22.41-12.24257,3.90987-.97761,6.37344-2.757,9.38294-5.26566,2.09133-1.74269,4.6578-3.78078,5.66454-6.31435,1.33269-3.35622-6.0758-3.35109-7.81267-3.49956-5.57234-.47719-12.77883-1.04373-15.10065-6.58805,7.607-.36955,14.55472-2.919,11.05956-11.374-1.65176-4.01195-4.4097-7.58907-6.62862-11.33141-3.10169-5.21987-3.12293-11.00116-1.40729-16.69736,3.01294-9.99245,16.53625-22.46276,9.33684-33.12511-1.29385-1.91952-3.6547-3.07-5.56526-4.363-.35808-.24363-.68767-.49462-.99966-.75158-.645-4.313-1.63052-8.59436-2.52019-12.83816-.51761-2.48009-.71961-6.51288-2.11274-9.39515a8.62149,8.62149,0,0,0-1.84323-4.308c-.312-.32786-1.83615.00581-1.6768.5281a2.84079,2.84079,0,0,0,.188.5006c-1.07062-.53067-2.22981-.9361-3.33563-1.37912-1.51019-.60806-2.98481-1.28549-4.44164-1.993-4.94855-4.95864-10.28332-9.56959-14.78159-14.98952-.93232-1.12369-2.59842-2.708-2.59479-4.24123.00345-1.96633,1.95321-4.32888,2.779-6.07908.85791-1.802,1.16627-3.78249-.70528-5.00135-.76571-.498-5.94821-3.66221-8.1566-3.38372a12.34852,12.34852,0,0,0-4.14382-3.986c-3.6723-2.21065-2.2367-4.7326-.53159-8.08454,1.84323-3.63231,3.71477-5.16639,7.60341-6.68134a40.39885,40.39885,0,0,0,7.9722-3.564c4.29627-2.85716,2.46012-8.1739-.90038-11.04865-3.48809-2.99162-9.59927-.28447-13.03418,1.2831-6.98307,3.19015-13.25724,7.62324-20.08459,11.08709a26.6107,26.6107,0,0,1-9.50689,3.21919c-1.51019.13361-1.42852.26943-.97842-.67487.51761-1.10456.98187-2.23,1.44268-3.36032a31.40791,31.40791,0,0,0,1.65194-5.42079c2.297-11.10623-12.116-6.87918-18.7058-8.38661-6.78107-1.54672-5.16816-8.98647-2.82165-13.35618,2.92456-5.43924,7.55749-9.89489,11.0385-14.9996,2.25449-3.31111,5.1079-8.04371,2.75777-11.983-1.88588-3.16332-5.48722-5.56926-9.27313-3.94839-4.38121,1.87288-7.10013,7.34219-9.17731,11.10281-2.98118,5.395-5.30645,11.08624-7.81975,16.67651-1.88225,4.18194-4.3636,7.69158-5.45183,12.20481-1.32924,5.47017-8.87966,4.80436-13.45942,3.48213-5.3952-1.56-6.59323-6.69893-5.91626-11.34816.05681-.40372-.46426-.58141-.80455-.54724-11.46392,1.20382-25.61809,7.096-34.32043-3.10831-9.79769-11.48672.19855-26.83828-5.27106-39.59049-.26589-.61814-1.20873-.4162-1.59881-.02836-5.78142,5.78214-6.75984,13.14005-6.75276,20.79012.00363,8.19218,1.2336,17.33532-4.64709,24.036a42.32493,42.32493,0,0,0-8.745-5.76864c-.53159-.26448-1.40729-.09773-1.54536.5346-3.76454,17.44142-23.46637,29.95752-41.325,32.09658-9.31905,1.11618-25.19249.79173-27.135,11.69926a51.44138,51.44138,0,0,1-9.29437-11.26717.80412.80412,0,0,0-.71961-.24449,4.42964,4.42964,0,0,0-3.63346,2.28087c-1.12361,1.73773-6.25638.26277-8.48256.25269-.37569-.00154-1.12017.37041-.9394.8259,3.78229,9.60051,7.42627,20.13182,5.817,30.46307-2.336-3.4061-6.15021-7.57643-10.528-5.86637-4.53021,1.76866-4.74292,6.9535-3.85307,10.85354a11.90716,11.90716,0,0,0,.51743,1.59422,58.76323,58.76323,0,0,0-6.83425,12.7271c-.69475.62908-1.3895,1.26379-2.07372,1.91047-3.76087,3.567-8.80162,8.736-7.27727,14.21864a.51551.51551,0,0,0,.35445.34461,86.0424,86.0424,0,0,1-7.24914,6.74472c-3.35687,2.91815-8.52158,6.77735-9.39346,11.294-.88622,4.5966,7.86222,3.99606,10.41435,3.86416,3.2683-.17359,3.54834.16846,3.98792,3.18929a13.79251,13.79251,0,0,1-.23757,5.12812c-.7443,3.185-3.5164,5.12966-6.51514,6.36526-5.32773,2.199-11.28646,2.59114-16.55408,5.00374a12.89279,12.89279,0,0,0-7.87637,10.73241c-.23757,3.33776,2.92074,3.97436,5.77089,3.53134,6.533-1.01691,12.80006-4.98785,18.30506-8.22567a105.62777,105.62777,0,0,0,11.87845-7.559,25.47284,25.47284,0,0,1-3.53763,17.64661c-2.46012,4.12539-5.77434,7.78931-7.31284,12.35926-1.783,5.27574.77624,10.46981,3.87085,14.79185.49275.68495,4.25725,4.32973,3.19734,5.09651a67.33778,67.33778,0,0,1-7.5148,4.45719c-4.11192,2.21834-8.16712,4.38731-11.634,7.46811-.365.33043-.02468.73244.40055.74167a24.73567,24.73567,0,0,1,23.26092,16.57127,21.02261,21.02261,0,0,1-.5957,14.329c-1.52412,3.986-3.65107,6.09993-7.42972,8.0678-4.95563,2.57952-11.595,5.01382-14.89865,9.58719-2.19423,3.034-.82942,9.1006,4.02331,8.99877,5.53695-.11669,9.59932-7.65246,12.50241-11.17782,2.84293-3.45138,5.36671-4.93711,9.95718-5.99246a20.5918,20.5918,0,0,1,15.25655,2.29676c7.05767,4.22619,9.95028,12.85473,9.87569,20.34283-.07078,6.674-3.35687,10.97109-7.1887,16.22683-1.53828,2.10387-5.04057,6.00237-4.4097,8.8503.67007,3.01092,5.54058,1.71689,7.59651,1.23389,11.485-2.70715,11.16954-16.81234,21.22236-21.64591-1.03142,3.85408-1.22648,7.86021-2.41747,11.68764-.241.76576,1.33632.33453,1.58442.12182,2.36792-1.99128,5.33495-2.64786,7.97583-4.18878,1.74758-1.02016,6.28832,2.24089,7.76294,3.10592,4.53384,2.67042,7.41575,6.38952,8.1423,10.98185q.03206,1.25012.18435,2.47684c-.00708.4748-.02123.9537-.07441,1.44336-.02486.251.1559.38459.39347.43789a16.6761,16.6761,0,0,0,1.53837,4.31726l.00363.00837c-.04251.61473-.078,1.22706-.08861,1.842-.12051,4.93113,4.22531,7.31708,9.10652,6.6663,6.49032-.86331,12.10531-6.22755,17.94353-8.69944a18.97721,18.97721,0,0,1,15.87344.2462c2.84633,1.42491,3.4242,5.05551,4.59392,7.58907,2.07372,4.50314,8.6635,4.49563,12.71857,2.40423,3.56618-1.83615,5.38109-14.98115,9.10657-14.23367,6.12189,1.22791,12.04869,3.28019,18.11722,4.70424,5.54765,1.30309,11.79351.20092,17.0751-1.87869.1383,3.37518.72669,7.0977,4.35308,8.55831,3.41349,1.37826,7.80541-1.19374,10.52071-2.82965a.559.559,0,0,0,.30146-.55732c-.37224-1.97385-1.457-6.14076,2.36774-5.762,1.46046.14505,2.9104.54724,4.35308.81411a11.98345,11.98345,0,0,0,7.59288-.72663c3.15124-1.53169,5.15055-3.98512,7.26311-6.62957,2.2652-2.84144,4.0057-2.7555,7.75949-2.75892,1.96737-.00325,5.23912.43465,6.86274-.97932a127.53417,127.53417,0,0,0,10.33994-10.34133c6.46564-7.08677,12.78953-14.68506,21.99533-18.72366,4.42731-1.94122,10.2443-3.31931,14.82769-1.258,2.39623,1.0762,4.48774,2.65453,6.98325,3.54227,5.81681,2.06885,7.31629-5.31247,7.93663-8.99057,1.17679-6.94769-4.40607-10.21695-7.18525-15.75135C384.39789,327.03431,386.2874,322.04646,388.34333,318.42748Z"/><path class="cls-1" d="M58.47516,132.96805c2.80391.121,8.88656-.05245,9.92178-3.29522.72669-2.25576-2.83581-4.872-4.43457-5.8621-.0922-.05433-.1878-.10012-.28349-.151.07441-.07842.06733-.14608-.078-.17769-.202-.05006-.40055-.10012-.60255-.15018a8.16029,8.16029,0,0,0-2.27591-.5498,12.45643,12.45643,0,0,0-7.41557.096c-1.99931.75158-4.69319,2.82555-4.78539,5.06952C48.35119,132.073,55.39833,132.83462,58.47516,132.96805Z"/><path class="cls-1" d="M83.68181,103.75391c2.22618,2.3692,2.5594,2.82384,5.81354,2.82384.36153,0,1.13777-.14352,1.19458-.59149,1.07044-8.45324-1.22307-16.2458-4.03746-24.20613-.22342-.62327-1.94976-.162-1.73343.43789.04955.15445.1064.307.1559.4613A44.565,44.565,0,0,0,77.17733,69.0479c-.10635-.12267-.422-.10917-.74811-.03246C74.15,67.01,71.573,67.42447,70.0948,71.03508c-3.332,8.1481.26589,15.385,4.95563,22.22493A88.68134,88.68134,0,0,0,83.68181,103.75391Z"/><path class="cls-1" d="M132.18835,96.24992c.4006.04,1.36119-.04921,1.56682-.4572,1.31146-2.57935,2.54165-5.73943.56008-8.30648a8.94178,8.94178,0,0,0-4.90241-2.69878c-3.08758-1.15205-7.36951-1.39227-8.2345,2.30582C119.85962,92.742,127.6262,95.79033,132.18835,96.24992Z"/><path class="cls-1" d="M169.56424,87.9701a12.24088,12.24088,0,0,0,9.103-7.59744c2.12672-5.41156-1.55974-9.84722-6.441-12.20976.4893-.2286.82256-.56825-.11343-.36887-.15227.03434-.30472.07432-.45373.10849-.08149-.03588-.15935-.07586-.24447-.11088a2.4107,2.4107,0,0,0-1.63778.53562c.04265.01743.08167.03742.12051.05672-5.33839,1.69434-10.40383,5.38662-10.67679,11.03105C158.962,84.755,164.22943,88.86365,169.56424,87.9701Z"/><path class="cls-1" d="M246.98186,81.15447h4.04109a1.40161,1.40161,0,0,0,1.20873-.53818c3.88864-7.66237,5.33477-16.04658,8.07837-24.0785.10291-.29626-.45718-.33384-.96771-.217.76571-3.73909.58858-7.86021-2.61947-9.60461-2.63725-1.43738-4.92369,1.686-5.84893,3.49717-2.56284,5.0063-3.261,11.08368-3.94164,16.533-.57079,4.53646-1.31872,9.653-.47152,14.20531C246.49981,81.13944,246.84011,81.15447,246.98186,81.15447Z"/><path class="cls-1" d="M382.72834,150.377c.80473,2.68374,5.52624,2.38509,7.70632,2.09482,2.58408-.34632,6.80957-1.31231,7.96149-3.8727,1.38605-3.08319-4.21823-4.8944-7.13553-5.7044.94285-.29865,1.92472-.56723,2.93853-.87681,1.028-.31112.7835-1.22962-.26226-.91184-1.4817.45464-2.98463.82675-4.40607,1.32974-.10635-.02751-.21634-.05672-.32614-.08252-.50691-.12848-1.5846.43875-1.35411.78079a9.45493,9.45493,0,0,0-3.31785,2.54689C383.50821,146.94818,382.218,148.67925,382.72834,150.377Z"/><path class="cls-1" d="M468.19965,291.80618a1.07025,1.07025,0,0,0-.81889.52964,30.00131,30.00131,0,0,0-3.64054,1.007c-.14882.05006-.645.28532-.53522.51392,3.34271,6.92412,11.92817,7.7384,19.11688,7.81169a36.00707,36.00707,0,0,0,12.86395-1.16624c.32614-.09175.81526-.35025.71961-.74406C492.73642,287.02677,478.483,290.53556,468.19965,291.80618Z"/><path class="cls-1" d="M442.38319,319.16248a3.411,3.411,0,0,0-1.11309-2.37006c.58132-.21356,1.15556-.66581.443-.78592-.69475-.1184-1.432-.23014-2.1906-.32855-3.15832-1.3499-7.54334-.57577-10.57407.33692-.65936.197-.794.62993-.53177.82846-.12759.0692-.25863.13429-.38621.20861-.50346.06082-1.02089.12916-1.53143.21357-.82234.13583-1.4356,1.102-.241.905.12759-.02.25173-.03075.37569-.0516a5.48318,5.48318,0,0,0-.95356,6.78812c1.49948,2.80966,4.79973,4.19373,8.02193,4.11941,5.18939-.12506,9.35462-3.85989,12.32855-7.48964.06733-.081.11-.26038,0-.33709A26.46516,26.46516,0,0,0,442.38319,319.16248Z"/><path class="cls-1" d="M419.11524,356.71574c-.28712-.20195-1.12706.05929-1.49222.30531a6.81919,6.81919,0,0,0-4.65435.7825c-1.76174,1.01452-1.77934,3.87253-2.25449,5.67109-.03176.11191.03557.17188.149.20024,3.11585.82265,6.61809,1.84708,9.8118.80181,2.76847-.90774,3.35687-3.97931,3.87085-6.34032a.11821.11821,0,0,0-.04955-.15257C422.85851,356.835,420.71055,357.83533,419.11524,356.71574Z"/><path class="cls-1" d="M404.33365,401.67867c-2.10548.92687-3.06612,2.974-3.69354,4.96786-.73032,2.33247-1.3365,5.29487-.18077,7.60154,1.45683,2.90739,5.36671,2.96906,8.004,1.57765a6.80815,6.80815,0,0,0,3.644-6.57216c.4432.64309,2.00984.19768,1.67662-.509C412.3839,405.783,408.86387,399.68739,404.33365,401.67867Z"/><path class="cls-1" d="M324.23631,429.61723c.12051-.06339.22342-.12933.351-.191,1.035-.48881-.54248-.60738-1.04575-.37212-.29075.13685-.57424.28122-.85428.42884a18.17027,18.17027,0,0,0-5.45183.68067c-1.00673.29711-.826.99026.19492.68922a14.06665,14.06665,0,0,1,3.96668-.57406,6.73217,6.73217,0,0,0-.78695.68,7.4558,7.4558,0,0,0-.69493.312c-3.33545,1.77447-4.27141,6.25933-4.79592,9.47271a.279.279,0,0,0,.18077.30788c1.76519.79087,3.55887,1.4466,5.50845.89014a7.70182,7.70182,0,0,0,2.655-1.55424c3.53419-.94344,7.14278-2.91815,6.26709-6.65127C329.12461,431.15387,326.83818,429.98764,324.23631,429.61723Z"/><path class="cls-1" d="M285.73322,430.17779a7.19665,7.19665,0,0,0-5.5511.62327,7.63785,7.63785,0,0,0-4.44164.74919,15.15534,15.15534,0,0,0-6.0297,5.81033c-1.60566,2.84315-.20908,5.60446,2.82528,6.76078a11.20008,11.20008,0,0,0,9.62051-1.35229c4.25725-2.783,4.5549-8.10641,3.73619-12.47937A.2024.2024,0,0,0,285.73322,430.17779Z"/><path class="cls-1" d="M175.718,420.54995a3.50221,3.50221,0,0,0-2.414-.31625c-.92869.13856-1.69436.95865-2.55939,1.06629a1.60929,1.60929,0,0,0-.59892.20929,8.33883,8.33883,0,0,0-3.10532,1.10627c-2.93145,1.85357-2.67628,6.51783-2.69751,9.37926,0,.21527.62034.13429.716.11857,3.89572-.625,8.32321-1.32325,10.23377-4.98717a13.39281,13.39281,0,0,0,1.028-3.05586c.16661-.66478.29075-1.33811.41834-2.00871C176.91261,421.14724,176.57576,421.09633,175.718,420.54995Z"/><path class="cls-1" d="M19.25228,301.107c.09583-.13.01416-.2327-.41471-.23355-.39692-.0041-.79747-.01418-1.20873-.02836a18.72339,18.72339,0,0,0-2.03107-.07347,12.983,12.983,0,0,0-5.40936.74c-3.10877,1.33077-3.32148,4.71517-3.35683,7.554a.2275.2275,0,0,0,.16657.12267c4.73584,1.706,11.72254,1.84947,15.08286-2.44011a3.05945,3.05945,0,0,0-.16661-4.30718A5.73364,5.73364,0,0,0,19.25228,301.107Z"/><path class="cls-1" d="M73.12208,213.79656c.06733-.07928.12051-.2327.00708-.307a21.7691,21.7691,0,0,0-18.37258-3.0099,15.07943,15.07943,0,0,0-8.06077,2.32171c-2.648,1.84366-1.9886,4.86279-.03176,6.90071C54.5014,227.87356,67.60292,220.28859,73.12208,213.79656Z"/><path class="cls-1" d="M64.35585,178.75773c.43594-.10678.833-.36289.755-.66325-1.2336-4.65913-4.48756-9.69551-9.1136-12.23829.34393.09431.67715.197,1.00673.307.6913.23116,2.03833-.70237,1.01381-1.04442-4.881-1.6342-15.10428-2.43344-17.68128,3.26942-1.33632,2.95728,2.00276,5.73618,4.16505,7.3128a34.61025,34.61025,0,0,0,12.6903,5.93659C60.33962,182.28736,63.849,181.41892,64.35585,178.75773Z"/><path class="cls-1" d="M83.48689,39.64685c3.57321,1.65846,11.98843,2.20826,13.68991-2.22569a3.77033,3.77033,0,0,0-.49638-3.20689,9.33712,9.33712,0,0,0,.7374-4.39226c.00712-.10012-.25173-.11584-.30128-.1143a30.11416,30.11416,0,0,0-4.52313.43892,14.38665,14.38665,0,0,0-3.81768-1.62173,16.48533,16.48533,0,0,1,7.26311.74748c.64883.211,2.04178-.67162,1.028-.99948-5.07959-1.65009-11.11636-1.37143-15.00482,2.48521C79.11276,33.68207,79.57356,37.82915,83.48689,39.64685Z"/><path class="cls-1" d="M406.40375,109.41167a7.77354,7.77354,0,0,0,5.52642-6.4553,7.56925,7.56925,0,0,0-.92161-5.33827c.5884.07432,1.8857-.50641,1.25483-.79a21.21425,21.21425,0,0,0-3.77176-1.319,5.46188,5.46188,0,0,0-2.07009-.34119,11.21457,11.21457,0,0,0-5.00173.65915c-3.90261,1.469-5.7424,5.59523-6.86619,9.09394a.1862.1862,0,0,0,.05318.20024C397.79723,107.84752,401.88424,110.52785,406.40375,109.41167Z"/><path class="cls-1" d="M449.57553,190.44452a20.427,20.427,0,0,1-4.92369-.8751,25.971,25.971,0,0,1,3.11585-.77242c.72651-.12933,1.50638-.90432.29765-.689a30.32032,30.32032,0,0,0-4.42386,1.13873c-.18077-.06014-.3579-.12353-.53885-.18862-.08149-.02922-.163-.05758-.2481-.08833-.794-.29369-1.5739-.61575-2.33943-.9595-.52106-.23441-1.73706.31625-1.55629.70664-3.87793.87015-6.56129,5.12727-7.71339,9.57369a20.15672,20.15672,0,0,0-1.68715,2.9665c-.04973.10678.05663.1852.15227.20861a17.42716,17.42716,0,0,0,13.29644-2.54433,14.10194,14.10194,0,0,0,7.07527-7.86944C450.22055,190.69823,449.96174,190.45955,449.57553,190.44452Z"/><path class="cls-2" d="M279.18155,195.478A34.73612,34.73612,0,0,0,250.002,211.18261,34.737,34.737,0,0,0,220.82351,195.478a35.09266,35.09266,0,0,0-35.04825,35.05939c0,17.55249,11.05769,35.9043,31.97865,53.07892a183.97906,183.97906,0,0,0,31.80845,20.80445,1.00255,1.00255,0,0,0,.87833,0,183.96568,183.96568,0,0,0,31.80643-20.80445c20.921-17.1736,31.97763-35.52541,31.97763-53.07892A35.089,35.089,0,0,0,279.18155,195.478Z"/></svg>