<svg id="Layer_1" xmlns="http://www.w3.org/2000/svg" viewBox="0 0 500 500"><defs><style>.cls-1{fill:#5ec7e0}</style></defs><path class="cls-1" d="M447.442 160.518c-5.775 8.584-11.376 17.485-15.71 26.9-2.33 5.053-7.125 28.776-15.624 26.377-1.755-.494-5.581-5.714-7.628-6.93-7.534-4.458-12.887.185-9.9-14.168.798-3.845 4.297-7.289 3.192-11.575-1.393-5.379-5.362-5.976-10.074-4.852.072-.4.094-.785.176-1.188.265-1.293-1.254-.228-1.62.078-.415.346-1.317 1.233-2.429 2.304-5.407 1.982-11.107 5.03-14.77 5.256-4.448-3.021 8.405-8.895 10.243-9.678 6.172-2.641 12.697-4.473 18.481-7.977 4.955-3.005 11.864-8.088 13.446-14.07 2.17-8.209-4.622-13.056-12.59-10.641-4 1.21-7.228 4.824-10.122 7.496a37.597 37.597 0 01-19.206 9.893c-3.548.745-3.399-.906-7.415 1.062-1.989.972-3.356 2.888-4.996 4.307-5.253 4.555-26.977 18.829-11.612 1.297 2.277-2.601 6.766-4.441 9.621-6.37 6.085-4.11 12.427-8.598 15.896-15.293 3.58-6.906 3.755-17.197-6.494-16.536-7.43.478-12.82 7.919-16.512 13.555-3.873 5.921-5.543 8.828-10.99 14.215q-3.295 3.264-6.592 6.525-6.552-15.201 3.744-26.324c6.618-9.809 14.682-17.531 22.923-25.856 6.99-7.065 15.399-15.77 16.312-26.283 1.501-17.342-22.017-30.39-27.485-10.373-1.389 5.078.3 11.118-.652 16.34-2.536 13.937-13.112 24.757-23.974 33.1-1.576 1.212-6.822 5.838-8.228 5.898-11.706.52 2.253-18.342 3.442-21.543 1.372-3.697 2.484-8.527-.775-11.818-3.86-3.885-8.198-1.622-11.246 1.889-2.322 2.677-2.904 5.437-3.872 8.671-.922 3.065-1.703 10.396-3.392 17.306-3.235 4.72-8.488 10.985-13.77 14.423a17.553 17.553 0 01-4.439-2.687c-5.84-4.665-6.365-13.288-6.91-20.025-1.843-22.836 10.634-40.949 11.729-62.931.445-8.967-3.163-29.954-16.712-25.684-10.965 3.458-15.493 14.506-16.94 26.93-.087.294-.173.578-.242.83-2.635 9.839-.472 22.8-1.303 32.945-.836 10.15-3.603 40.036-17.49 41.743-.708.088-2.592-2.534-4.053-2.63-4.88-.316-11.349-.771-15.871-2.679-14.38-6.05-9.528-22.335-8.365-34.382.839-8.646-.754-29.652-15.14-23.82-7.944 3.22-9.511 12.977-8.166 20.285 1.22 6.654 9.223 17.69 1.177 22.128-3.697 2.036-6.992-1.188-10.986 2.95a11.234 11.234 0 00-3.012 5.895c-.398 2.775.525 4.507 1.51 6.92q1.89 3.09 3.837 6.148-3.188 19.485-17.98 19.766c-26.26 4.873-40.443-20.933-49.556-40.672-.838-1.812-3.463.924-4.19 2.68-6.35-7.292-13.879-13.885-20.448-21.255-9.342-10.482-18.382-38.96-37.15-34.17-32.367 8.263 8.225 53.096 21.626 59.105 8.76 3.934 15.23 7.086 21.745 14.459 7.556 8.544 18.454 19.456 23.78 29.601.941 1.787 7.48 6.46 1.518 8.621-2.845 1.029-7.776-6.72-8.706-7.934-2.187-2.855-3.347-6.505-6.47-8.603-4.132-2.781-7.304-3.39-11.28-.611-8.372 5.838-5.005 16.288 2.037 21.648 7.565 5.754 14.21 9.539 20.645 16.818 2.347 2.658 5.233 4.857 7.557 7.409.768.848 4.384 1.812 4.539 2.124q2.806.886-3.095 4.527-1.914 7.164-7.329 3.02c-10.65-2.085-24.453-30.821-35.835-17.13-2.784 3.344-2.364 5.677-.787 9.444 1.812 4.333 7.94 8.7 11.67 10.982 1.64 1.001 5.595 1.809 6.787 3.267 2.396 2.921 3.064 6.622-2.99 4.772-1.578-.478-3.807 3.285-3.69 4.52 1.347 14.182 18.615 10.205 29.16 13.737a9.758 9.758 0 00-2.931 3.096c-3.444 5.721-.885 6.042 3.361 9.023 5.639 3.967 9.38 2.921 3.357 9.514-5.428 5.945-2.852 3.368-11.134 1.35a41.196 41.196 0 00-16.937-.574c-7.312 1.198-17.254 3.18-23.08 7.944-11.25 9.192.435 17.618 11.267 13.029 7.076-2.997 13.897-9.033 22.182-7.732 9.316 1.466 9.043 4.303 5 10.684-4.3 6.79-3.051 5.968-9.779 5.566-6.88-.415-13.937-1.383-19.496 3.591-3.187 2.85-6.595 8.304-3.135 12.262 4.417 5.054 16.72-1.303 20.893-3.203 1.765-.801 9.54-5.904 11.367-5.16l.792 5.615q3.306 6.32-3.13 8.945c-3.842 5.311-10.987 8.712-15.677 13.34-2.281 2.249-6.41 5.63-6.194 9.325.448 7.634 8.862 5.829 13.752 4.349 6.44-1.953 11.744-12.91 20.082-6.672 7.748 5.793 2.798 8.79-1.553 15.789-6.019 9.67-9.623 10.54-18.836 15.553-6.168 3.36-28.822 20.726-17.862 30.46 4.558 4.045 15.626-6.762 17.845-8.798 6.805-6.244 12.453-14.667 21.65-17.675 8.593-2.814 10.66 2.52 17.864 2.946 2.072.119 5.024-1.274 7.762-1.966 2.97 3.858 1.995 8.339-.82 12.965-4.085 4.6-8.571 9.264-9.805 10.795-1.591 1.962-3.154 3.899-4.682 5.842a51.285 51.285 0 00-6.314 7.516 34.075 34.075 0 00-3.406 6.974 51.987 51.987 0 00-4.188 10.493c-.07.272-.288.943.053 1.186 6.876 4.874 13.652 1.682 18.592-4.187 3.382-4.021 5.177-8.994 7.09-13.797 2.17-5.457 3.387-12.81 6.875-17.41a37.106 37.106 0 018.13-7.912c1.48 0 2.953-.006 4.427-.006q.28 3.203.564 6.398c-.178 4.957-2.166 10.918-3.643 15.79-3.07 10.116-7.894 18.273-12.063 27.77-1.917 4.36-5.153 12.955 1.307 15.386 5.442 2.047 10.349-4.675 12.374-8.643a35.397 35.397 0 002.812-9.63c.542-2.884.685-5.8 1.12-8.696q.676-3.915 1.359-7.831 16.965-11.397 13.643.77a.75.75 0 00.583.869c9.578 1.81 6.428 8.521 4.896 15.876-.355 1.717.872 1.52 1.97.82 4.942-3.161 7.044-6.31 12.388-4.176-.198-.076-.206 0-.074.192l-3.408 8.528a9.164 9.164 0 003.362.637l5.649-3.654a11.29 11.29 0 01.825.806c1.342.848 3.3-1.914 3.714-2.834q3.79-8.345 7.577-16.697c6 5.375-2.4 18.92 6.726 23.02 1.457.653 3.306-1.663 3.752-2.819 3.685-9.64 4.117-18.486.787-27.983 13.846-4.012 6.034 23.47 5.914 30.57-.077 4.422.822 10.781 6.398 11.575 7.478 1.058 9.852-9.138 10.21-14.164.357-5.042-3.84-24.576 8.55-21.298 3.756.996 6.936 9.693 7.948 12.825 3.587 11.122-.388 22.82-1.381 33.974-1.194 13.426 3.12 37.75 20.575 39.026 7.93.583 13.907-6.112 14.623-13.737.764-8.125-4.067-13.675-8.78-19.628-8.036-10.155-11.366-17.257-13.21-29.96-.78-5.396-2.665-11.712-2.442-17.142q-2.764-7.345 4.545-12.23 2.904-11.794 8.416-4.79c4.885.737 6.035 3.818 11.327 1.192a14.861 14.861 0 006.623-7.423c1.48-3.93-1.413-8.574-2.976-12.66 3.673 3.588 7.873 5.45 13.727 6.344 1.623.251 3.234-2.306 3.638-3.553 1.89-5.844-.814-8.508-5.944-11.64q-4.06-1.69-8.126-3.377 2.444-4.682 4.886-9.367c3.804-.77 8.298 4.957 10.648 7.366 4.893 5.017 8.724 11.53 12.865 17.17 4.618 6.293 10.537 18.328 19.793 18.23a11.877 11.877 0 0011.321-8.65c1.263-4.971-1.609-9.265-4.75-12.898-6.731-7.777-35.888-25.436-30.732-35.973q5.107-2.467 10.207-4.935 8.562-8.87 17.513-1.838c12.35 10.013 2.531 3.886 4.55 6.283 2.514 2.982 5 6.756 9.544 6.53 3.312-.165 6.935-3.342 7.824-6.547 1.391-5.012-2.715-7.495-4.462-11.608q-1.444-2.459-2.891-4.918 3.973-.341 7.952-.686c4.123 2.007 3.945 7.668 6.381 10.898 3.186 4.221 4.951 6.71 10.2 7.887 5.256 1.179 10.821-.435 16.223.906a34.278 34.278 0 0117.008 10.62c5.456 6.02 11.027 17.129 21.04 12.672 9.61-4.276 7.692-16.055 3.085-23.218-7.963-12.378-21.35-18.589-34.066-24.695-6.577-3.158-14.526-6.756-17.764-13.9-2.586-5.708-2.38-15.53 8.136-15.686 3.926-.057 9.35 5.056 12.912 6.56 10.55 4.448 26.293-5.437 15.962-16.722-4.104-4.482-9.49-4.09-15.058-4.262-1.012-.033-6.532.922-7.855.054-14.17-9.286.388-11.034 2.376-15.04 2.347-4.714 6.02-6.964 5.306-11.777 11.988-4.373 27.268-2.787 34.928-14.78 5.142-8.05 2.522-25.679-7.457-29.312-3.897-1.417-6.057.257-9.456 1.457-3.566 1.268-4.897 5.935-3.763-1.001.84-5.17 8.334-12.94 11.194-17.382 5.604-8.695 14.634-18.371 17.855-28.18.954-2.906 2.913-6.431.592-9.43-7.44-9.607-17.957 6.915-21.264 11.831z"/><path class="cls-1" d="M401.733 90.545c.126.44.511.603 1.26.208 4.373.338 8.296-4.25 9.583-8.46a7.49 7.49 0 00.814-5.36c-1.53-7.13-9.657-.942-12.218 1.73-1.835 1.908-3.898 4.595-3.428 7.44a5.858 5.858 0 003.989 4.442zM491.11 343.034a16.684 16.684 0 00-9.604-4.03c-1.58-.145-3.938 3.081-3.685 4.522a36.283 36.283 0 001.733 6.252 4.613 4.613 0 00-.955 2.017 8.44 8.44 0 002.259 7.547c.55.57 1.358.397 2.123-.11a6.509 6.509 0 006.04.388 9 9 0 003.81-3.352 6.967 6.967 0 003.086-5.154c-.035-2.934-2.742-6.246-4.808-8.08zM307.694 396.915c-1.251-1.08-4.043 2.987-4.005 4.006a62.746 62.746 0 005.322 23.443c.284.646 1.202.246 2.11-.519l3.565 9.671c.666 1.805 4.208-2.888 4.159-4.138-.506-11.762-1.683-24.315-11.151-32.463zM46.557 285.034A28.497 28.497 0 0021.3 297.087c-1.161 1.626-1.217 4.463 1.472 3.963a45.466 45.466 0 0019.984-9.04 2.714 2.714 0 002.02-.73c.688-.538 1.37-1.075 2.055-1.612 1.44-1.133 2.344-4.445-.275-4.634zM370.557 47.332c-1.094 1.445-1.667 3.22-.435 3.234a23.455 23.455 0 007.168-1.056c4.088.171 8.198-1.87 11.63-7.201.594-.916.77-1.5.701-1.832a20.26 20.26 0 003.404-10.326 17.389 17.389 0 00-2.987-10.832c-.452-2.917-1.558-5.585-3.759-7.121-.604-3.067-2.904-5.273-8.691-5.642-8.489-.544-15.597 3-18.787 11.141-3.945 10.044 2.83 24.235 11.756 29.635z"/><path d="M279.182 195.478a34.736 34.736 0 00-29.18 15.705 34.737 34.737 0 00-29.178-15.705 35.093 35.093 0 00-35.049 35.06c0 17.552 11.058 35.904 31.979 53.078a183.98 183.98 0 0031.808 20.805 1.003 1.003 0 00.879 0 183.966 183.966 0 0031.806-20.805c20.921-17.173 31.978-35.525 31.978-53.079a35.089 35.089 0 00-35.043-35.059z" fill="#fff"/></svg>
